SplineFontDB: 3.0
FontName: Gandom
FullName: Gandom
FamilyName: Gandom
Weight: Regular
Copyright: Copyright (c) 2003 by Bitstream, Inc. All Rights Reserved.\nDejaVu changes are in public domain\nCopyright (c) 2015 by Saber Rastikerdar. All Rights Reserved.
Version: 0.2
ItalicAngle: 0
UnderlinePosition: -100
UnderlineWidth: 100
Ascent: 1536
Descent: 512
LayerCount: 2
Layer: 0 1 "Back"  1
Layer: 1 1 "Fore"  0
XUID: [1021 502 1027637223 7335572]
UniqueID: 4193122
UseUniqueID: 1
FSType: 0
OS2Version: 1
OS2_WeightWidthSlopeOnly: 0
OS2_UseTypoMetrics: 1
CreationTime: 1431850356
ModificationTime: 1448538665
PfmFamily: 17
TTFWeight: 400
TTFWidth: 5
LineGap: 0
VLineGap: 0
Panose: 2 11 6 3 3 8 4 2 2 4
OS2TypoAscent: 2000
OS2TypoAOffset: 0
OS2TypoDescent: -1000
OS2TypoDOffset: 0
OS2TypoLinegap: 0
OS2WinAscent: 2000
OS2WinAOffset: 0
OS2WinDescent: 1000
OS2WinDOffset: 0
HheadAscent: 2000
HheadAOffset: 0
HheadDescent: -1000
HheadDOffset: 0
OS2SubXSize: 1331
OS2SubYSize: 1433
OS2SubXOff: 0
OS2SubYOff: 286
OS2SupXSize: 1331
OS2SupYSize: 1433
OS2SupXOff: 0
OS2SupYOff: 983
OS2StrikeYSize: 102
OS2StrikeYPos: 530
OS2Vendor: 'PfEd'
OS2CodePages: 600001ff.dfff0000
Lookup: 1 0 0 "'case' Case-Sensitive Forms in Latin lookup 0"  {"'case' Case-Sensitive Forms in Latin lookup 0 subtable"  } ['case' ('DFLT' <'dflt' > 'latn' <'CAT ' 'ESP ' 'GAL ' 'dflt' > ) ]
Lookup: 6 1 0 "'ccmp' Glyph Composition/Decomposition lookup 2"  {"'ccmp' Glyph Composition/Decomposition lookup 2 subtable"  } ['ccmp' ('arab' <'KUR ' 'SND ' 'URD ' 'dflt' > 'hebr' <'dflt' > 'nko ' <'dflt' > ) ]
Lookup: 6 0 0 "'ccmp' Glyph Composition/Decomposition lookup 3"  {"'ccmp' Glyph Composition/Decomposition lookup 3 subtable"  } ['ccmp' ('cyrl' <'MKD ' 'SRB ' 'dflt' > 'grek' <'dflt' > 'latn' <'ISM ' 'KSM ' 'LSM ' 'MOL ' 'NSM ' 'ROM ' 'SKS ' 'SSM ' 'dflt' > ) ]

StartChar: afii57388
Encoding: 1548 1548 2
Width: 664
VWidth: 2054
GlyphClass: 2
Flags: W
LayerCount: 2
Fore
SplineSet
363.627 242.681 m 5,0,-1
 402.518 242.681 l 6,1,2
 471.258 242.681 471.258 242.681 471.258 190.32 c 6,3,-1
 471.258 59.6504 l 6,4,5
 471.258 -0.859375 471.258 -0.859375 418.357 -0.859375 c 6,6,-1
 297.148 -0.859375 l 6,7,8
 236.328 1.96618 236.328 1.96618 236.328 56.8809 c 6,9,-1
 236.328 203.32 l 4,10,11
 255.127 406.729 255.127 406.729 445.768 568.84 c 5,12,-1
 504.168 539.669 l 5,13,14
 365.127 386.729 365.127 386.729 363.627 242.681 c 5,0,-1
EndSplineSet
EndChar

StartChar: uni0615
Encoding: 1557 1557 3
Width: 0
VWidth: 2186
GlyphClass: 4
Flags: W
AnchorPoint: "Anchor-10" 547.84 1279.5 mark 0
AnchorPoint: "Anchor-9" 547.84 1279.5 mark 0
AnchorPoint: "Anchor-1" 547.84 1975 basemark 0
AnchorPoint: "Anchor-1" 547.84 1279.5 mark 0
LayerCount: 2
Fore
SplineSet
466.096 1456.96 m 1,0,-1
 552.12 1456.96 l 2,1,2
 639.138 1456.96 639.138 1456.96 665.862 1472.75 c 0,3,4
 697.288 1492.32 697.288 1492.32 713.059 1508.3 c 128,-1,5
 728.83 1524.27 728.83 1524.27 728.83 1541.65 c 0,6,7
 728.83 1583.09 728.83 1583.09 689.03 1604.94 c 1,8,9
 681.399 1607.6 681.399 1607.6 672.751 1605.46 c 128,-1,10
 664.102 1603.31 664.102 1603.31 640.309 1592.64 c 128,-1,11
 616.515 1581.97 616.515 1581.97 601.865 1576.19 c 0,12,13
 543.049 1552.44 543.049 1552.44 483.147 1478.12 c 2,14,-1
 466.096 1456.96 l 1,0,-1
576.73 1374.89 m 2,15,-1
 282.64 1374.89 l 1,16,-1
 282.64 1456.96 l 1,17,-1
 369.31 1456.96 l 1,18,-1
 369.31 1883.89 l 1,19,-1
 452.45 1883.89 l 1,20,-1
 452.45 1497.67 l 1,21,-1
 477.109 1547.67 l 2,22,23
 513.381 1621.22 513.381 1621.22 619.878 1662.18 c 0,24,25
 682.718 1686.12 682.718 1686.12 752.956 1660.03 c 0,26,27
 814.11 1636.51 814.11 1636.51 814.11 1557.7 c 0,28,29
 814.11 1466.67 814.11 1466.67 750.648 1417.09 c 0,30,31
 696.384 1374.89 696.384 1374.89 576.73 1374.89 c 2,15,-1
EndSplineSet
EndChar

StartChar: uni061B
Encoding: 1563 1563 4
Width: 654
VWidth: 2054
GlyphClass: 2
Flags: W
LayerCount: 2
Fore
SplineSet
344.574 597.451 m 1,0,-1
 383.466 597.451 l 2,1,2
 452.205 597.451 452.205 597.451 452.205 545.091 c 2,3,-1
 452.205 425.421 l 6,4,5
 452.205 353.911 452.205 353.911 399.305 353.911 c 2,6,-1
 278.096 353.911 l 2,7,8
 217.275 353.911 217.275 353.911 217.275 411.651 c 2,9,-1
 217.275 558.091 l 0,10,11
 236.074 761.499 236.074 761.499 426.716 923.61 c 1,12,-1
 485.115 894.439 l 1,13,14
 346.074 741.499 346.074 741.499 344.574 597.451 c 1,0,-1
428.5 172.3 m 2,15,-1
 428.5 29.2998 l 2,16,17
 428.5 0.299805 428.5 0.299805 405.5 0.299805 c 2,18,-1
 263.5 0.299805 l 2,19,20
 237.5 0.299805 237.5 0.299805 237.5 29.2998 c 2,21,-1
 237.5 171.3 l 2,22,23
 237.5 198.3 237.5 198.3 263.5 198.3 c 2,24,-1
 402.5 198.3 l 2,25,26
 428.5 198.3 428.5 198.3 428.5 172.3 c 2,15,-1
EndSplineSet
EndChar

StartChar: uni061F
Encoding: 1567 1567 5
Width: 1087
GlyphClass: 2
Flags: W
LayerCount: 2
Fore
SplineSet
694.5 172.3 m 2,0,-1
 694.5 29.2998 l 2,1,2
 694.5 0.299805 694.5 0.299805 671.5 0.299805 c 2,3,-1
 529.5 0.299805 l 2,4,5
 503.5 0.299805 503.5 0.299805 503.5 29.2998 c 2,6,-1
 503.5 171.3 l 2,7,8
 503.5 198.3 503.5 198.3 529.5 198.3 c 2,9,-1
 668.5 198.3 l 2,10,11
 694.5 198.3 694.5 198.3 694.5 172.3 c 2,0,-1
503 351 m 1,12,-1
 503 474 l 2,13,14
 503 526 503 526 500 556 c 128,-1,15
 497 586 497 586 491 607 c 0,16,17
 483 632 483 632 463.5 658.5 c 0,18,19
 441.196 688.809 441.196 688.809 397 732 c 2,20,-1
 309 818 l 1,21,22
 219 904 219 904 183 972.5 c 128,-1,23
 147 1041 147 1041 147 1117 c 0,24,25
 147 1276 147 1276 258.5 1373 c 128,-1,26
 370 1470 370 1470 554 1470 c 0,27,28
 657 1470 657 1470 753.5 1442 c 128,-1,29
 850 1414 850 1414 944 1357 c 1,30,-1
 873 1215.1 l 1,31,32
 703.809 1305 703.809 1305 589 1306 c 0,33,34
 481 1306 481 1306 415.5 1251 c 128,-1,35
 350 1196 350 1196 350 1107 c 0,36,37
 350 1058 350 1058 375.5 1011 c 128,-1,38
 401 964 401 964 458 911 c 1,39,-1
 548 822 l 1,40,41
 638 736 638 736 666 671 c 128,-1,42
 694 606 694 606 694 505 c 2,43,-1
 694 351 l 1,44,-1
 503 351 l 1,12,-1
EndSplineSet
EndChar

StartChar: uni0621
Encoding: 1569 1569 6
Width: 724
VWidth: 2289
GlyphClass: 2
Flags: W
AnchorPoint: "Anchor-7" 356.254 -233.511 basechar 0
AnchorPoint: "Anchor-10" 305.904 1029.48 basechar 0
LayerCount: 2
Fore
SplineSet
75.5352 -22.4277 m 1,0,-1
 75.5352 107.823 l 1,1,2
 154.158 129.758 154.158 129.758 200.188 145.349 c 0,3,4
 258.542 165.114 258.542 165.114 332.037 206.849 c 1,5,6
 79.3477 249.556 79.3477 249.556 79.3477 465.469 c 0,7,8
 79.3477 639.116 79.3477 639.116 213.343 721.685 c 128,-1,9
 347.341 804.254 347.341 804.254 554.505 758.41 c 1,10,-1
 554.505 621.417 l 1,11,12
 472.738 644.498 472.738 644.498 413.428 642.803 c 0,13,14
 363.879 641.871 363.879 641.871 314.832 617.349 c 0,15,16
 219.179 569.523 219.179 569.523 219.179 456.566 c 0,17,18
 219.179 318.567 219.179 318.567 388.868 289.509 c 0,19,20
 408.096 286.057 408.096 286.057 510.768 292.175 c 0,21,22
 568.455 295.345 568.455 295.345 628.001 328.119 c 1,23,-1
 628.001 192.897 l 1,24,25
 545.112 139.895 545.112 139.895 366.828 70.3213 c 0,26,27
 174.844 -4.48145 174.844 -4.48145 75.5352 -22.4277 c 1,0,-1
EndSplineSet
EndChar

StartChar: uni0627
Encoding: 1575 1575 12
Width: 431
VWidth: 2267
GlyphClass: 2
Flags: W
AnchorPoint: "Anchor-10" 201.033 1580.03 basechar 0
AnchorPoint: "Anchor-7" 208.453 -282.144 basechar 0
LayerCount: 2
Fore
SplineSet
266.716 1458 m 2,0,-1
 284.18 1467.04 l 1,1,-1
 284.18 191 l 2,2,3
 284.18 63.396 284.18 63.396 186.167 -0.583984 c 1,4,-1
 136.373 1104.39 l 2,5,6
 123.772 1384.01 123.772 1384.01 266.716 1458 c 2,0,-1
EndSplineSet
Substitution2: "'fina' Terminal Forms in Arabic lookup 9 subtable" uniFE8E
EndChar

StartChar: uni062D
Encoding: 1581 1581 18
Width: 1379
VWidth: 2287
GlyphClass: 2
Flags: W
AnchorPoint: "Anchor-10" 525.88 1272.22 basechar 0
AnchorPoint: "Anchor-7" 369.835 -795.086 basechar 0
LayerCount: 2
Fore
SplineSet
427.64 308.984 m 4,0,1
 231.738 157.058 231.738 157.058 235.731 -86.5381 c 4,2,3
 239.006 -286.979 239.006 -286.979 401.202 -388.945 c 4,4,5
 570.108 -495.13 570.108 -495.13 893.624 -461.727 c 4,6,7
 1127.17 -439.19 1127.17 -439.19 1273.36 -333.811 c 5,8,-1
 1270.62 -361.727 l 6,9,10
 1250.67 -565.044 1250.67 -565.044 971.624 -630.727 c 4,11,12
 890.725 -648.477 890.725 -648.477 803.624 -651.727 c 4,13,14
 659.942 -657.251 659.942 -657.251 549 -636 c 4,15,16
 135.673 -554.133 135.673 -554.133 94.5244 -176.803 c 4,17,18
 52.0528 219.746 52.0528 219.746 395.64 447 c 4,19,20
 630.66 602.446 630.66 602.446 1002 662.537 c 5,21,22
 943.229 668.741 943.229 668.741 820.339 732.491 c 4,23,24
 665.485 813.377 665.485 813.377 558.093 804.329 c 4,25,26
 433.743 793.85 433.743 793.85 328.499 585.652 c 5,27,-1
 314.72 586.434 l 6,28,29
 285.622 588.086 285.622 588.086 314.765 720.266 c 4,30,31
 323.632 760.484 323.632 760.484 354.686 824.492 c 4,32,33
 416.805 952.865 416.805 952.865 556.686 956.492 c 4,34,35
 684.413 960.49 684.413 960.49 919.979 825.771 c 4,36,37
 1033.93 760.606 1033.93 760.606 1255.66 736.238 c 5,38,-1
 1232.34 592.498 l 5,39,40
 684.322 507.049 684.322 507.049 427.64 308.984 c 4,0,1
EndSplineSet
Substitution2: "'fina' Terminal Forms in Arabic lookup 9 subtable" uniFEA2
Substitution2: "'medi' Medial Forms in Arabic lookup 11 subtable" uniFEA4
Substitution2: "'init' Initial Forms in Arabic lookup 13 subtable" uniFEA3
EndChar

StartChar: uni062F
Encoding: 1583 1583 20
Width: 920
VWidth: 2285
GlyphClass: 2
Flags: W
AnchorPoint: "Anchor-10" 235.131 1143.75 basechar 0
AnchorPoint: "Anchor-7" 287.202 -246.157 basechar 0
LayerCount: 2
Fore
SplineSet
782.681 143.544 m 5,0,1
 633.971 -37.0195 633.971 -37.0195 323.359 -28.6992 c 0,2,3
 304.346 -28.2471 304.346 -28.2471 285.729 -27.123 c 0,4,5
 60.2275 -13.5088 60.2275 -13.5088 60.2275 178.825 c 2,6,-1
 60.2275 206.53 l 1,7,8
 180.73 155.142 180.73 155.142 333.958 152.561 c 0,9,10
 511.59 148.949 511.59 148.949 638.967 210.715 c 0,11,12
 707.261 244.165 707.261 244.165 698.327 291.475 c 0,13,14
 695.03 308.849 695.03 308.849 689.889 316.957 c 2,15,-1
 545.359 544.903 l 2,16,17
 392.337 786.244 392.337 786.244 530.52 859.615 c 2,18,-1
 550.526 870.238 l 1,19,-1
 798.039 383.345 l 1,20,21
 833.494 310.32 833.494 310.32 826.179 248.502 c 128,-1,22
 818.863 186.684 818.863 186.684 782.681 143.544 c 5,0,1
EndSplineSet
Substitution2: "'fina' Terminal Forms in Arabic lookup 9 subtable" uniFEAA
EndChar

StartChar: uni0631
Encoding: 1585 1585 22
Width: 874
VWidth: 2314
GlyphClass: 2
Flags: W
AnchorPoint: "Anchor-7" 534.396 -671.687 basechar 0
AnchorPoint: "Anchor-10" 447.274 996.234 basechar 0
LayerCount: 2
Fore
SplineSet
765.573 58.1855 m 4,0,1
 685.494 -419.763 685.494 -419.763 288 -435 c 4,2,3
 132.651 -440.962 132.651 -440.962 5.31445 -321.4 c 5,4,5
 686.413 -244.851 686.413 -244.851 657.573 122.186 c 4,6,7
 653.573 173.185 653.573 173.185 609.717 281.783 c 4,8,9
 531.689 477.004 531.689 477.004 656.686 572.224 c 6,10,-1
 694.256 600.844 l 5,11,12
 805.097 294.257 805.097 294.257 765.573 58.1855 c 4,0,1
EndSplineSet
PairPos2: "'kern' Horizontal Kerning lookup 15-1" uni06CC dx=-141 dy=0 dh=-141 dv=0 dx=0 dy=0 dh=0 dv=0
PairPos2: "'kern' Horizontal Kerning lookup 15-1" uniFEEB dx=-213 dy=0 dh=-213 dv=0 dx=0 dy=0 dh=0 dv=0
PairPos2: "'kern' Horizontal Kerning lookup 15-1" uniFB7C dx=-141 dy=0 dh=-141 dv=0 dx=0 dy=0 dh=0 dv=0
PairPos2: "'kern' Horizontal Kerning lookup 15-1" uniFB58 dx=71 dy=0 dh=71 dv=0 dx=0 dy=0 dh=0 dv=0
PairPos2: "'kern' Horizontal Kerning lookup 15-1" uniFEF3 dx=99 dy=0 dh=99 dv=0 dx=0 dy=0 dh=0 dv=0
PairPos2: "'kern' Horizontal Kerning lookup 15-1" uniFBFE dx=99 dy=0 dh=99 dv=0 dx=0 dy=0 dh=0 dv=0
PairPos2: "'kern' Horizontal Kerning lookup 15-1" uniFEDF dx=-213 dy=0 dh=-213 dv=0 dx=0 dy=0 dh=0 dv=0
PairPos2: "'kern' Horizontal Kerning lookup 15-1" uniFB90 dx=-213 dy=0 dh=-213 dv=0 dx=0 dy=0 dh=0 dv=0
PairPos2: "'kern' Horizontal Kerning lookup 15-1" uni06A9 dx=-213 dy=0 dh=-213 dv=0 dx=0 dy=0 dh=0 dv=0
PairPos2: "'kern' Horizontal Kerning lookup 15-1" uni0649 dx=-141 dy=0 dh=-141 dv=0 dx=0 dy=0 dh=0 dv=0
PairPos2: "'kern' Horizontal Kerning lookup 15-1" uni0647 dx=-213 dy=0 dh=-213 dv=0 dx=0 dy=0 dh=0 dv=0
PairPos2: "'kern' Horizontal Kerning lookup 15-1" uniFEE7 dx=-213 dy=0 dh=-213 dv=0 dx=0 dy=0 dh=0 dv=0
PairPos2: "'kern' Horizontal Kerning lookup 15-1" uniFEE3 dx=-213 dy=0 dh=-213 dv=0 dx=0 dy=0 dh=0 dv=0
PairPos2: "'kern' Horizontal Kerning lookup 15-1" uni0645 dx=-213 dy=0 dh=-213 dv=0 dx=0 dy=0 dh=0 dv=0
PairPos2: "'kern' Horizontal Kerning lookup 15-1" uni0644 dx=-141 dy=0 dh=-141 dv=0 dx=0 dy=0 dh=0 dv=0
PairPos2: "'kern' Horizontal Kerning lookup 15-1" uniFEDB dx=-213 dy=0 dh=-213 dv=0 dx=0 dy=0 dh=0 dv=0
PairPos2: "'kern' Horizontal Kerning lookup 15-1" uniFED7 dx=-213 dy=0 dh=-213 dv=0 dx=0 dy=0 dh=0 dv=0
PairPos2: "'kern' Horizontal Kerning lookup 15-1" uni0642 dx=-141 dy=0 dh=-141 dv=0 dx=0 dy=0 dh=0 dv=0
PairPos2: "'kern' Horizontal Kerning lookup 15-1" uniFED3 dx=-213 dy=0 dh=-213 dv=0 dx=0 dy=0 dh=0 dv=0
PairPos2: "'kern' Horizontal Kerning lookup 15-1" uni0641 dx=-213 dy=0 dh=-213 dv=0 dx=0 dy=0 dh=0 dv=0
PairPos2: "'kern' Horizontal Kerning lookup 15-1" uniFECF dx=-213 dy=0 dh=-213 dv=0 dx=0 dy=0 dh=0 dv=0
PairPos2: "'kern' Horizontal Kerning lookup 15-1" uniFECB dx=-213 dy=0 dh=-213 dv=0 dx=0 dy=0 dh=0 dv=0
PairPos2: "'kern' Horizontal Kerning lookup 15-1" uniFEC7 dx=-213 dy=0 dh=-213 dv=0 dx=0 dy=0 dh=0 dv=0
PairPos2: "'kern' Horizontal Kerning lookup 15-1" uni0638 dx=-213 dy=0 dh=-213 dv=0 dx=0 dy=0 dh=0 dv=0
PairPos2: "'kern' Horizontal Kerning lookup 15-1" uniFEC3 dx=-213 dy=0 dh=-213 dv=0 dx=0 dy=0 dh=0 dv=0
PairPos2: "'kern' Horizontal Kerning lookup 15-1" uni0637 dx=-213 dy=0 dh=-213 dv=0 dx=0 dy=0 dh=0 dv=0
PairPos2: "'kern' Horizontal Kerning lookup 15-1" uniFEBF dx=-213 dy=0 dh=-213 dv=0 dx=0 dy=0 dh=0 dv=0
PairPos2: "'kern' Horizontal Kerning lookup 15-1" uni0636 dx=-213 dy=0 dh=-213 dv=0 dx=0 dy=0 dh=0 dv=0
PairPos2: "'kern' Horizontal Kerning lookup 15-1" uniFEBB dx=-213 dy=0 dh=-213 dv=0 dx=0 dy=0 dh=0 dv=0
PairPos2: "'kern' Horizontal Kerning lookup 15-1" uni0635 dx=-213 dy=0 dh=-213 dv=0 dx=0 dy=0 dh=0 dv=0
PairPos2: "'kern' Horizontal Kerning lookup 15-1" uniFEB7 dx=-213 dy=0 dh=-213 dv=0 dx=0 dy=0 dh=0 dv=0
PairPos2: "'kern' Horizontal Kerning lookup 15-1" uni0634 dx=-213 dy=0 dh=-213 dv=0 dx=0 dy=0 dh=0 dv=0
PairPos2: "'kern' Horizontal Kerning lookup 15-1" uniFEB3 dx=-213 dy=0 dh=-213 dv=0 dx=0 dy=0 dh=0 dv=0
PairPos2: "'kern' Horizontal Kerning lookup 15-1" uni0633 dx=-213 dy=0 dh=-213 dv=0 dx=0 dy=0 dh=0 dv=0
PairPos2: "'kern' Horizontal Kerning lookup 15-1" uni0630 dx=-213 dy=0 dh=-213 dv=0 dx=0 dy=0 dh=0 dv=0
PairPos2: "'kern' Horizontal Kerning lookup 15-1" uni062F dx=-213 dy=0 dh=-213 dv=0 dx=0 dy=0 dh=0 dv=0
PairPos2: "'kern' Horizontal Kerning lookup 15-1" uniFEA7 dx=-213 dy=0 dh=-213 dv=0 dx=0 dy=0 dh=0 dv=0
PairPos2: "'kern' Horizontal Kerning lookup 15-1" uniFEA3 dx=-213 dy=0 dh=-213 dv=0 dx=0 dy=0 dh=0 dv=0
PairPos2: "'kern' Horizontal Kerning lookup 15-1" uniFE9F dx=-213 dy=0 dh=-213 dv=0 dx=0 dy=0 dh=0 dv=0
PairPos2: "'kern' Horizontal Kerning lookup 15-1" uniFE9B dx=-213 dy=0 dh=-213 dv=0 dx=0 dy=0 dh=0 dv=0
PairPos2: "'kern' Horizontal Kerning lookup 15-1" uni062B dx=-213 dy=0 dh=-213 dv=0 dx=0 dy=0 dh=0 dv=0
PairPos2: "'kern' Horizontal Kerning lookup 15-1" uniFE97 dx=-213 dy=0 dh=-213 dv=0 dx=0 dy=0 dh=0 dv=0
PairPos2: "'kern' Horizontal Kerning lookup 15-1" uni062A dx=-213 dy=0 dh=-213 dv=0 dx=0 dy=0 dh=0 dv=0
PairPos2: "'kern' Horizontal Kerning lookup 15-1" uni0629 dx=-99 dy=0 dh=-99 dv=0 dx=0 dy=0 dh=0 dv=0
PairPos2: "'kern' Horizontal Kerning lookup 15-1" uniFE91 dx=-99 dy=0 dh=-99 dv=0 dx=0 dy=0 dh=0 dv=0
PairPos2: "'kern' Horizontal Kerning lookup 15-1" uni0628 dx=-213 dy=0 dh=-213 dv=0 dx=0 dy=0 dh=0 dv=0
PairPos2: "'kern' Horizontal Kerning lookup 15-1" uni0627 dx=-241 dy=0 dh=-241 dv=0 dx=0 dy=0 dh=0 dv=0
PairPos2: "'kern' Horizontal Kerning lookup 15-1" uni0622 dx=-241 dy=0 dh=-241 dv=0 dx=0 dy=0 dh=0 dv=0
PairPos2: "'kern' Horizontal Kerning lookup 15-1" uniFB94 dx=-213 dy=0 dh=-213 dv=0 dx=0 dy=0 dh=0 dv=0
PairPos2: "'kern' Horizontal Kerning lookup 15-1" afii57509 dx=-213 dy=0 dh=-213 dv=0 dx=0 dy=0 dh=0 dv=0
PairPos2: "'kern' Horizontal Kerning lookup 15-1" uniFB56 dx=-213 dy=0 dh=-213 dv=0 dx=0 dy=0 dh=0 dv=0
PairPos2: "'kern' Horizontal Kerning lookup 15-1" afii57506 dx=-213 dy=0 dh=-213 dv=0 dx=0 dy=0 dh=0 dv=0
Substitution2: "'fina' Terminal Forms in Arabic lookup 9 subtable" uniFEAE
EndChar

StartChar: uni0633
Encoding: 1587 1587 24
Width: 2253
VWidth: 2290
GlyphClass: 2
Flags: W
AnchorPoint: "Anchor-7" 296.459 -710.369 basechar 0
AnchorPoint: "Anchor-10" 499.989 890.793 basechar 0
LayerCount: 2
Fore
SplineSet
1426.25 -0.966797 m 0,0,1
 1383.75 -0.966797 l 2,2,3
 1299.55 -0.966797 1299.55 -0.966797 1248.93 76.959 c 1,4,5
 1265.48 2.45802 1265.48 2.45802 1253.51 -76.5889 c 0,6,7
 1189.77 -497.459 1189.77 -497.459 648.084 -507.362 c 0,8,9
 284.238 -514.027 284.238 -514.027 144.697 -313.568 c 0,10,11
 39.4461 -161.153 39.4461 -161.153 95.1885 81.3955 c 0,12,13
 107.748 136.044 107.748 136.044 145.933 247.351 c 0,14,15
 182.067 352.68 182.067 352.68 263 352.686 c 2,16,-1
 277.311 352.687 l 1,17,18
 143.746 31.9131 143.746 31.9131 218.178 -126.305 c 0,19,20
 320.242 -343.212 320.242 -343.212 643.852 -337.804 c 0,21,22
 1120.74 -329.834 1120.74 -329.834 1146.45 -7.68945 c 0,23,24
 1156.63 120.713 1156.63 120.713 1105.05 250.874 c 0,25,26
 1021.71 462.524 1021.71 462.524 1134.73 526.314 c 2,27,-1
 1176.33 549.794 l 1,28,29
 1220.6 316.991 1220.6 316.991 1245.93 263.396 c 0,30,31
 1291.14 167.729 1291.14 167.729 1391.45 169.392 c 2,32,-1
 1429.64 170.025 l 0,33,34
 1542.76 168.704 1542.76 168.704 1579.04 322.568 c 2,35,-1
 1593.06 382.026 l 2,36,37
 1622.24 505.781 1622.24 505.781 1704.36 505.781 c 2,38,-1
 1716.52 505.781 l 1,39,-1
 1710.52 436.174 l 2,40,41
 1688.79 184.133 1688.79 184.133 1882.25 179.546 c 0,42,43
 2011.29 176.392 2011.29 176.392 2042.25 261.375 c 0,44,45
 2046.42 272.688 2046.42 272.688 2019.68 371.205 c 0,46,47
 1977.66 526.057 1977.66 526.057 1976.93 531.914 c 0,48,49
 1958.01 685.721 1958.01 685.721 2073.17 740.733 c 2,50,-1
 2088.54 748.075 l 1,51,52
 2151.01 560.175 2151.01 560.175 2161.62 390.648 c 0,53,54
 2172.02 209.767 2172.02 209.767 2085.3 108.688 c 0,55,56
 1992 0.804688 1992 0.804688 1865.58 -0.442383 c 24,57,58
 1803.91 -0.977539 1803.91 -0.977539 1769.59 15.4873 c 0,59,60
 1673.66 61.5127 1673.66 61.5127 1636.24 169.546 c 1,61,62
 1576.72 -1.18066 1576.72 -1.18066 1426.25 -0.966797 c 0,0,1
EndSplineSet
Substitution2: "'fina' Terminal Forms in Arabic lookup 9 subtable" uniFEB2
Substitution2: "'medi' Medial Forms in Arabic lookup 11 subtable" uniFEB4
Substitution2: "'init' Initial Forms in Arabic lookup 13 subtable" uniFEB3
EndChar

StartChar: uni0635
Encoding: 1589 1589 26
Width: 2404
VWidth: 2291
GlyphClass: 2
Flags: W
AnchorPoint: "Anchor-10" 388.398 892.124 basechar 0
AnchorPoint: "Anchor-7" 351.298 -748.756 basechar 0
LayerCount: 2
Fore
SplineSet
1244.93 263.396 m 24,0,1
 1287.72 195.396 1287.72 195.396 1362.06 235.647 c 1,2,3
 1481.99 374.863 1481.99 374.863 1707.23 552.403 c 0,4,5
 1877.59 686.688 1877.59 686.688 2004.23 700.403 c 0,6,7
 2268.04 729.365 2268.04 729.365 2309.18 433.466 c 0,8,9
 2342.12 196.508 2342.12 196.508 2118.07 83.6475 c 0,10,11
 1949.52 -1.24625 1949.52 -1.24625 1742.81 -0.710938 c 2,12,-1
 1468.28 0 l 2,13,14
 1304.31 0.424626 1304.31 0.424626 1247.93 76.959 c 1,15,16
 1264.48 2.45801 1264.48 2.45801 1252.51 -76.5889 c 0,17,18
 1188.77 -497.459 1188.77 -497.459 647.084 -507.362 c 0,19,20
 283.238 -514.027 283.238 -514.027 143.697 -313.568 c 0,21,22
 38.4463 -161.153 38.4463 -161.153 94.1885 81.3955 c 0,23,24
 117.101 181.092 117.101 181.092 144.933 247.351 c 0,25,26
 188.517 352.687 188.517 352.687 258 352.687 c 2,27,-1
 272.146 352.687 l 1,28,29
 141.553 34.4355 141.553 34.4355 217.178 -126.305 c 0,30,31
 319.242 -343.212 319.242 -343.212 642.852 -337.804 c 0,32,33
 1119.74 -329.834 1119.74 -329.834 1145.45 -7.68945 c 0,34,35
 1155.63 120.713 1155.63 120.713 1104.05 250.874 c 0,36,37
 1020.71 462.524 1020.71 462.524 1133.73 526.314 c 2,38,-1
 1175.33 549.794 l 1,39,40
 1223.24 297.872 1223.24 297.872 1244.93 263.396 c 24,0,1
1492.06 190.099 m 1,41,-1
 1681.56 190.099 l 2,42,43
 1927.71 190.099 1927.71 190.099 2068.98 235.67 c 0,44,45
 2200.66 278.146 2200.66 278.146 2189.87 398.891 c 0,46,47
 2168.82 593.045 2168.82 593.045 1997.87 571.891 c 0,48,49
 1905.79 561.1 1905.79 561.1 1735.17 424.466 c 0,50,51
 1535.18 261.301 1535.18 261.301 1492.06 190.099 c 1,41,-1
EndSplineSet
Substitution2: "'fina' Terminal Forms in Arabic lookup 9 subtable" uniFEBA
Substitution2: "'medi' Medial Forms in Arabic lookup 11 subtable" uniFEBC
Substitution2: "'init' Initial Forms in Arabic lookup 13 subtable" uniFEBB
EndChar

StartChar: uni0637
Encoding: 1591 1591 28
Width: 1394
VWidth: 2291
GlyphClass: 2
Flags: W
AnchorPoint: "Anchor-10" 258.828 1566.61 basechar 0
AnchorPoint: "Anchor-7" 706.148 -317.606 basechar 0
LayerCount: 2
Fore
SplineSet
485.833 179.695 m 1,0,-1
 675.335 179.695 l 2,1,2
 839.048 179.695 839.048 179.695 908.434 191.743 c 0,3,4
 1199.54 239.148 1199.54 239.148 1183.64 399.487 c 0,5,6
 1164.1 592.698 1164.1 592.698 991.64 572.487 c 0,7,8
 892.26 560.84 892.26 560.84 728.947 425.062 c 0,9,10
 591.434 310.732 591.434 310.732 485.833 179.695 c 1,0,-1
355.049 225.438 m 5,11,12
 484.843 383.4 484.843 383.4 701 553 c 0,13,14
 871.355 687.284 871.355 687.284 998 701 c 0,15,16
 1261.81 729.96 1261.81 729.96 1302.95 434.062 c 0,17,18
 1335.89 197.104 1335.89 197.104 1111.84 84.2441 c 0,19,20
 943.304 -0.649585 943.304 -0.649585 736.585 -0.114258 c 2,21,-1
 462.053 0.59668 l 2,22,-1
 204.696 0.141159 l 2,23,24
 52.6963 -0.12788 52.6963 -0.12788 52.6963 164 c 2,25,-1
 52.6963 178.958 l 1,26,-1
 259.422 178.992 l 1,27,-1
 195.337 1110.67 l 2,28,29
 177.4 1371.44 177.4 1371.44 335.795 1458.1 c 2,30,-1
 355.755 1469.02 l 1,31,-1
 355.049 225.438 l 5,11,12
EndSplineSet
Substitution2: "'fina' Terminal Forms in Arabic lookup 9 subtable" uniFEC2
Substitution2: "'medi' Medial Forms in Arabic lookup 11 subtable" uniFEC4
Substitution2: "'init' Initial Forms in Arabic lookup 13 subtable" uniFEC3
EndChar

StartChar: uni0639
Encoding: 1593 1593 30
Width: 1379
VWidth: 2287
GlyphClass: 2
Flags: W
AnchorPoint: "Anchor-10" 540.969 1482.94 basechar 0
AnchorPoint: "Anchor-7" 294.953 -785.751 basechar 0
LayerCount: 2
Fore
SplineSet
94.5244 -217.803 m 4,0,1
 58.6031 178.877 58.6031 178.877 395.64 411 c 5,2,3
 109.12 563.241 109.12 563.241 183.895 815.37 c 4,4,5
 247.79 1028.6 247.79 1028.6 483.451 1065.95 c 4,6,7
 561.568 1078.33 561.568 1078.33 656.654 1052.81 c 4,8,9
 828.807 1006.6 828.807 1006.6 806.751 869.853 c 6,10,-1
 801.451 836.993 l 5,11,12
 642.17 944.042 642.17 944.042 530.091 926.165 c 4,13,14
 343.292 896.645 343.292 896.645 321.694 745.41 c 4,15,16
 301.445 602.952 301.445 602.952 486.64 478 c 5,17,18
 608.557 507.372 608.557 507.372 880.211 549.984 c 4,19,20
 964.118 563.146 964.118 563.146 978.211 489.984 c 6,21,-1
 994.371 406.09 l 5,22,23
 589.24 391.908 589.24 391.908 428.64 267.984 c 4,24,25
 231.75 116.057 231.75 116.057 235.731 -127.538 c 4,26,27
 239.205 -337.156 239.205 -337.156 401.202 -432.945 c 4,28,29
 541.532 -515.923 541.532 -515.923 853.211 -492.016 c 4,30,31
 1114.14 -472.002 1114.14 -472.002 1284.34 -347.699 c 5,32,-1
 1281.6 -375.615 l 6,33,34
 1257.58 -620.295 1257.58 -620.295 893.4 -680.217 c 4,35,36
 698.002 -711.033 698.002 -711.033 517 -672 c 4,37,38
 127.418 -587.929 127.418 -587.929 94.5244 -217.803 c 4,0,1
EndSplineSet
Substitution2: "'fina' Terminal Forms in Arabic lookup 9 subtable" uniFECA
Substitution2: "'medi' Medial Forms in Arabic lookup 11 subtable" uniFECC
Substitution2: "'init' Initial Forms in Arabic lookup 13 subtable" uniFECB
EndChar

StartChar: afii57440
Encoding: 1600 1600 32
Width: 661
VWidth: 2306
GlyphClass: 2
Flags: W
AnchorPoint: "Anchor-10" 321 1345.9 basechar 0
AnchorPoint: "Anchor-7" 321 -128.56 basechar 0
LayerCount: 2
Fore
SplineSet
-22.8643 -5.06934 m 1,0,-1
 -22.8643 174.049 l 1,1,-1
 664.864 174.049 l 1,2,-1
 664.864 -5.06934 l 1,3,-1
 -22.8643 -5.06934 l 1,0,-1
EndSplineSet
EndChar

StartChar: uni0643
Encoding: 1603 1603 35
Width: 1812
VWidth: 2267
GlyphClass: 2
Flags: W
AnchorPoint: "Anchor-10" 558.028 1433.98 basechar 0
AnchorPoint: "Anchor-7" 502.908 -281.096 basechar 0
LayerCount: 2
Fore
SplineSet
1592 137 m 0,0,1
 1477.66 54.9336 1477.66 54.9336 1326.4 29.0654 c 0,2,3
 1151.67 -0.5625 1151.67 -0.5625 928.431 -0.5625 c 24,4,5
 495.342 -0.5625 495.342 -0.5625 354.771 69.7979 c 0,6,7
 88.0059 203.321 88.0059 203.321 90.1689 476.685 c 0,8,9
 91.127 597.679 91.127 597.679 137.009 729.079 c 1,10,-1
 145.95 724.594 l 2,11,12
 204.354 695.296 204.354 695.296 189.716 581.377 c 0,13,14
 181.616 518.352 181.616 518.352 183.347 473.659 c 0,15,16
 191.194 253.3 191.194 253.3 548.517 193.818 c 0,17,18
 639.339 178.7 639.339 178.7 906 178 c 1,19,20
 1076.2 175.916 1076.2 175.916 1187.37 185.92 c 0,21,22
 1590.75 221.461 1590.75 221.461 1606.69 413.472 c 0,23,-1
 1610.84 461.896 l 2,24,-1
 1565.04 1157.53 l 2,25,26
 1549.92 1387.25 1549.92 1387.25 1704.68 1463.21 c 2,27,-1
 1720.72 1471.09 l 1,28,-1
 1720.72 430.096 l 2,29,30
 1720.72 410.304 1720.72 410.304 1717.92 372.519 c 0,31,32
 1711.45 299.22 1711.45 299.22 1700 269 c 0,33,34
 1669.66 192.973 1669.66 192.973 1592 137 c 0,0,1
1096.88 1250.8 m 1,35,-1
 1096.88 1195.74 l 1,36,37
 1023.01 1190.3 1023.01 1190.3 982.232 1175.27 c 0,38,39
 879.111 1136.61 879.111 1136.61 879.111 1085.96 c 0,40,41
 879.111 1047.65 879.111 1047.65 898.906 1022.2 c 0,42,43
 917.13 997.901 917.13 997.901 1002.03 985.414 c 0,44,45
 1054.39 977.715 1054.39 977.715 1080.82 953.577 c 0,46,47
 1106.71 929.925 1106.71 929.925 1106.71 887.469 c 0,48,49
 1106.71 785.604 1106.71 785.604 1012.15 732.129 c 0,50,51
 939.15 690.846 939.15 690.846 839.212 689.918 c 0,52,53
 775.678 689.918 775.678 689.918 719.919 699.231 c 1,54,-1
 719.919 761.19 l 1,55,56
 784.323 752.701 784.323 752.701 829.004 752.701 c 0,57,58
 908.301 752.701 908.301 752.701 959.426 772.828 c 0,59,60
 1048.84 807.168 1048.84 807.168 1048.84 864.785 c 0,61,62
 1048.84 928.954 1048.84 928.954 945.027 945.87 c 0,63,64
 884.822 955.044 884.822 955.044 852.226 988.381 c 128,-1,65
 819.548 1021.8 819.548 1021.8 820.857 1082.09 c 0,66,67
 822.848 1162.55 822.848 1162.55 897.73 1200.5 c 0,68,69
 982.854 1243.57 982.854 1243.57 1096.88 1250.8 c 1,35,-1
EndSplineSet
Substitution2: "'fina' Terminal Forms in Arabic lookup 9 subtable" uniFEDA
Substitution2: "'medi' Medial Forms in Arabic lookup 11 subtable" uniFEDC
Substitution2: "'init' Initial Forms in Arabic lookup 13 subtable" uniFEDB
EndChar

StartChar: uni0644
Encoding: 1604 1604 36
Width: 1348
VWidth: 2279
GlyphClass: 2
Flags: W
AnchorPoint: "Anchor-10" 509.887 1008.06 basechar 0
AnchorPoint: "Anchor-7" 331.854 -595.884 basechar 0
LayerCount: 2
Fore
SplineSet
1198.9 84.7197 m 24,0,1
 1149.74 -391.654 1149.74 -391.654 645.325 -412 c 0,2,3
 280.145 -426.757 280.145 -426.757 142.396 -230.689 c 0,4,5
 34.2266 -77.2959 34.2266 -77.2959 92.8857 193.275 c 0,6,7
 110.042 272.41 110.042 272.41 140.544 349.706 c 0,8,9
 180.848 451.847 180.848 451.847 253 456.604 c 2,10,-1
 259.045 457.002 l 1,11,12
 124.349 129.806 124.349 129.806 215.874 -43.4248 c 0,13,14
 316.854 -235.108 316.854 -235.108 594.12 -240.171 c 0,15,16
 1086.39 -249.128 1086.39 -249.128 1108.1 75.1904 c 24,17,18
 1112.36 138.839 1112.36 138.839 1112.33 150.796 c 1,19,20
 1114.63 185.013 1114.63 185.013 1109.84 247.489 c 2,21,-1
 1046.68 1071.03 l 2,22,23
 1023.47 1373.7 1023.47 1373.7 1174.61 1452.44 c 2,24,-1
 1201.83 1466.62 l 1,25,-1
 1201.83 471.488 l 2,26,27
 1201.83 113.11 1201.83 113.11 1198.9 84.7197 c 24,0,1
EndSplineSet
Substitution2: "'fina' Terminal Forms in Arabic lookup 9 subtable" uniFEDE
Substitution2: "'medi' Medial Forms in Arabic lookup 11 subtable" uniFEE0
Substitution2: "'init' Initial Forms in Arabic lookup 13 subtable" uniFEDF
EndChar

StartChar: uni0645
Encoding: 1605 1605 37
Width: 1113
VWidth: 2308
GlyphClass: 2
Flags: W
AnchorPoint: "Anchor-10" 599.117 1063.54 basechar 0
AnchorPoint: "Anchor-7" 161.476 -713.894 basechar 0
LayerCount: 2
Fore
SplineSet
552.751 324.401 m 4,0,1
 680.096 318.035 680.096 318.035 689.747 318.034 c 4,2,3
 763.893 318.035 763.893 318.035 813.367 332.009 c 4,4,5
 847.076 341.39 847.076 341.39 867.06 390.402 c 4,6,7
 917.723 513.532 917.723 513.532 697.488 609.762 c 4,8,9
 582.093 660.182 582.093 660.182 514.118 576.686 c 6,10,-1
 513.994 576.533 l 5,11,12
 457.798 496.958 457.798 496.958 471.407 340.895 c 6,13,-1
 471.558 339.17 l 5,14,-1
 472.698 337.864 l 6,15,16
 481.589 327.687 481.589 327.687 552.751 324.401 c 4,0,1
420.507 160.096 m 4,17,18
 270.557 160.096 270.557 160.096 229.789 80.3262 c 4,19,20
 188.256 -1.35704 188.256 -1.35704 204.35 -131.674 c 6,21,-1
 230.441 -342.944 l 6,22,23
 255.359 -544.705 255.359 -544.705 119.549 -621.911 c 6,24,-1
 91.9072 -637.625 l 5,25,-1
 91.9072 -82.6445 l 6,26,27
 91.9072 78.4805 91.9072 78.4805 145.771 181 c 4,28,29
 194.624 273.983 194.624 273.983 333.43 297.973 c 6,30,-1
 338.052 298.771 l 5,31,-1
 337.82 303.457 l 6,32,33
 325.026 562.471 325.026 562.471 446.533 694.491 c 4,34,35
 588.036 846.943 588.036 846.943 808.55 702.686 c 28,36,37
 1056.35 539.459 1056.35 539.459 1021.18 404.955 c 4,38,39
 970.275 204.558 970.275 204.558 907.134 176.522 c 4,40,41
 846.361 148.447 846.361 148.447 718.545 153.732 c 4,42,43
 528.751 160.096 528.751 160.096 420.507 160.096 c 4,17,18
EndSplineSet
Substitution2: "'init' Initial Forms in Arabic lookup 13 subtable" uniFEE3
Substitution2: "'medi' Medial Forms in Arabic lookup 11 subtable" uniFEE4
Substitution2: "'fina' Terminal Forms in Arabic lookup 9 subtable" uniFEE2
EndChar

StartChar: uni0647
Encoding: 1607 1607 39
Width: 849
VWidth: 2286
GlyphClass: 2
Flags: W
AnchorPoint: "Anchor-10" 372.637 1192.82 basechar 0
AnchorPoint: "Anchor-7" 276.113 -218.192 basechar 0
LayerCount: 2
Fore
SplineSet
207.307 344.196 m 0,0,1
 171.201 213.319 171.201 213.319 309.087 169.272 c 0,2,3
 407.877 137.058 407.877 137.058 508.763 165.635 c 0,4,5
 670.818 212.713 670.818 212.713 600.513 378.29 c 0,6,7
 547.096 505.423 547.096 505.423 406.961 622.421 c 1,8,9
 238.263 453.331 238.263 453.331 207.307 344.196 c 0,0,1
128.887 466.057 m 24,10,11
 194.793 589.235 194.793 589.235 351.487 723.293 c 1,12,-1
 343.006 730.557 l 2,13,14
 314.015 755.388 314.015 755.388 366.118 854.732 c 2,15,-1
 370.566 863.213 l 1,16,17
 652.195 618.648 652.195 618.648 722.851 426.638 c 0,18,19
 808.613 194.337 808.613 194.337 654.646 63.7529 c 0,20,21
 577.465 -1.70703 577.465 -1.70703 420.343 -0.234375 c 0,22,23
 264.538 1.19177 264.538 1.19177 197.191 41.3848 c 0,24,25
 89.0142 104.406 89.0142 104.406 71.6465 199.433 c 0,26,27
 49.6041 317.877 49.6041 317.877 128.887 466.057 c 24,10,11
EndSplineSet
Substitution2: "'fina' Terminal Forms in Arabic lookup 9 subtable" uniFEEA
Substitution2: "'medi' Medial Forms in Arabic lookup 11 subtable" uniFEEC
Substitution2: "'init' Initial Forms in Arabic lookup 13 subtable" uniFEEB
EndChar

StartChar: uni0648
Encoding: 1608 1608 40
Width: 849
VWidth: 2307
GlyphClass: 2
Flags: W
AnchorPoint: "Anchor-10" 414.024 1090.03 basechar 0
AnchorPoint: "Anchor-7" 335.608 -669.098 basechar 0
LayerCount: 2
Fore
SplineSet
486.394 528.654 m 0,0,1
 375.309 535.488 375.309 535.488 335.764 337.621 c 0,2,3
 297.807 150.753 297.807 150.753 489.659 149.74 c 0,4,5
 581.441 149.255 581.441 149.255 649.685 165.845 c 1,6,7
 645.517 278.278 645.517 278.278 619.764 371.621 c 0,8,9
 577.924 523.271 577.924 523.271 486.394 528.654 c 0,0,1
755.316 4.75488 m 0,10,11
 662.641 -420.64 662.641 -420.64 288 -435 c 0,12,13
 132.651 -440.962 132.651 -440.962 5.31445 -321.4 c 1,14,15
 570.922 -257.831 570.922 -257.831 646.941 6.06445 c 1,16,17
 581.159 -24.0939 581.159 -24.0939 483.299 -20.1592 c 0,18,19
 322.684 -13.7013 322.684 -13.7013 254.339 83.2402 c 0,20,21
 198.397 162.243 198.397 162.243 215.339 311.641 c 0,22,23
 236.328 492.885 236.328 492.885 321.764 585.621 c 0,24,25
 402.456 673.02 402.456 673.02 520.139 662.001 c 0,26,27
 582.901 656.124 582.901 656.124 635.764 603.621 c 0,28,29
 740.539 499.559 740.539 499.559 754.234 306.081 c 16,30,31
 770.597 71.4323 770.597 71.4323 755.316 4.75488 c 0,10,11
EndSplineSet
Substitution2: "'fina' Terminal Forms in Arabic lookup 9 subtable" uniFEEE
EndChar

StartChar: uni0649
Encoding: 1609 1609 41
Width: 1482
VWidth: 2304
GlyphClass: 2
Flags: W
AnchorPoint: "Anchor-10" 467.085 1021.11 basechar 0
AnchorPoint: "Anchor-7" 250.388 -577.419 basechar 0
LayerCount: 2
Fore
SplineSet
1310.26 -152.983 m 0,0,1
 1096.32 -394.129 1096.32 -394.129 653.374 -405.371 c 0,2,3
 154.021 -418.04 154.021 -418.04 91.8779 -102 c 1,4,5
 63.6218 48.3086 63.6218 48.3086 114.675 237.373 c 0,6,7
 157.457 395.81 157.457 395.81 211.995 490.164 c 0,8,9
 267.146 585.579 267.146 585.579 336.995 595.764 c 2,10,-1
 340.783 596.316 l 1,11,12
 305.412 522.627 305.412 522.627 258.783 380.687 c 0,13,14
 242.962 332.026 242.962 332.026 224.712 248.232 c 0,15,16
 180.031 44.3525 180.031 44.3525 254.261 -86.9834 c 0,17,18
 344.362 -244.862 344.362 -244.862 719 -231 c 0,19,20
 1011.02 -220.195 1011.02 -220.195 1185 -114 c 0,21,22
 1230.33 -86.3327 1230.33 -86.3327 1256.26 -53.9834 c 0,23,24
 1281.06 -23.0461 1281.06 -23.0461 1281.08 7.31641 c 0,25,26
 1281.09 23.9521 1281.09 23.9521 1269.4 39.0098 c 0,27,28
 1240.48 78.3755 1240.48 78.3755 1118.9 68.1279 c 0,29,30
 947.461 53.6777 947.461 53.6777 869.725 122.824 c 0,31,32
 772.558 207.158 772.558 207.158 839 374 c 0,33,34
 963.916 687.886 963.916 687.886 1188.41 708.164 c 0,35,36
 1347.31 723.071 1347.31 723.071 1359.33 566.844 c 2,37,-1
 1361.11 543.713 l 1,38,39
 1133.96 569.452 1133.96 569.452 1030.88 450 c 0,40,41
 946.911 353.005 946.911 353.005 952.954 268.293 c 0,42,43
 958.073 200.078 958.073 200.078 1118.31 201.513 c 0,44,45
 1235.96 203.226 1235.96 203.226 1302.37 169.713 c 0,46,47
 1388.77 125.23 1388.77 125.23 1391.85 45.5964 c 0,48,49
 1392.88 19.5567 1392.88 19.5567 1387.44 0.0214844 c 0,50,51
 1365.17 -91.612 1365.17 -91.612 1310.26 -152.983 c 0,0,1
EndSplineSet
Substitution2: "'fina' Terminal Forms in Arabic lookup 9 subtable" uniFEF0
Substitution2: "'medi' Medial Forms in Arabic lookup 11 subtable" uniFBE9
Substitution2: "'init' Initial Forms in Arabic lookup 13 subtable" uniFBE8
EndChar

StartChar: uni064B
Encoding: 1611 1611 43
Width: 0
VWidth: 2186
GlyphClass: 4
Flags: W
AnchorPoint: "Anchor-10" 547.84 1041.5 mark 0
AnchorPoint: "Anchor-9" 547.84 1041.5 mark 0
AnchorPoint: "Anchor-1" 547.84 1576.5 basemark 0
AnchorPoint: "Anchor-1" 547.84 1041.5 mark 0
LayerCount: 2
Fore
SplineSet
269.4 977.41 m 5,0,-1
 269.4 1104.48 l 5,1,-1
 827.28 1332.79 l 5,2,-1
 827.28 1205.72 l 5,3,-1
 269.4 977.41 l 5,0,-1
269.4 1234.21 m 5,4,-1
 269.4 1361.28 l 5,5,-1
 827.28 1589.59 l 5,6,-1
 827.28 1462.52 l 5,7,-1
 269.4 1234.21 l 5,4,-1
EndSplineSet
EndChar

StartChar: uni064C
Encoding: 1612 1612 44
Width: 0
VWidth: 2186
GlyphClass: 4
Flags: W
AnchorPoint: "Anchor-10" 554.386 1155.44 mark 0
AnchorPoint: "Anchor-9" 554.386 1155.44 mark 0
AnchorPoint: "Anchor-1" 546.386 1810.94 basemark 0
AnchorPoint: "Anchor-1" 554.386 1155.44 mark 0
LayerCount: 2
Fore
SplineSet
567.219 1298.72 m 0,0,1
 608.391 1338.78 608.391 1338.78 631.845 1385.69 c 2,2,-1
 639.364 1400.73 l 1,3,-1
 622.913 1404.22 l 2,4,5
 589.558 1411.29 589.558 1411.29 566.532 1424.31 c 0,6,7
 457.736 1481.73 457.736 1481.73 457.736 1574.47 c 0,8,9
 457.736 1661.08 457.736 1661.08 526.365 1712.8 c 0,10,11
 552.86 1732.67 552.86 1732.67 615.937 1732.67 c 0,12,13
 688.759 1732.67 688.759 1732.67 727.738 1694.66 c 0,14,15
 782.696 1640.71 782.696 1640.71 782.696 1561.63 c 0,16,17
 782.696 1521.9 782.696 1521.9 770.46 1483.15 c 2,18,-1
 765.402 1467.14 l 1,19,-1
 782.175 1466.26 l 2,20,21
 802.247 1465.2 802.247 1465.2 817.806 1465.17 c 0,22,23
 831.205 1464.45 831.205 1464.45 845.826 1464.2 c 1,24,-1
 845.826 1372.44 l 1,25,26
 806.232 1372.69 806.232 1372.69 788.381 1374.48 c 2,27,-1
 723.27 1380.74 l 1,28,-1
 719.537 1371.99 l 2,29,30
 692.652 1308.91 692.652 1308.91 614.12 1227.24 c 1,31,32
 527.043 1139.14 527.043 1139.14 431.896 1139.14 c 0,33,34
 319.02 1139.14 319.02 1139.14 262.205 1295.39 c 0,35,36
 247.89 1334.51 247.89 1334.51 246.994 1442.7 c 1,37,-1
 317.299 1442.7 l 1,38,39
 318.143 1347.11 318.143 1347.11 331.307 1318.59 c 0,40,41
 372.26 1230.84 372.26 1230.84 431.896 1230.84 c 0,42,43
 497.076 1230.84 497.076 1230.84 567.219 1298.72 c 0,0,1
669.292 1482.64 m 1,44,-1
 680.316 1508.36 l 2,45,46
 690.996 1533.28 690.996 1533.28 690.996 1561.63 c 0,47,48
 690.996 1604.15 690.996 1604.15 668.07 1623.02 c 0,49,50
 646.28 1640.97 646.28 1640.97 620.217 1640.97 c 0,51,52
 591.787 1640.97 591.787 1640.97 575.875 1628.63 c 0,53,54
 551.576 1610.34 551.576 1610.34 551.576 1574.47 c 0,55,56
 551.576 1526.08 551.576 1526.08 607.898 1503.55 c 0,57,58
 629.803 1494.79 629.803 1494.79 658.123 1486.08 c 2,59,-1
 669.292 1482.64 l 1,44,-1
EndSplineSet
EndChar

StartChar: uni064D
Encoding: 1613 1613 45
Width: 0
VWidth: 2186
GlyphClass: 4
Flags: W
AnchorPoint: "Anchor-7" 531.84 75.5 mark 0
AnchorPoint: "Anchor-6" 531.84 75.5 mark 0
AnchorPoint: "Anchor-0" 547.84 -439.5 basemark 0
AnchorPoint: "Anchor-0" 531.84 75.5 mark 0
LayerCount: 2
Fore
SplineSet
270.96 -512.18 m 5,0,-1
 270.96 -385.109 l 5,1,-1
 828.84 -156.8 l 5,2,-1
 828.84 -283.87 l 5,3,-1
 270.96 -512.18 l 5,0,-1
270.96 -255.38 m 5,4,-1
 270.96 -128.31 l 5,5,-1
 828.84 100 l 5,6,-1
 828.84 -27.0703 l 5,7,-1
 270.96 -255.38 l 5,4,-1
EndSplineSet
EndChar

StartChar: uni064E
Encoding: 1614 1614 46
Width: 0
VWidth: 2186
GlyphClass: 4
Flags: W
AnchorPoint: "Anchor-10" 517.84 1279.5 mark 0
AnchorPoint: "Anchor-9" 517.84 1279.5 mark 0
AnchorPoint: "Anchor-1" 517.84 1600.5 basemark 0
AnchorPoint: "Anchor-1" 517.84 1279.5 mark 0
LayerCount: 2
Fore
SplineSet
237.4 1237.41 m 1,0,-1
 237.4 1364.48 l 1,1,-1
 795.28 1592.79 l 5,2,-1
 795.28 1465.72 l 1,3,-1
 237.4 1237.41 l 1,0,-1
EndSplineSet
EndChar

StartChar: uni064F
Encoding: 1615 1615 47
Width: 0
VWidth: 2186
GlyphClass: 4
Flags: W
AnchorPoint: "Anchor-10" 531.84 1205.5 mark 0
AnchorPoint: "Anchor-9" 531.84 1205.5 mark 0
AnchorPoint: "Anchor-1" 547.84 1825 basemark 0
AnchorPoint: "Anchor-1" 531.84 1205.5 mark 0
LayerCount: 2
Fore
SplineSet
594.529 1426.81 m 6,0,1
 586.598 1428.57 586.598 1428.57 567.734 1438.5 c 4,2,3
 459.19 1494.78 459.19 1494.78 459.19 1588.53 c 4,4,5
 459.19 1675.14 459.19 1675.14 527.819 1726.86 c 4,6,7
 554.314 1746.73 554.314 1746.73 617.39 1746.73 c 4,8,9
 690.212 1746.73 690.212 1746.73 729.192 1708.72 c 4,10,11
 784.15 1654.77 784.15 1654.77 784.15 1575.69 c 4,12,13
 784.15 1543.43 784.15 1543.43 769.757 1497.16 c 6,14,-1
 764.821 1481.3 l 5,15,-1
 781.407 1480.32 l 6,16,17
 799.81 1479.24 799.81 1479.24 819.259 1478.7 c 4,18,19
 832.229 1478.34 832.229 1478.34 847.28 1478.21 c 5,20,-1
 847.28 1386.53 l 5,21,22
 817.029 1386.85 817.029 1386.85 789.455 1388.57 c 4,23,24
 757.6 1390.7 757.6 1390.7 727.915 1393.88 c 6,25,-1
 720.312 1394.69 l 5,26,-1
 715.905 1388.44 l 6,27,28
 671.45 1325.37 671.45 1325.37 599.88 1281.81 c 4,29,30
 398.294 1157.85 398.294 1157.85 248.4 1152.36 c 5,31,-1
 248.4 1244.01 l 5,32,33
 408.671 1248.65 408.671 1248.65 554.781 1363.22 c 4,34,35
 580.142 1383.07 580.142 1383.07 601.135 1405.16 c 6,36,-1
 616.962 1421.83 l 5,37,-1
 594.529 1426.81 l 6,0,1
670.746 1496.7 m 5,38,-1
 681.77 1522.42 l 6,39,40
 692.45 1547.34 692.45 1547.34 692.45 1575.69 c 4,41,42
 692.45 1618.21 692.45 1618.21 669.524 1637.08 c 4,43,44
 647.734 1655.03 647.734 1655.03 621.67 1655.03 c 4,45,46
 593.241 1655.03 593.241 1655.03 577.329 1642.69 c 4,47,48
 553.03 1624.4 553.03 1624.4 553.03 1588.53 c 4,49,50
 553.03 1540.14 553.03 1540.14 609.352 1517.61 c 4,51,52
 631.256 1508.85 631.256 1508.85 659.577 1500.14 c 6,53,-1
 670.746 1496.7 l 5,38,-1
EndSplineSet
EndChar

StartChar: uni0650
Encoding: 1616 1616 48
Width: 0
VWidth: 2186
GlyphClass: 4
Flags: W
AnchorPoint: "Anchor-7" 467.84 -12.5 mark 0
AnchorPoint: "Anchor-6" 467.84 -12.5 mark 0
AnchorPoint: "Anchor-0" 556.84 -311.5 basemark 0
AnchorPoint: "Anchor-0" 467.84 -12.5 mark 0
LayerCount: 2
Fore
SplineSet
267.96 -356.836 m 1,0,-1
 267.96 -229.766 l 1,1,-1
 825.84 -1.45605 l 1,2,-1
 825.84 -128.526 l 1,3,-1
 267.96 -356.836 l 1,0,-1
EndSplineSet
EndChar

StartChar: uni0651
Encoding: 1617 1617 49
Width: 0
VWidth: 2186
GlyphClass: 4
Flags: W
AnchorPoint: "Anchor-10" 547.84 1316.5 mark 0
AnchorPoint: "Anchor-9" 547.84 1316.5 mark 0
AnchorPoint: "Anchor-1" 535.84 1818.5 basemark 0
AnchorPoint: "Anchor-1" 547.84 1316.5 mark 0
LayerCount: 2
Fore
SplineSet
398.84 1305.99 m 4,0,1
 306.498 1302.93 306.498 1302.93 261.261 1355.91 c 4,2,3
 227 1396.24 227 1396.24 227 1486.07 c 4,4,5
 227 1527.41 227 1527.41 242.222 1626.56 c 5,6,-1
 320.73 1626.56 l 5,7,8
 307.674 1502.98 307.674 1502.98 307.674 1479 c 4,9,10
 307.674 1394.91 307.674 1394.91 398.84 1393.09 c 4,11,12
 497.128 1391.16 497.128 1391.16 506.266 1518.54 c 4,13,14
 508.184 1545.08 508.184 1545.08 508.4 1680.83 c 5,15,-1
 589.06 1680.83 l 5,16,17
 588.775 1624.49 588.775 1624.49 589.34 1597.53 c 4,18,19
 594.84 1448.99 594.84 1448.99 700.84 1452.09 c 4,20,21
 790.089 1453.28 790.089 1453.28 783.674 1604 c 4,22,23
 779.218 1710.94 779.218 1710.94 774.521 1770.1 c 5,24,-1
 857.705 1770.1 l 5,25,26
 868.68 1694.87 868.68 1694.87 868.68 1580.87 c 4,27,28
 868.68 1504.29 868.68 1504.29 843.84 1449.99 c 4,29,30
 804.992 1364.89 804.992 1364.89 713.84 1360.49 c 4,31,32
 611.451 1355.49 611.451 1355.49 554.84 1431.09 c 5,33,34
 519.173 1310.01 519.173 1310.01 398.84 1305.99 c 4,0,1
EndSplineSet
EndChar

StartChar: uni0652
Encoding: 1618 1618 50
Width: 0
VWidth: 2186
GlyphClass: 4
Flags: W
AnchorPoint: "Anchor-10" 565.84 1128.5 mark 0
AnchorPoint: "Anchor-9" 565.84 1128.5 mark 0
AnchorPoint: "Anchor-1" 551.84 1702 basemark 0
AnchorPoint: "Anchor-1" 565.84 1128.5 mark 0
LayerCount: 2
Fore
SplineSet
674.569 1383.62 m 0,0,1
 674.569 1428.15 674.569 1428.15 643.439 1459.28 c 128,-1,2
 612.312 1490.41 612.312 1490.41 567.126 1490.41 c 0,3,4
 521.285 1490.41 521.285 1490.41 490.485 1459.61 c 128,-1,5
 459.685 1428.81 459.685 1428.81 459.685 1383.62 c 0,6,7
 459.685 1337.78 459.685 1337.78 490.485 1306.98 c 128,-1,8
 521.285 1276.18 521.285 1276.18 567.126 1276.18 c 0,9,10
 612.314 1276.18 612.314 1276.18 643.439 1307.31 c 128,-1,11
 674.569 1338.44 674.569 1338.44 674.569 1383.62 c 0,0,1
750.396 1383.73 m 128,-1,13
 750.396 1306.88 750.396 1306.88 697.316 1253.46 c 128,-1,14
 644.259 1200.07 644.259 1200.07 567.436 1200.07 c 128,-1,15
 490.613 1200.07 490.613 1200.07 437.557 1253.46 c 128,-1,16
 384.476 1306.88 384.476 1306.88 384.476 1383.73 c 128,-1,17
 384.476 1460.56 384.476 1460.56 437.537 1513.63 c 128,-1,18
 490.596 1566.69 490.596 1566.69 567.436 1566.69 c 128,-1,19
 644.276 1566.69 644.276 1566.69 697.335 1513.63 c 128,-1,12
 750.396 1460.56 750.396 1460.56 750.396 1383.73 c 128,-1,13
EndSplineSet
EndChar

StartChar: uni0653
Encoding: 1619 1619 51
Width: 0
VWidth: 2186
GlyphClass: 4
Flags: W
AnchorPoint: "Anchor-10" 442.84 1264.52 mark 0
AnchorPoint: "Anchor-9" 442.84 1264.52 mark 0
AnchorPoint: "Anchor-1" 442.84 1600.5 basemark 0
AnchorPoint: "Anchor-1" 442.84 1264.52 mark 0
LayerCount: 2
Fore
SplineSet
199.483 1394 m 0,0,1
 252.229 1436.43 252.229 1436.43 336.912 1417.1 c 0,2,3
 433.642 1395.02 433.642 1395.02 528.483 1416 c 0,4,5
 598.038 1431.38 598.038 1431.38 620.704 1466.43 c 2,6,-1
 627.747 1477.32 l 1,7,-1
 633.219 1443.81 l 2,8,9
 638.573 1411.02 638.573 1411.02 614.483 1374 c 4,10,11
 597.163 1348.37 597.163 1348.37 562.483 1332 c 0,12,13
 500.242 1304.01 500.242 1304.01 297.66 1326.58 c 0,14,15
 245.85 1332.42 245.85 1332.42 186.455 1251.19 c 2,16,-1
 181.227 1244.04 l 1,17,-1
 175.195 1258.45 l 2,18,19
 138.865 1345.24 138.865 1345.24 199.483 1394 c 0,0,1
EndSplineSet
EndChar

StartChar: uni0657
Encoding: 1623 1623 54
Width: 0
VWidth: 2186
GlyphClass: 4
Flags: W
AnchorPoint: "Anchor-10" 547.84 1279.5 mark 0
AnchorPoint: "Anchor-9" 547.84 1279.5 mark 0
AnchorPoint: "Anchor-1" 547.84 1975 basemark 0
AnchorPoint: "Anchor-1" 547.84 1279.5 mark 0
LayerCount: 2
Fore
SplineSet
501.148 1675.55 m 2,0,1
 509.083 1673.79 509.083 1673.79 527.945 1663.86 c 0,2,3
 636.49 1607.58 636.49 1607.58 636.49 1513.83 c 0,4,5
 636.49 1427.22 636.49 1427.22 567.86 1375.5 c 0,6,7
 541.366 1355.63 541.366 1355.63 478.29 1355.63 c 0,8,9
 405.468 1355.63 405.468 1355.63 366.487 1393.64 c 0,10,11
 311.53 1447.59 311.53 1447.59 311.53 1526.67 c 0,12,13
 311.53 1558.94 311.53 1558.94 325.923 1605.2 c 2,14,-1
 330.858 1621.06 l 1,15,-1
 314.272 1622.04 l 2,16,17
 295.871 1623.12 295.871 1623.12 276.421 1623.66 c 0,18,19
 263.452 1624.02 263.452 1624.02 248.4 1624.15 c 1,20,-1
 248.4 1715.83 l 1,21,22
 278.631 1715.51 278.631 1715.51 306.226 1713.79 c 0,23,24
 338.082 1711.66 338.082 1711.66 367.766 1708.48 c 2,25,-1
 375.369 1707.67 l 1,26,-1
 379.775 1713.92 l 2,27,28
 424.231 1776.99 424.231 1776.99 495.801 1820.55 c 0,29,30
 697.387 1944.51 697.387 1944.51 847.28 1950 c 1,31,-1
 847.28 1858.35 l 1,32,33
 687.009 1853.71 687.009 1853.71 540.898 1739.14 c 0,34,35
 515.54 1719.29 515.54 1719.29 494.545 1697.2 c 2,36,-1
 478.72 1680.54 l 1,37,-1
 501.148 1675.55 l 2,0,1
424.935 1605.66 m 1,38,-1
 413.911 1579.94 l 2,39,40
 403.23 1555.02 403.23 1555.02 403.23 1526.67 c 0,41,42
 403.23 1484.16 403.23 1484.16 426.155 1465.28 c 0,43,44
 447.946 1447.33 447.946 1447.33 474.01 1447.33 c 0,45,46
 502.438 1447.33 502.438 1447.33 518.352 1459.67 c 0,47,48
 542.65 1477.96 542.65 1477.96 542.65 1513.83 c 0,49,50
 542.65 1562.22 542.65 1562.22 486.328 1584.75 c 0,51,52
 464.442 1593.51 464.442 1593.51 436.104 1602.22 c 2,53,-1
 424.935 1605.66 l 1,38,-1
EndSplineSet
EndChar

StartChar: uni065A
Encoding: 1626 1626 55
Width: 1095
VWidth: 2186
GlyphClass: 4
Flags: W
AnchorPoint: "Anchor-10" 547.84 1279.5 mark 0
AnchorPoint: "Anchor-9" 547.84 1279.5 mark 0
AnchorPoint: "Anchor-1" 545.7 1761 basemark 0
AnchorPoint: "Anchor-1" 547.84 1279.5 mark 0
LayerCount: 2
Fore
SplineSet
476.032 1358.84 m 1,0,-1
 282.934 1681.66 l 1,1,-1
 401.783 1681.66 l 1,2,-1
 547.84 1462.57 l 1,3,-1
 693.896 1681.66 l 1,4,-1
 812.746 1681.66 l 1,5,-1
 619.646 1358.84 l 1,6,-1
 476.032 1358.84 l 1,0,-1
EndSplineSet
EndChar

StartChar: afii57392
Encoding: 1632 1632 56
Width: 1211
VWidth: 2275
GlyphClass: 2
Flags: W
LayerCount: 2
Fore
SplineSet
491.487 603.793 m 128,-1,1
 491.487 559.594 491.487 559.594 523.161 527.919 c 128,-1,2
 554.836 496.245 554.836 496.245 599.035 496.245 c 128,-1,3
 643.233 496.245 643.233 496.245 674.907 527.919 c 128,-1,4
 706.583 559.595 706.583 559.595 706.583 603.793 c 128,-1,5
 706.583 647.989 706.583 647.989 674.907 679.665 c 128,-1,6
 643.233 711.341 643.233 711.341 599.035 711.341 c 128,-1,7
 554.838 711.341 554.838 711.341 523.161 679.665 c 128,-1,0
 491.487 647.99 491.487 647.99 491.487 603.793 c 128,-1,1
342.586 600.562 m 128,-1,9
 342.586 708.419 342.586 708.419 418.731 785.008 c 128,-1,10
 494.825 861.548 494.825 861.548 601.947 861.548 c 128,-1,11
 709.074 861.548 709.074 861.548 785.164 785.008 c 128,-1,12
 861.307 708.418 861.307 708.418 861.307 600.562 c 128,-1,13
 861.307 492.697 861.307 492.697 785.164 416.116 c 128,-1,14
 709.064 339.578 709.064 339.578 601.947 339.578 c 128,-1,15
 494.824 339.578 494.824 339.578 418.731 416.116 c 128,-1,8
 342.586 492.703 342.586 492.703 342.586 600.562 c 128,-1,9
EndSplineSet
EndChar

StartChar: afii57393
Encoding: 1633 1633 57
Width: 1215
VWidth: 2270
GlyphClass: 2
Flags: W
LayerCount: 2
Fore
SplineSet
742.246 -32.1504 m 5,0,-1
 576.245 -32.1504 l 5,1,2
 575.37 429.385 575.37 429.385 530.047 711.069 c 4,3,4
 480.693 1040.14 480.693 1040.14 344.548 1332.23 c 5,5,-1
 492.248 1404.15 l 5,6,7
 606.924 1214.77 606.924 1214.77 686.928 846.749 c 4,8,9
 739.927 602.949 739.927 602.949 742.246 -32.1504 c 5,0,-1
EndSplineSet
EndChar

StartChar: afii57394
Encoding: 1634 1634 58
Width: 1211
VWidth: 2129
GlyphClass: 2
Flags: W
LayerCount: 2
Fore
SplineSet
270.059 1404.15 m 1,0,1
 314.295 1295.52 314.295 1295.52 348.372 1229.41 c 4,2,3
 428.697 1074.71 428.697 1074.71 577.887 1058.59 c 0,4,5
 804.943 1034.05 804.943 1034.05 869.892 1184.89 c 0,6,7
 900.449 1255.86 900.449 1255.86 921.282 1403.99 c 1,8,-1
 1078.16 1365.83 l 1,9,10
 1077.37 1307.33 1077.37 1307.33 1059.63 1223.05 c 0,11,12
 991.01 898.395 991.01 898.395 679.092 881.729 c 0,13,14
 541.352 874.764 541.352 874.764 438.472 908.229 c 1,15,16
 476.623 795.796 476.623 795.796 501.566 567.81 c 0,17,18
 510.118 489.641 510.118 489.641 516.507 -32.1504 c 1,19,-1
 350.505 -32.1504 l 1,20,21
 349.685 432.118 349.685 432.118 308.288 683.519 c 0,22,23
 252.257 1023.8 252.257 1023.8 123.146 1301.33 c 1,24,-1
 270.059 1404.15 l 1,0,1
EndSplineSet
EndChar

StartChar: afii57395
Encoding: 1635 1635 59
Width: 1210
VWidth: 2129
GlyphClass: 2
Flags: W
LayerCount: 2
Fore
SplineSet
221.593 1404.15 m 1,0,1
 291.715 1239.56 291.715 1239.56 295.794 1232.47 c 0,2,3
 383.002 1070.6 383.002 1070.6 475.176 1062.04 c 0,4,5
 565.457 1053.45 565.457 1053.45 605.737 1106.45 c 0,6,7
 652.511 1168.76 652.511 1168.76 652.511 1356.71 c 1,8,-1
 775.58 1355.79 l 1,9,10
 777.856 1178.72 777.856 1178.72 791.789 1142.86 c 0,11,12
 825.703 1061.93 825.703 1061.93 898.848 1062.04 c 1,13,14
 1038.28 1064.08 1038.28 1064.08 1013.33 1395.83 c 1,15,-1
 1149.01 1373.57 l 1,16,17
 1180.17 894.449 1180.17 894.449 900.659 901.229 c 4,18,19
 782.909 904.336 782.909 904.336 719.399 1001.75 c 1,20,21
 664.169 907.446 664.169 907.446 548.315 899.855 c 0,22,23
 471.827 894.946 471.827 894.946 387.204 924.787 c 1,24,25
 423.392 812.361 423.392 812.361 461.819 464.328 c 0,26,27
 480.322 292.369 480.322 292.369 470.162 -32.1494 c 1,28,-1
 302.039 -32.1494 l 1,29,30
 301.219 432.117 301.219 432.117 259.823 683.519 c 0,31,32
 203.792 1023.8 203.792 1023.8 74.6807 1301.33 c 1,33,-1
 221.593 1404.15 l 1,0,1
EndSplineSet
EndChar

StartChar: afii57396
Encoding: 1636 1636 60
Width: 1212
VWidth: 2270
GlyphClass: 2
Flags: W
LayerCount: 2
Fore
SplineSet
757.5 1410.29 m 5,0,-1
 757.158 1268.96 l 1,1,2
 625.028 1281.53 625.028 1281.53 536.809 1241.97 c 1,3,4
 419.942 1188.01 419.942 1188.01 429.285 1068.84 c 0,5,6
 439.117 945.068 439.117 945.068 565.178 897.346 c 0,7,8
 606.294 881.779 606.294 881.779 752.472 867.047 c 1,9,-1
 752.472 715.044 l 1,10,11
 588.935 683.984 588.935 683.984 493.32 621.22 c 0,12,13
 366.49 536.935 366.49 536.935 348.822 384.31 c 0,14,15
 343.574 338.954 343.574 338.954 348.76 301.144 c 0,16,17
 379.757 75.2197 379.757 75.2197 762.812 128.058 c 0,18,19
 850.354 140.115 850.354 140.115 981.58 202.599 c 1,20,-1
 981.58 23.6836 l 1,21,22
 850.693 -28.2812 850.693 -28.2812 677.277 -40.2764 c 0,23,24
 273.983 -67.1855 273.983 -67.1855 202.462 201.964 c 0,25,26
 134.576 459.054 134.576 459.054 277.281 633.082 c 0,27,28
 368.44 743.322 368.44 743.322 522.041 790.246 c 1,29,30
 298.39 842.153 298.39 842.153 272.62 1036.29 c 0,31,32
 241.084 1273.85 241.084 1273.85 454.94 1371.25 c 0,33,34
 561.811 1420.3 561.811 1420.3 757.5 1410.29 c 5,0,-1
EndSplineSet
EndChar

StartChar: afii57397
Encoding: 1637 1637 61
Width: 1212
VWidth: 2271
GlyphClass: 2
Flags: W
LayerCount: 2
Fore
SplineSet
332.852 786.687 m 0,0,1
 249.491 643.326 249.491 643.326 242.467 492.04 c 0,2,3
 233.94 308.422 233.94 308.422 335.369 225.007 c 0,4,5
 429.37 147.684 429.37 147.684 614.41 146.84 c 0,6,7
 821.221 145.896 821.221 145.896 892.147 267.257 c 0,8,9
 951.939 371.262 951.939 371.262 939.388 525.375 c 0,10,11
 925.657 703.123 925.657 703.123 791.129 868.001 c 0,12,13
 684.509 998.914 684.509 998.914 564.729 1063.57 c 1,14,15
 424.809 948.034 424.809 948.034 332.852 786.687 c 0,0,1
361.209 1204.11 m 1,16,-1
 472.509 1350.39 l 1,17,18
 586.989 1289.97 586.989 1289.97 749.169 1158.53 c 0,19,20
 919.72 1017.57 919.72 1017.57 1001.15 885.918 c 0,21,22
 1107.28 714.326 1107.28 714.326 1117 508.934 c 0,23,24
 1130.39 239.629 1130.39 239.629 1020.62 122.971 c 0,25,26
 883.02 -21.9531 883.02 -21.9531 594.687 -20.8506 c 1,27,28
 302.128 -20.8506 302.128 -20.8506 168.868 122.851 c 0,29,30
 31.332 272.158 31.332 272.158 60.6846 508.536 c 0,31,32
 84.4385 697.72 84.4385 697.72 179.496 859.5 c 0,33,34
 288.069 1045.02 288.069 1045.02 427.894 1159.04 c 5,35,-1
 361.209 1204.11 l 1,16,-1
EndSplineSet
EndChar

StartChar: afii57398
Encoding: 1638 1638 62
Width: 1212
VWidth: 2270
GlyphClass: 2
Flags: W
LayerCount: 2
Fore
SplineSet
905.516 1399.26 m 1,0,1
 907.056 1075.97 907.056 1075.97 947.529 689.827 c 0,2,3
 979.602 383.484 979.602 383.484 1085.94 -32.0078 c 1,4,-1
 902.991 -32.0078 l 1,5,6
 809.965 327.535 809.965 327.535 775.676 693.598 c 0,7,8
 743.806 1032.71 743.806 1032.71 741.731 1181.81 c 2,9,-1
 741.382 1206.88 l 1,10,-1
 717.312 1199.86 l 2,11,12
 610.953 1168.87 610.953 1168.87 452.713 1168.87 c 0,13,14
 261.118 1168.87 261.118 1168.87 80.4941 1220.79 c 1,15,-1
 80.4941 1398.45 l 1,16,17
 274.589 1347.58 274.589 1347.58 452.713 1347.58 c 0,18,19
 680.399 1347.58 680.399 1347.58 905.516 1399.26 c 1,0,1
EndSplineSet
EndChar

StartChar: afii57399
Encoding: 1639 1639 63
Width: 1212
VWidth: 2270
GlyphClass: 2
Flags: W
LayerCount: 2
Fore
SplineSet
504.147 -32.1504 m 5,0,1
 487.88 173.574 487.88 173.574 374.21 589.602 c 4,2,3
 259.826 1008.24 259.826 1008.24 78.3594 1320.41 c 5,4,-1
 243.206 1404.15 l 5,5,6
 413.571 1058.7 413.571 1058.7 513.448 709.114 c 4,7,8
 567.638 519.452 567.638 519.452 569.733 507.921 c 6,9,-1
 588.505 404.649 l 5,10,-1
 607.276 507.92 l 6,11,12
 609.368 519.434 609.368 519.434 663.561 709.114 c 4,13,14
 763.454 1058.75 763.454 1058.75 933.803 1404.15 c 5,15,-1
 1098.49 1320.41 l 5,16,17
 919.378 1014.87 919.378 1014.87 802.614 588.968 c 4,18,19
 708.819 246.854 708.819 246.854 673.704 -32.1504 c 5,20,-1
 504.147 -32.1504 l 5,0,1
EndSplineSet
EndChar

StartChar: afii57400
Encoding: 1640 1640 64
Width: 1212
VWidth: 2270
GlyphClass: 2
Flags: W
LayerCount: 2
Fore
SplineSet
504.147 1404.15 m 5,0,-1
 673.704 1404.15 l 5,1,2
 711.75 1101.87 711.75 1101.87 802.61 783.047 c 4,3,4
 936.106 314.629 936.106 314.629 1112.27 34.6299 c 5,5,-1
 933.803 -32.1504 l 5,6,7
 763.451 313.258 763.451 313.258 663.561 662.886 c 4,8,9
 609.371 852.559 609.371 852.559 588.505 967.35 c 5,10,11
 567.639 852.56 567.639 852.56 513.448 662.886 c 4,12,13
 413.558 313.256 413.558 313.256 243.206 -32.1504 c 5,14,-1
 64.5801 34.6299 l 5,15,16
 198.346 259.509 198.346 259.509 374.209 782.395 c 4,17,18
 479.619 1093.95 479.619 1093.95 504.147 1404.15 c 5,0,-1
EndSplineSet
EndChar

StartChar: afii57401
Encoding: 1641 1641 65
Width: 1212
VWidth: 2270
GlyphClass: 2
Flags: W
LayerCount: 2
Fore
SplineSet
564.745 665.534 m 4,0,1
 300.636 681.807 300.636 681.807 188.896 805.91 c 4,2,3
 97.0254 907.26 97.0254 907.26 97.0254 1027.39 c 4,4,5
 97.0254 1188.11 97.0254 1188.11 197.161 1288.32 c 4,6,7
 334.211 1426.53 334.211 1426.53 494.196 1425.47 c 4,8,9
 686.307 1425.47 686.307 1425.47 774.62 1340.32 c 4,10,11
 900.525 1217.85 900.525 1217.85 915.237 1020.31 c 4,12,13
 926.602 866.857 926.602 866.857 947.081 696.187 c 4,14,15
 989.67 357.56 989.67 357.56 1085.46 -32.7715 c 1,16,-1
 903.097 -32.7715 l 1,17,18
 808.46 422.038 808.46 422.038 778.995 666.606 c 5,19,20
 675.077 658.68 675.077 658.68 564.745 665.534 c 4,0,1
753.728 833.736 m 5,21,-1
 753.728 936.651 l 6,22,23
 753.728 1065.29 753.728 1065.29 703.337 1141.62 c 5,24,25
 621.687 1256.29 621.687 1256.29 499.868 1256.29 c 4,26,27
 402.567 1256.29 402.567 1256.29 332.372 1188.57 c 4,28,29
 267.302 1125.83 267.302 1125.83 263.021 1033.06 c 4,30,31
 259.566 952.001 259.566 952.001 338.688 894.891 c 28,32,33
 395.327 854.01 395.327 854.01 458.745 839.375 c 4,34,35
 568.985 813.935 568.985 813.935 753.728 833.736 c 5,21,-1
EndSplineSet
EndChar

StartChar: afii57381
Encoding: 1642 1642 66
Width: 1177
VWidth: 2186
GlyphClass: 2
Flags: W
LayerCount: 2
Fore
SplineSet
459.39 1287.05 m 2,0,-1
 459.39 1158.05 l 2,1,2
 459.39 1121.05 459.39 1121.05 429.39 1121.04 c 2,3,-1
 302.391 1121.05 l 2,4,5
 268.39 1121.05 268.39 1121.05 268.39 1159.05 c 2,6,-1
 268.39 1287.05 l 2,7,8
 268.39 1319.05 268.39 1319.05 306.39 1319.05 c 2,9,-1
 421.39 1319.05 l 2,10,11
 459.39 1319.05 459.39 1319.05 459.39 1287.05 c 2,0,-1
911.192 233.849 m 2,12,-1
 911.192 104.849 l 2,13,14
 911.192 67.8477 911.192 67.8477 881.192 67.8477 c 2,15,-1
 754.192 67.8477 l 2,16,17
 720.192 67.8477 720.192 67.8477 720.192 105.848 c 2,18,-1
 720.192 233.849 l 2,19,20
 720.192 265.848 720.192 265.848 758.192 265.848 c 2,21,-1
 873.192 265.848 l 2,22,23
 911.192 265.848 911.192 265.848 911.192 233.849 c 2,12,-1
871.394 1373.5 m 1,24,-1
 983.001 1316 l 1,25,-1
 301 0 l 1,26,-1
 190 61 l 1,27,-1
 871.394 1373.5 l 1,24,-1
EndSplineSet
EndChar

StartChar: uni066B
Encoding: 1643 1643 67
Width: 711
VWidth: 2186
GlyphClass: 2
Flags: W
LayerCount: 2
Fore
SplineSet
443.218 502.139 m 1,0,-1
 568.799 501.203 l 1,1,2
 342.799 113.203 342.799 113.203 130 -230.265 c 1,3,-1
 1.59766 -228.502 l 1,4,5
 94.7988 -78.7969 94.7988 -78.7969 443.218 502.139 c 1,0,-1
EndSplineSet
EndChar

StartChar: uni066C
Encoding: 1644 1644 68
Width: 696
VWidth: 2186
GlyphClass: 2
Flags: W
LayerCount: 2
Fore
SplineSet
291.2 1580.01 m 1,0,-1
 490.97 1580.01 l 1,1,-1
 490.97 1433.52 l 1,2,-1
 320.557 1102.04 l 1,3,-1
 207.225 1102.04 l 1,4,-1
 291.2 1428.73 l 1,5,-1
 291.2 1580.01 l 1,0,-1
EndSplineSet
EndChar

StartChar: afii63167
Encoding: 1645 1645 69
Width: 1194
VWidth: 2186
GlyphClass: 2
Flags: W
LayerCount: 2
Fore
SplineSet
132.901 794.63 m 1,0,-1
 486.633 794.63 l 1,1,-1
 597.061 1130.84 l 1,2,-1
 707.487 794.63 l 1,3,-1
 1061.22 794.63 l 1,4,-1
 775.453 585.725 l 1,5,-1
 884.797 249.809 l 1,6,-1
 597.061 457.729 l 1,7,-1
 309.323 249.809 l 1,8,-1
 418.667 585.725 l 1,9,-1
 132.901 794.63 l 1,0,-1
EndSplineSet
EndChar

StartChar: uni066E
Encoding: 1646 1646 70
Width: 1703
VWidth: 2291
GlyphClass: 2
Flags: W
AnchorPoint: "Anchor-10" 763.278 1092.71 basechar 0
AnchorPoint: "Anchor-7" 519.479 -243.424 basechar 0
LayerCount: 2
Fore
SplineSet
948.263 178.172 m 28,0,1
 1079.15 177.253 1079.15 177.253 1209.57 193.949 c 4,2,3
 1401.47 218.517 1401.47 218.517 1476.33 272.597 c 4,4,5
 1537.99 318.104 1537.99 318.104 1507.22 395.996 c 4,6,7
 1454.84 528.577 1454.84 528.577 1445.47 556.704 c 4,8,9
 1395.92 705.389 1395.92 705.389 1521.71 765.524 c 6,10,-1
 1537.07 772.867 l 5,11,12
 1599.55 584.966 1599.55 584.966 1610.16 415.44 c 4,13,14
 1624.35 188.696 1624.35 188.696 1506.92 119.239 c 4,15,16
 1385.12 46.8379 1385.12 46.8379 1163.41 16.7236 c 4,17,18
 1049.23 1.13379 1049.23 1.13379 914.666 -0.883789 c 28,19,20
 508.924 -6.86133 508.924 -6.86133 355.904 69.7119 c 4,21,22
 89.1396 203.235 89.1396 203.235 91.3027 476.599 c 4,23,24
 92.7604 688.526 92.7604 688.526 202.763 703.457 c 6,25,-1
 206.763 704 l 5,26,27
 191.182 632.774 191.182 632.774 184.763 575 c 4,28,29
 179.543 528.021 179.543 528.021 181.479 473.573 c 4,30,31
 189.651 243.687 189.651 243.687 549.649 193.732 c 4,32,33
 645.845 180.407 645.845 180.407 948.263 178.172 c 28,0,1
EndSplineSet
Substitution2: "'init' Initial Forms in Arabic lookup 13 subtable" uni066E.init
Substitution2: "'medi' Medial Forms in Arabic lookup 11 subtable" uni066E.medi
Substitution2: "'fina' Terminal Forms in Arabic lookup 9 subtable" uni066E.fina
EndChar

StartChar: uni066F
Encoding: 1647 1647 71
Width: 1406
VWidth: 2307
GlyphClass: 2
Flags: W
AnchorPoint: "Anchor-10" 328.703 1095.86 basechar 0
AnchorPoint: "Anchor-7" 460.144 -651.547 basechar 0
LayerCount: 2
Fore
SplineSet
1022.07 625.613 m 4,0,1
 909.758 632.521 909.758 632.521 871.441 434.58 c 4,2,3
 838.463 260.094 838.463 260.094 1025.34 259.698 c 4,4,5
 1165.33 259.402 1165.33 259.402 1185.36 262.804 c 5,6,7
 1181.2 375.236 1181.2 375.236 1155.44 468.58 c 4,8,9
 1113.6 620.23 1113.6 620.23 1022.07 625.613 c 4,0,1
1299.74 275.522 m 5,10,11
 1311.21 104.772 1311.21 104.772 1282.21 -8.86816 c 4,12,13
 1179.85 -421.19 1179.85 -421.19 651.355 -431.928 c 4,14,15
 311.702 -438.507 311.702 -438.507 173.396 -245.848 c 4,16,17
 64.6035 -95.3281 64.6035 -95.3281 123.886 178.116 c 4,18,19
 144.379 272.642 144.379 272.642 174.631 344.071 c 4,20,21
 229.896 474.564 229.896 474.564 306.07 478.176 c 6,22,-1
 320.016 478.837 l 5,23,24
 163.666 151.71 163.666 151.71 246.876 -58.583 c 4,25,26
 324.844 -255.626 324.844 -255.626 635.55 -262.083 c 4,27,28
 1141.77 -272.603 1141.77 -272.603 1181.62 99.0234 c 5,29,30
 1100.3 98.4111 1100.3 98.4111 1018.98 97.7998 c 4,31,32
 841.532 96.4658 841.532 96.4658 790.017 180.198 c 4,33,34
 735.119 268.415 735.119 268.415 751.017 408.6 c 4,35,36
 772.006 589.844 772.006 589.844 857.441 682.58 c 4,37,38
 939.072 770.994 939.072 770.994 1055.82 758.961 c 4,39,40
 1120.42 752.561 1120.42 752.561 1170.44 698.58 c 4,41,42
 1264.49 596.926 1264.49 596.926 1285.91 403.039 c 20,43,44
 1299.74 277.876 1299.74 277.876 1299.74 275.522 c 5,10,11
EndSplineSet
Substitution2: "'init' Initial Forms in Arabic lookup 13 subtable" uni066F.init
Substitution2: "'medi' Medial Forms in Arabic lookup 11 subtable" uni066F.medi
Substitution2: "'fina' Terminal Forms in Arabic lookup 9 subtable" uni066F.fina
EndChar

StartChar: uni0670
Encoding: 1648 1648 72
Width: 0
VWidth: 2186
GlyphClass: 4
Flags: W
AnchorPoint: "Anchor-10" 547.84 1279.5 mark 0
AnchorPoint: "Anchor-9" 547.84 1279.5 mark 0
AnchorPoint: "Anchor-1" 547.84 1884 basemark 0
AnchorPoint: "Anchor-1" 547.84 1279.5 mark 0
LayerCount: 2
Fore
SplineSet
525.99 1327.81 m 5,0,-1
 501.99 1781.69 l 5,1,-1
 593.69 1835.69 l 5,2,-1
 593.69 1327.81 l 5,3,-1
 525.99 1327.81 l 5,0,-1
EndSplineSet
EndChar

StartChar: uni0674
Encoding: 1652 1652 73
Width: 639
VWidth: 2186
GlyphClass: 2
Flags: W
LayerCount: 2
Fore
SplineSet
143.54 1515.26 m 1,0,-1
 254.306 1540.82 l 1,1,2
 145.68 1590.21 145.68 1590.21 145.68 1692.52 c 0,3,4
 145.68 1778.8 145.68 1778.8 206 1832 c 0,5,6
 256.995 1876.48 256.995 1876.48 343 1877 c 0,7,8
 410.823 1877 410.823 1877 462.08 1846.81 c 1,9,-1
 462.08 1769.8 l 1,10,11
 397.433 1802.12 397.433 1802.12 332 1795 c 0,12,13
 227.549 1783.73 227.549 1783.73 220.26 1701.08 c 0,14,15
 212.646 1612.93 212.646 1612.93 330.161 1577.33 c 0,16,17
 366.368 1566.36 366.368 1566.36 484.55 1593.69 c 1,18,-1
 484.55 1511.4 l 1,19,-1
 143.54 1434.84 l 1,20,-1
 143.54 1515.26 l 1,0,-1
EndSplineSet
EndChar

StartChar: uni06A1
Encoding: 1697 1697 77
Width: 1726
VWidth: 2307
GlyphClass: 2
Flags: W
AnchorPoint: "Anchor-10" 486.273 1270.83 basechar 0
AnchorPoint: "Anchor-7" 599.693 -190.024 basechar 0
LayerCount: 2
Fore
SplineSet
1362.82 888.533 m 4,0,1
 1251.74 895.366 1251.74 895.366 1212.19 697.499 c 4,2,3
 1174.38 511.356 1174.38 511.356 1366.09 509.618 c 4,4,5
 1431.67 509.323 1431.67 509.323 1526.11 525.723 c 5,6,7
 1521.95 638.156 1521.95 638.156 1496.19 731.499 c 4,8,9
 1454.35 883.149 1454.35 883.149 1362.82 888.533 c 4,0,1
966.526 179.119 m 21,10,11
 1074.41 179.119 l 6,12,13
 1279.53 179.119 1279.53 179.119 1379.36 213.798 c 4,14,15
 1524.36 264.847 1524.36 264.847 1528.15 372.197 c 5,16,17
 1432.46 334.74 1432.46 334.74 1342.15 340.197 c 4,18,19
 1197.9 348.912 1197.9 348.912 1130.77 443.118 c 4,20,21
 1074.83 522.121 1074.83 522.121 1091.77 671.519 c 4,22,23
 1112.76 852.763 1112.76 852.763 1198.19 945.499 c 4,24,25
 1279.5 1032.9 1279.5 1032.9 1385.48 1023.69 c 4,26,27
 1470.16 1016.73 1470.16 1016.73 1525.48 947.688 c 4,28,29
 1607.17 844.839 1607.17 844.839 1630.66 665.959 c 4,30,31
 1653.84 487.302 1653.84 487.302 1634.15 360.197 c 4,32,33
 1602.3 159.08 1602.3 159.08 1445.36 69.7979 c 4,34,35
 1326.44 2.36937 1326.44 2.36937 1047.36 0 c 6,36,-1
 932.906 -0.97168 l 5,37,38
 496.475 -0.648438 496.475 -0.648438 355.904 69.7119 c 4,39,40
 89.1396 203.235 89.1396 203.235 91.3027 476.599 c 4,41,42
 91.9951 566.174 91.9951 566.174 114 647.506 c 4,43,44
 131.608 712.586 131.608 712.586 202.763 704.457 c 6,45,-1
 206.763 704 l 5,46,47
 191.182 632.774 191.182 632.774 184.763 575 c 4,48,49
 179.543 528.021 179.543 528.021 181.479 473.573 c 4,50,51
 189.651 243.687 189.651 243.687 549.649 193.732 c 4,52,53
 645.027 180.407 645.027 180.407 966.526 179.119 c 21,10,11
EndSplineSet
Substitution2: "'init' Initial Forms in Arabic lookup 13 subtable" uni06A1.init
Substitution2: "'medi' Medial Forms in Arabic lookup 11 subtable" uni06A1.medi
Substitution2: "'fina' Terminal Forms in Arabic lookup 9 subtable" uni06A1.fina
EndChar

StartChar: uni06A9
Encoding: 1705 1705 78
Width: 1778
VWidth: 2291
GlyphClass: 2
Flags: W
AnchorPoint: "Anchor-10" 268.771 1230.92 basechar 0
AnchorPoint: "Anchor-7" 391.73 -293.384 basechar 0
LayerCount: 2
Fore
SplineSet
895.431 -0.5625 m 4,0,1
 496.303 -0.5625 496.303 -0.5625 355.904 69.7119 c 4,2,3
 89.1396 203.235 89.1396 203.235 91.3027 476.599 c 4,4,5
 91.6729 540.989 91.6729 540.989 103 585 c 4,6,7
 138.693 718.882 138.693 718.882 199.893 705.502 c 6,8,-1
 206.763 704 l 5,9,10
 191.182 632.775 191.182 632.775 184.763 575 c 4,11,12
 179.543 528.021 179.543 528.021 181.479 473.573 c 4,13,14
 189.685 242.726 189.685 242.726 549.649 193.732 c 4,15,16
 644.312 180.848 644.312 180.848 777.657 180.424 c 4,17,18
 942.052 179.901 942.052 179.901 949 182 c 6,19,20
 1309.41 185.315 1309.41 185.315 1405.89 320.017 c 4,21,22
 1481.41 425.458 1481.41 425.458 1356.29 535.797 c 6,23,-1
 1070.09 788.183 l 6,24,25
 971.631 875.009 971.631 875.009 966.829 930.87 c 4,26,27
 957.236 1042.77 957.236 1042.77 1080.41 1107.31 c 6,28,-1
 1760.5 1463.65 l 5,29,-1
 1759.5 1441.29 l 6,30,31
 1752.33 1281.03 1752.33 1281.03 1581.01 1197.31 c 6,32,-1
 1095.33 959.96 l 5,33,34
 1089.66 948.98 1089.66 948.98 1437.74 634.843 c 5,35,36
 1552.48 526.804 1552.48 526.804 1537.33 359.017 c 4,37,38
 1522.25 191.625 1522.25 191.625 1369.89 107.017 c 4,39,40
 1205.93 15.9629 1205.93 15.9629 906 0 c 6,41,-1
 895.431 -0.5625 l 4,0,1
EndSplineSet
Substitution2: "'init' Initial Forms in Arabic lookup 13 subtable" uniFB90
Substitution2: "'medi' Medial Forms in Arabic lookup 11 subtable" uniFB91
Substitution2: "'fina' Terminal Forms in Arabic lookup 9 subtable" uniFB8F
EndChar

StartChar: afii57514
Encoding: 1722 1722 80
Width: 1351
VWidth: 2316
GlyphClass: 2
Flags: W
AnchorPoint: "Anchor-10" 587.961 996.99 basechar 0
AnchorPoint: "Anchor-7" 305.838 -757.488 basechar 0
LayerCount: 2
Fore
SplineSet
1241.93 252.396 m 0,0,1
 1276.36 25.5442 1276.36 25.5442 1242.83 -111 c 0,2,3
 1148.24 -496.182 1148.24 -496.182 648.084 -505.362 c 0,4,5
 325.49 -511.326 325.49 -511.326 173.271 -311.941 c 0,6,7
 50.1201 -152.261 50.1201 -152.261 95.1885 70.3955 c 0,8,9
 110.137 144.246 110.137 144.246 144.933 236.351 c 0,10,11
 160.016 276.276 160.016 276.276 176.451 312.032 c 0,12,13
 204.957 374.05 204.957 374.05 266.244 354.924 c 2,14,-1
 273.413 352.687 l 1,15,16
 159.299 92.7937 159.299 92.7937 218.178 -101.305 c 0,17,18
 289.664 -336.965 289.664 -336.965 643.852 -335.804 c 0,19,20
 1127.88 -334.218 1127.88 -334.218 1152.83 -13.9688 c 0,21,22
 1161.5 98.6455 1161.5 98.6455 1105.05 239.874 c 0,23,24
 1002.69 495.968 1002.69 495.968 1134.73 530.314 c 2,25,-1
 1167.33 538.794 l 1,26,27
 1226.92 346.926 1226.92 346.926 1241.93 252.396 c 0,0,1
EndSplineSet
Substitution2: "'init' Initial Forms in Arabic lookup 13 subtable" uni06BA.init
Substitution2: "'medi' Medial Forms in Arabic lookup 11 subtable" uni06BA.medi
Substitution2: "'fina' Terminal Forms in Arabic lookup 9 subtable" uniFB9F
EndChar

StartChar: uni06F4
Encoding: 1780 1780 87
Width: 1212
VWidth: 2270
GlyphClass: 2
Flags: W
LayerCount: 2
Fore
SplineSet
361.479 1138.27 m 2,0,-1
 378.914 1084.22 l 1,1,-1
 397.649 1137.83 l 2,2,3
 472.7 1352.56 472.7 1352.56 620.885 1395.75 c 0,4,5
 776.022 1440.83 776.022 1440.83 980.399 1398.32 c 1,6,-1
 980.399 1260.91 l 1,7,8
 938.201 1272.81 938.201 1272.81 849.328 1284.08 c 0,9,10
 675.358 1306.12 675.358 1306.12 586.061 1215 c 0,11,12
 469.701 1097.01 469.701 1097.01 542.597 977.258 c 0,13,14
 595.946 891.314 595.946 891.314 803.808 891.061 c 0,15,16
 860.82 891.009 860.82 891.009 1041.42 917.558 c 1,17,-1
 1043.65 773.706 l 1,18,19
 837.809 746.614 837.809 746.614 772.639 746.614 c 0,20,21
 592.881 746.614 592.881 746.614 484.405 819.372 c 2,22,-1
 433.688 853.389 l 1,23,24
 467.314 724.181 467.314 724.181 475.855 668.835 c 0,25,26
 521.058 410.796 521.058 410.796 517.816 -32.5811 c 1,27,-1
 351.633 -32.5811 l 1,28,29
 350.83 421.51 350.83 421.51 309.419 683.07 c 0,30,31
 259.983 991.074 259.983 991.074 120.063 1304.83 c 1,32,-1
 270.273 1403.72 l 1,33,34
 339.685 1205.85 339.685 1205.85 361.479 1138.27 c 2,0,-1
EndSplineSet
EndChar

StartChar: uni06F5
Encoding: 1781 1781 88
Width: 1212
VWidth: 2130
GlyphClass: 2
Flags: W
LayerCount: 2
Fore
SplineSet
611.896 324.535 m 4,0,1
 689.563 161.15 689.563 161.15 824.294 155.493 c 4,2,3
 1017.43 147.441 1017.43 147.441 963.051 459.272 c 5,4,5
 882.899 799.052 882.899 799.052 569.408 1071.99 c 5,6,7
 328.832 790.02 328.832 790.02 246.152 512.3 c 4,8,9
 140.739 166.648 140.739 166.648 373.989 156.14 c 4,10,11
 499.541 150.483 499.541 150.483 583.276 324.387 c 4,12,13
 597.714 354.371 597.714 354.371 611.896 324.535 c 4,0,1
358.767 -31.0947 m 4,14,15
 67.0215 -31.0918 67.0215 -31.0918 43.9756 255.779 c 4,16,17
 13.0586 646.92 13.0586 646.92 449.186 1175.86 c 5,18,19
 400.35 1218.26 l 5,20,21
 504.792 1363.11 l 5,22,23
 521.883 1353.63 521.883 1353.63 587.883 1293.48 c 4,24,25
 1185.2 749.03 1185.2 749.03 1130.48 260.02 c 4,26,27
 1096.95 -39.96 1096.95 -39.96 838.657 -30.5645 c 5,28,29
 655.591 -25.8047 655.591 -25.8047 601.7 123.808 c 6,30,-1
 596.718 137.64 l 5,31,-1
 591.729 123.811 l 6,32,33
 535.839 -31.0918 535.839 -31.0918 358.767 -31.0947 c 4,14,15
EndSplineSet
EndChar

StartChar: uni06F6
Encoding: 1782 1782 89
Width: 1210
VWidth: 2270
GlyphClass: 2
Flags: W
LayerCount: 2
Fore
SplineSet
223.017 -32.5029 m 5,0,1
 302.733 251.02 302.733 251.02 414.223 442.501 c 4,2,3
 523.301 629.467 523.301 629.467 613.093 696.246 c 5,4,5
 349.384 728.623 349.384 728.623 319.477 982.418 c 4,6,7
 296.799 1177.72 296.799 1177.72 414.876 1306.77 c 4,8,9
 516.225 1417.33 516.225 1417.33 692.844 1416.27 c 4,10,11
 816.315 1416.27 816.315 1416.27 909.678 1386.49 c 5,12,-1
 909.678 1227.86 l 5,13,14
 674.787 1293.83 674.787 1293.83 566.8 1214.16 c 4,15,16
 480.95 1151.6 480.95 1151.6 480.95 1015.7 c 4,17,18
 480.95 918.251 480.95 918.251 548.436 863.168 c 4,19,20
 627.061 798.164 627.061 798.164 794.355 825.008 c 4,21,22
 881.301 838.959 881.301 838.959 1029.67 900.268 c 5,23,-1
 1029.67 737.864 l 5,24,25
 768.206 653.247 768.206 653.247 599.191 422.442 c 4,26,27
 449.656 218.238 449.656 218.238 387.469 -32.5029 c 5,28,-1
 223.017 -32.5029 l 5,0,1
EndSplineSet
EndChar

StartChar: uniFB8F
Encoding: 64399 64399 104
Width: 2028
VWidth: 2291
GlyphClass: 2
Flags: W
AnchorPoint: "Anchor-10" 414.756 1200.86 basechar 0
AnchorPoint: "Anchor-7" 498.496 -268.828 basechar 0
LayerCount: 2
Fore
SplineSet
929.564 -0.648438 m 2,0,1
 493.381 0.900787 493.381 0.900787 355.904 69.7119 c 0,2,3
 89.1396 203.235 89.1396 203.235 91.3027 476.599 c 0,4,5
 91.7913 551.609 91.7913 551.609 106 604.127 c 0,6,7
 135.231 712.172 135.231 712.172 202.763 704.457 c 2,8,-1
 206.763 704 l 1,9,10
 191.182 632.774 191.182 632.774 184.763 575 c 0,11,12
 179.543 528.021 179.543 528.021 181.479 473.573 c 0,13,14
 189.725 241.623 189.725 241.623 549.649 193.732 c 0,15,16
 646.815 180.804 646.815 180.804 973.143 177.374 c 16,17,18
 1034.6 178.17 l 2,19,20
 1416.18 183.112 1416.18 183.112 1445.24 324.284 c 0,21,22
 1458.86 390.503 1458.86 390.503 1353.58 486.29 c 2,23,-1
 1103.97 713.394 l 2,24,25
 1009.64 799.219 1009.64 799.219 1005.87 891.632 c 0,26,27
 1001.01 1011.37 1001.01 1011.37 1126.71 1079.22 c 2,28,-1
 1842.08 1465.37 l 1,29,-1
 1843.26 1438.37 l 2,30,31
 1849.73 1290.37 1849.73 1290.37 1616.43 1166.23 c 2,32,-1
 1128.34 906.501 l 1,33,-1
 1780.91 274.111 l 2,34,35
 1880.08 178.01 1880.08 178.01 2004.76 178.341 c 2,36,-1
 2040.19 178.435 l 1,37,-1
 2040.19 -0.578125 l 1,38,-1
 1972.63 -0.578125 l 2,39,40
 1790.93 -0.578125 1790.93 -0.578125 1581.98 276.585 c 1,41,42
 1501.94 -2.68139 1501.94 -2.68139 1058.79 -1.10742 c 2,43,-1
 929.564 -0.648438 l 2,0,1
EndSplineSet
EndChar

StartChar: uniFB9F
Encoding: 64415 64415 112
Width: 1417
VWidth: 2290
GlyphClass: 2
Flags: W
AnchorPoint: "Anchor-10" 337.69 753.27 basechar 0
AnchorPoint: "Anchor-7" 237.648 -744.038 basechar 0
LayerCount: 2
Fore
SplineSet
1244.93 263.396 m 0,0,1
 1285.97 178.675 1285.97 178.675 1384.11 178.675 c 2,2,-1
 1428.89 178.675 l 1,3,-1
 1428.89 -0.337891 l 1,4,-1
 1386.39 -0.337891 l 2,5,6
 1295.2 -0.337891 1295.2 -0.337891 1247.93 76.959 c 1,7,8
 1264.48 2.45801 1264.48 2.45801 1252.51 -76.5889 c 0,9,10
 1188.77 -497.459 1188.77 -497.459 647.084 -507.362 c 0,11,12
 283.238 -514.027 283.238 -514.027 143.697 -313.568 c 0,13,14
 38.4463 -161.153 38.4463 -161.153 94.1885 81.3955 c 0,15,16
 112.149 159.546 112.149 159.546 144.933 247.351 c 0,17,18
 182.648 347.65 182.648 347.65 249.389 352.687 c 6,19,-1
 275.889 354.687 l 1,20,21
 141.71 33.0205 141.71 33.0205 217.178 -126.305 c 0,22,23
 319.242 -343.212 319.242 -343.212 642.852 -337.804 c 0,24,25
 1119.74 -329.834 1119.74 -329.834 1145.45 -7.68945 c 0,26,27
 1155.63 120.713 1155.63 120.713 1104.05 250.874 c 0,28,29
 1020.71 462.524 1020.71 462.524 1133.73 526.314 c 2,30,-1
 1175.33 549.794 l 1,31,32
 1219.6 316.991 1219.6 316.991 1244.93 263.396 c 0,0,1
EndSplineSet
EndChar

StartChar: uniFBE8
Encoding: 64488 64488 115
Width: 521
VWidth: 2290
GlyphClass: 2
Flags: W
AnchorPoint: "Anchor-10" 204.879 1056.31 basechar 0
AnchorPoint: "Anchor-7" 230.02 -216.43 basechar 0
LayerCount: 2
Fore
SplineSet
-3.17871 -0.179688 m 0,0,1
 -30.1113 -0.179688 l 1,2,-1
 -30.1113 178.938 l 1,3,-1
 11.0264 178.938 l 2,4,5
 328.424 178.934 328.424 178.934 299.11 339.296 c 0,6,7
 293.571 368.739 293.571 368.739 289.61 378.796 c 0,8,9
 258.962 456.614 258.962 456.614 237.758 532.146 c 0,10,11
 198.255 672.856 198.255 672.856 340.771 740.996 c 2,12,-1
 356.127 748.338 l 1,13,14
 418.609 560.438 418.609 560.438 429.219 390.911 c 0,15,16
 439.614 210.029 439.614 210.029 352.898 108.951 c 0,17,18
 255.618 -4.47559 255.618 -4.47559 -3.17871 -0.179688 c 0,0,1
EndSplineSet
EndChar

StartChar: uniFBE9
Encoding: 64489 64489 116
Width: 664
VWidth: 2294
GlyphClass: 2
Flags: W
AnchorPoint: "Anchor-10" 315.928 1005.08 basechar 0
AnchorPoint: "Anchor-7" 296.848 -145.025 basechar 0
LayerCount: 2
Fore
SplineSet
58.4766 0.705078 m 2,0,-1
 -10.4424 -0.294922 l 1,1,-1
 -10.4424 178.824 l 1,2,-1
 46.8154 178.824 l 2,3,4
 168.91 178.824 168.91 178.824 224.63 202.596 c 0,5,6
 322.251 244.254 322.251 244.254 301.63 334.596 c 2,7,-1
 280.63 426.596 l 2,8,9
 253.467 545.595 253.467 545.595 404.65 605.256 c 2,10,-1
 418.686 610.795 l 1,11,-1
 427.723 406.055 l 2,12,13
 433.319 279.283 433.319 279.283 470.63 246.596 c 0,14,15
 547.998 178.822 547.998 178.822 662.562 178.824 c 2,16,-1
 674.702 178.824 l 5,17,-1
 674.702 -0.294922 l 5,18,-1
 658.42 0.705078 l 2,19,20
 435.459 14.3987 435.459 14.3987 366.63 152.596 c 1,21,22
 263.183 3.67532 263.183 3.67532 58.4766 0.705078 c 2,0,-1
EndSplineSet
EndChar

StartChar: uniFE73
Encoding: 65139 65139 124
Width: 573
VWidth: 2186
GlyphClass: 2
Flags: W
AnchorPoint: "Anchor-10" 210.79 1279.5 basechar 0
AnchorPoint: "Anchor-7" 210.79 -111.5 basechar 0
LayerCount: 2
Fore
SplineSet
296.23 350.74 m 2,0,1
 296.23 286.506 296.23 286.506 352.468 230.268 c 0,2,3
 403.354 179.38 403.354 179.38 514.67 179.38 c 2,4,-1
 581.92 179.38 l 1,5,-1
 581.92 8.5 l 1,6,-1
 455.82 8.5 l 2,7,8
 309.266 8.5 309.266 8.5 214.633 103.133 c 0,9,10
 125.35 192.415 125.35 192.415 125.35 337.9 c 2,11,-1
 125.35 370.91 l 1,12,-1
 296.23 370.91 l 1,13,-1
 296.23 350.74 l 2,0,1
EndSplineSet
EndChar

StartChar: uniFE8E
Encoding: 65166 65166 150
Width: 547
VWidth: 2267
GlyphClass: 2
Flags: W
AnchorPoint: "Anchor-10" 205.257 1590.7 basechar 0
AnchorPoint: "Anchor-7" 241.297 -262.991 basechar 0
LayerCount: 2
Fore
SplineSet
180.65 428.075 m 6,0,-1
 128.739 1112.71 l 2,1,2
 108.944 1373.78 108.944 1373.78 268.693 1459.8 c 2,3,-1
 284.164 1468.13 l 1,4,-1
 283.738 441.686 l 2,5,6
 283.68 301.827 283.68 301.827 339.696 242.636 c 0,7,8
 399.906 179.018 399.906 179.018 521.01 179.018 c 2,9,-1
 555.195 179.018 l 1,10,-1
 555.195 -0.100586 l 1,11,-1
 499.969 -0.100586 l 2,12,13
 336.898 -0.100586 336.898 -0.100586 254.093 122.856 c 4,14,15
 197.411 207.019 197.411 207.019 180.65 428.075 c 6,0,-1
EndSplineSet
EndChar

StartChar: uniFEA2
Encoding: 65186 65186 170
Width: 1379
VWidth: 2287
GlyphClass: 2
Flags: W
AnchorPoint: "Anchor-10" 578.238 1196.58 basechar 0
AnchorPoint: "Anchor-7" 322.979 -884.647 basechar 0
LayerCount: 2
Fore
SplineSet
1065.4 470.472 m 1,0,1
 1145.19 486.909 1145.19 486.909 1232.34 500.498 c 1,2,-1
 1255.66 644.238 l 1,3,4
 1033.93 668.606 1033.93 668.606 919.979 733.771 c 0,5,6
 684.413 868.49 684.413 868.49 556.686 864.492 c 0,7,8
 416.805 860.865 416.805 860.865 354.686 732.492 c 0,9,10
 323.632 668.484 323.632 668.484 314.765 628.266 c 0,11,12
 285.622 496.083 285.622 496.083 314.72 494.434 c 2,13,-1
 328.499 493.652 l 1,14,15
 433.743 701.85 433.743 701.85 558.093 712.329 c 0,16,17
 665.485 721.377 665.485 721.377 820.339 640.491 c 0,18,19
 943.229 576.741 943.229 576.741 1002 570.537 c 1,20,21
 630.66 510.446 630.66 510.446 395.64 355 c 0,22,23
 52.0527 127.746 52.0527 127.746 94.5244 -268.803 c 0,24,25
 135.673 -646.133 135.673 -646.133 549 -728 c 0,26,27
 659.942 -749.251 659.942 -749.251 803.624 -743.727 c 0,28,29
 890.726 -740.478 890.726 -740.478 971.624 -722.727 c 0,30,31
 1250.22 -661.596 1250.22 -661.596 1270.62 -453.727 c 2,32,-1
 1273.36 -425.811 l 1,33,34
 1121.43 -535.325 1121.43 -535.325 893.624 -553.727 c 0,35,36
 546.986 -581 546.986 -581 401.202 -480.945 c 4,37,38
 238.895 -372.139 238.895 -372.139 235.731 -178.538 c 0,39,40
 231.737 65.0576 231.737 65.0576 427.64 216.984 c 0,41,42
 622.091 367.03 622.091 367.03 983.736 452.445 c 1,43,44
 1060.04 -0.638672 1060.04 -0.638672 1383.05 -0.638672 c 2,45,-1
 1441.12 -0.638672 l 1,46,-1
 1441.12 179.374 l 1,47,-1
 1376.29 179.374 l 2,48,49
 1111.89 179.374 1111.89 179.374 1065.4 470.472 c 1,0,1
EndSplineSet
EndChar

StartChar: uniFEA3
Encoding: 65187 65187 171
Width: 1191
VWidth: 2291
GlyphClass: 2
Flags: W
AnchorPoint: "Anchor-10" 287.645 1095.46 basechar 0
AnchorPoint: "Anchor-7" 494.345 -241.447 basechar 0
LayerCount: 2
Fore
SplineSet
643.196 143.902 m 0,0,1
 406.398 -0.436518 406.398 -0.436518 15.4951 -0.436523 c 2,2,-1
 -19.9795 -0.436523 l 1,3,-1
 -19.9795 179.682 l 1,4,-1
 6.12012 179.682 l 2,5,6
 341.484 179.682 341.484 179.682 612.274 281.986 c 0,7,8
 873.829 379.977 873.829 379.977 875.154 398.086 c 1,9,10
 778.118 412.258 778.118 412.258 595.314 497.726 c 0,11,12
 414.653 582.192 414.653 582.192 333.069 569.562 c 0,13,14
 203.908 549.567 203.908 549.567 103.475 350.887 c 1,15,16
 89.6953 351.668 l 2,17,18
 58.7856 353.42 58.7856 353.42 89.7412 485.5 c 0,19,20
 106.052 555.094 106.052 555.094 119.425 582.5 c 0,21,22
 187.476 720.038 187.476 720.038 334 735 c 0,23,24
 448.749 746.053 448.749 746.053 709.955 604.006 c 0,25,26
 849.782 527.133 849.782 527.133 1100.83 481.405 c 5,27,-1
 1077.51 340.846 l 5,28,29
 989.281 354.604 989.281 354.604 643.196 143.902 c 0,0,1
EndSplineSet
EndChar

StartChar: uniFEA4
Encoding: 65188 65188 172
Width: 1215
VWidth: 2291
GlyphClass: 2
Flags: W
AnchorPoint: "Anchor-10" 364.224 1117.15 basechar 0
AnchorPoint: "Anchor-7" 542.304 -249.39 basechar 0
LayerCount: 2
Fore
SplineSet
846.27 262.397 m 1,0,1
 857.043 179.173 857.043 179.173 1018.58 179.173 c 2,2,-1
 1225.5 179.173 l 1,3,-1
 1225.5 -0.900391 l 1,4,-1
 995.898 -0.900391 l 2,5,6
 822.766 -0.900391 822.766 -0.900391 755.76 213.056 c 5,7,8
 699.478 178.479 699.478 178.479 643.196 143.902 c 0,9,10
 406.398 -0.436523 406.398 -0.436523 15.4951 -0.436523 c 2,11,-1
 -19.9795 -0.436523 l 1,12,-1
 -19.9795 179.682 l 1,13,-1
 17.1201 179.682 l 2,14,15
 341.484 179.682 341.484 179.682 612.274 281.986 c 0,16,17
 873.829 379.977 873.829 379.977 875.154 398.086 c 1,18,19
 751.497 416.146 751.497 416.146 595.314 497.726 c 0,20,21
 440.461 578.611 440.461 578.611 333.069 569.562 c 0,22,23
 208.719 559.084 208.719 559.084 103.475 350.887 c 1,24,-1
 89.6953 351.668 l 2,25,26
 60.5022 353.323 60.5022 353.323 89.7412 485.5 c 0,27,28
 104.728 553.25 104.728 553.25 130.761 593.916 c 0,29,30
 212.573 721.716 212.573 721.716 347.761 726.916 c 0,31,32
 450.494 730.358 450.494 730.358 694.955 601.006 c 0,33,34
 844.872 521.68 844.872 521.68 1113.83 481.405 c 1,35,-1
 1090.51 340.846 l 1,36,37
 1016.3 348.932 1016.3 348.932 846.27 262.397 c 1,0,1
EndSplineSet
EndChar

StartChar: uniFEAA
Encoding: 65194 65194 178
Width: 1041
VWidth: 2285
GlyphClass: 2
Flags: W
AnchorPoint: "Anchor-10" 452.035 1171.14 basechar 0
AnchorPoint: "Anchor-7" 357.176 -276.449 basechar 0
LayerCount: 2
Fore
SplineSet
678.834 341.957 m 6,0,-1
 548.91 545.903 l 6,1,2
 395.347 786.957 395.347 786.957 534.07 860.615 c 6,3,-1
 554.077 871.238 l 5,4,-1
 790.983 408.345 l 5,5,6
 920.772 183.069 920.772 183.069 1022.75 178.703 c 2,7,-1
 1033.26 178.253 l 1,8,-1
 1063.29 178.253 l 1,9,-1
 1063.29 -0.759766 l 1,10,-1
 1038.69 -0.759766 l 2,11,12
 889.634 -0.759766 889.634 -0.759766 776.312 151.115 c 5,13,14
 613.554 -37.2861 613.554 -37.2861 323.749 -30.3945 c 4,15,16
 304.735 -29.9424 304.735 -29.9424 286.119 -28.8184 c 4,17,18
 60.6172 -15.2041 60.6172 -15.2041 60.6172 177.13 c 6,19,-1
 60.6172 204.835 l 5,20,21
 178.541 154.547 178.541 154.547 334.35 150.866 c 4,22,23
 484.065 147.365 484.065 147.365 627.912 214.715 c 4,24,25
 699.788 248.165 699.788 248.165 687.271 316.475 c 4,26,27
 683.964 333.904 683.964 333.904 678.834 341.957 c 6,0,-1
EndSplineSet
EndChar

StartChar: uniFEAE
Encoding: 65198 65198 182
Width: 954
VWidth: 2314
GlyphClass: 2
Flags: W
AnchorPoint: "Anchor-10" 489.796 864.783 basechar 0
AnchorPoint: "Anchor-7" 461.097 -661.14 basechar 0
LayerCount: 2
Fore
SplineSet
771.361 278.335 m 1,0,1
 779.428 178.822 779.428 178.822 922.727 178.822 c 2,2,-1
 962.532 178.822 l 1,3,-1
 962.532 -0.294922 l 1,4,5
 903.973 -0.296883 903.973 -0.296883 903.95 -0.287109 c 2,6,7
 812.713 -0.274942 812.713 -0.274942 765.573 58.1836 c 5,8,9
 685.494 -419.763 685.494 -419.763 288 -435 c 4,10,11
 132.651 -440.962 132.651 -440.962 5.31445 -321.4 c 5,12,13
 686.413 -244.851 686.413 -244.851 657.573 122.186 c 4,14,15
 653.573 173.185 653.573 173.185 609.717 281.783 c 0,16,17
 550.379 430.242 550.379 430.242 656.686 511.224 c 2,18,-1
 694.256 539.844 l 1,19,20
 741.59 401.333 741.59 401.333 771.361 278.335 c 1,0,1
EndSplineSet
PairPos2: "'kern' Horizontal Kerning lookup 15-1" uni06CC dx=-141 dy=0 dh=-141 dv=0 dx=0 dy=0 dh=0 dv=0
PairPos2: "'kern' Horizontal Kerning lookup 15-1" uniFEEB dx=-213 dy=0 dh=-213 dv=0 dx=0 dy=0 dh=0 dv=0
PairPos2: "'kern' Horizontal Kerning lookup 15-1" uniFB58 dx=99 dy=0 dh=99 dv=0 dx=0 dy=0 dh=0 dv=0
PairPos2: "'kern' Horizontal Kerning lookup 15-1" uniFEF3 dx=99 dy=0 dh=99 dv=0 dx=0 dy=0 dh=0 dv=0
PairPos2: "'kern' Horizontal Kerning lookup 15-1" uniFBFE dx=99 dy=0 dh=99 dv=0 dx=0 dy=0 dh=0 dv=0
PairPos2: "'kern' Horizontal Kerning lookup 15-1" uniFEDF dx=-213 dy=0 dh=-213 dv=0 dx=0 dy=0 dh=0 dv=0
PairPos2: "'kern' Horizontal Kerning lookup 15-1" uniFB90 dx=-213 dy=0 dh=-213 dv=0 dx=0 dy=0 dh=0 dv=0
PairPos2: "'kern' Horizontal Kerning lookup 15-1" uni06A9 dx=-213 dy=0 dh=-213 dv=0 dx=0 dy=0 dh=0 dv=0
PairPos2: "'kern' Horizontal Kerning lookup 15-1" uni0649 dx=-141 dy=0 dh=-141 dv=0 dx=0 dy=0 dh=0 dv=0
PairPos2: "'kern' Horizontal Kerning lookup 15-1" uni0647 dx=-213 dy=0 dh=-213 dv=0 dx=0 dy=0 dh=0 dv=0
PairPos2: "'kern' Horizontal Kerning lookup 15-1" uniFEE7 dx=-213 dy=0 dh=-213 dv=0 dx=0 dy=0 dh=0 dv=0
PairPos2: "'kern' Horizontal Kerning lookup 15-1" uniFEE3 dx=-213 dy=0 dh=-213 dv=0 dx=0 dy=0 dh=0 dv=0
PairPos2: "'kern' Horizontal Kerning lookup 15-1" uni0645 dx=-213 dy=0 dh=-213 dv=0 dx=0 dy=0 dh=0 dv=0
PairPos2: "'kern' Horizontal Kerning lookup 15-1" uniFEDB dx=-213 dy=0 dh=-213 dv=0 dx=0 dy=0 dh=0 dv=0
PairPos2: "'kern' Horizontal Kerning lookup 15-1" uniFED7 dx=-213 dy=0 dh=-213 dv=0 dx=0 dy=0 dh=0 dv=0
PairPos2: "'kern' Horizontal Kerning lookup 15-1" uniFED3 dx=-213 dy=0 dh=-213 dv=0 dx=0 dy=0 dh=0 dv=0
PairPos2: "'kern' Horizontal Kerning lookup 15-1" uni0641 dx=-213 dy=0 dh=-213 dv=0 dx=0 dy=0 dh=0 dv=0
PairPos2: "'kern' Horizontal Kerning lookup 15-1" uniFECF dx=-213 dy=0 dh=-213 dv=0 dx=0 dy=0 dh=0 dv=0
PairPos2: "'kern' Horizontal Kerning lookup 15-1" uniFECB dx=-213 dy=0 dh=-213 dv=0 dx=0 dy=0 dh=0 dv=0
PairPos2: "'kern' Horizontal Kerning lookup 15-1" uniFEC7 dx=-213 dy=0 dh=-213 dv=0 dx=0 dy=0 dh=0 dv=0
PairPos2: "'kern' Horizontal Kerning lookup 15-1" uni0638 dx=-213 dy=0 dh=-213 dv=0 dx=0 dy=0 dh=0 dv=0
PairPos2: "'kern' Horizontal Kerning lookup 15-1" uniFEC3 dx=-213 dy=0 dh=-213 dv=0 dx=0 dy=0 dh=0 dv=0
PairPos2: "'kern' Horizontal Kerning lookup 15-1" uni0637 dx=-213 dy=0 dh=-213 dv=0 dx=0 dy=0 dh=0 dv=0
PairPos2: "'kern' Horizontal Kerning lookup 15-1" uniFEBF dx=-213 dy=0 dh=-213 dv=0 dx=0 dy=0 dh=0 dv=0
PairPos2: "'kern' Horizontal Kerning lookup 15-1" uni0636 dx=-213 dy=0 dh=-213 dv=0 dx=0 dy=0 dh=0 dv=0
PairPos2: "'kern' Horizontal Kerning lookup 15-1" uniFEBB dx=-213 dy=0 dh=-213 dv=0 dx=0 dy=0 dh=0 dv=0
PairPos2: "'kern' Horizontal Kerning lookup 15-1" uni0635 dx=-213 dy=0 dh=-213 dv=0 dx=0 dy=0 dh=0 dv=0
PairPos2: "'kern' Horizontal Kerning lookup 15-1" uniFEB7 dx=-213 dy=0 dh=-213 dv=0 dx=0 dy=0 dh=0 dv=0
PairPos2: "'kern' Horizontal Kerning lookup 15-1" uni0634 dx=-213 dy=0 dh=-213 dv=0 dx=0 dy=0 dh=0 dv=0
PairPos2: "'kern' Horizontal Kerning lookup 15-1" uniFEB3 dx=-213 dy=0 dh=-213 dv=0 dx=0 dy=0 dh=0 dv=0
PairPos2: "'kern' Horizontal Kerning lookup 15-1" uni0633 dx=-213 dy=0 dh=-213 dv=0 dx=0 dy=0 dh=0 dv=0
PairPos2: "'kern' Horizontal Kerning lookup 15-1" uni0630 dx=-213 dy=0 dh=-213 dv=0 dx=0 dy=0 dh=0 dv=0
PairPos2: "'kern' Horizontal Kerning lookup 15-1" uni062F dx=-213 dy=0 dh=-213 dv=0 dx=0 dy=0 dh=0 dv=0
PairPos2: "'kern' Horizontal Kerning lookup 15-1" uniFEA7 dx=-213 dy=0 dh=-213 dv=0 dx=0 dy=0 dh=0 dv=0
PairPos2: "'kern' Horizontal Kerning lookup 15-1" uniFEA3 dx=-213 dy=0 dh=-213 dv=0 dx=0 dy=0 dh=0 dv=0
PairPos2: "'kern' Horizontal Kerning lookup 15-1" uniFE9F dx=-213 dy=0 dh=-213 dv=0 dx=0 dy=0 dh=0 dv=0
PairPos2: "'kern' Horizontal Kerning lookup 15-1" uniFE9B dx=-213 dy=0 dh=-213 dv=0 dx=0 dy=0 dh=0 dv=0
PairPos2: "'kern' Horizontal Kerning lookup 15-1" uni062B dx=-213 dy=0 dh=-213 dv=0 dx=0 dy=0 dh=0 dv=0
PairPos2: "'kern' Horizontal Kerning lookup 15-1" uniFE97 dx=-213 dy=0 dh=-213 dv=0 dx=0 dy=0 dh=0 dv=0
PairPos2: "'kern' Horizontal Kerning lookup 15-1" uni062A dx=-213 dy=0 dh=-213 dv=0 dx=0 dy=0 dh=0 dv=0
PairPos2: "'kern' Horizontal Kerning lookup 15-1" uni0629 dx=-213 dy=0 dh=-213 dv=0 dx=0 dy=0 dh=0 dv=0
PairPos2: "'kern' Horizontal Kerning lookup 15-1" uni0628 dx=-213 dy=0 dh=-213 dv=0 dx=0 dy=0 dh=0 dv=0
PairPos2: "'kern' Horizontal Kerning lookup 15-1" uni0627 dx=-241 dy=0 dh=-241 dv=0 dx=0 dy=0 dh=0 dv=0
PairPos2: "'kern' Horizontal Kerning lookup 15-1" uni0622 dx=-241 dy=0 dh=-241 dv=0 dx=0 dy=0 dh=0 dv=0
PairPos2: "'kern' Horizontal Kerning lookup 15-1" uniFB94 dx=-213 dy=0 dh=-213 dv=0 dx=0 dy=0 dh=0 dv=0
PairPos2: "'kern' Horizontal Kerning lookup 15-1" afii57509 dx=-213 dy=0 dh=-213 dv=0 dx=0 dy=0 dh=0 dv=0
PairPos2: "'kern' Horizontal Kerning lookup 15-1" uniFB56 dx=-213 dy=0 dh=-213 dv=0 dx=0 dy=0 dh=0 dv=0
PairPos2: "'kern' Horizontal Kerning lookup 15-1" afii57506 dx=-213 dy=0 dh=-213 dv=0 dx=0 dy=0 dh=0 dv=0
EndChar

StartChar: uniFEB2
Encoding: 65202 65202 186
Width: 2445
VWidth: 2290
GlyphClass: 2
Flags: W
AnchorPoint: "Anchor-10" 560.867 931.321 basechar 0
AnchorPoint: "Anchor-7" 385.967 -746.659 basechar 0
LayerCount: 2
Fore
SplineSet
1246.93 263.396 m 8,0,1
 1298.08 170.065 1298.08 170.065 1403.97 171.82 c 2,2,-1
 1442.16 172.453 l 0,3,4
 1552.5 171.161 1552.5 171.161 1600.56 336.716 c 2,5,-1
 1624.88 420.494 l 2,6,7
 1650.96 510.329 1650.96 510.329 1728.18 510.329 c 2,8,-1
 1740.34 510.329 l 1,9,-1
 1734.04 401.102 l 2,10,11
 1720.1 159.395 1720.1 159.395 1915.81 169.605 c 0,12,13
 2056.28 176.945 2056.28 176.945 2064.88 366.865 c 2,14,-1
 2067.15 416.975 l 2,15,16
 2074.78 585.515 2074.78 585.515 2168.99 585.515 c 2,17,-1
 2186.54 585.515 l 1,18,-1
 2186.04 400.605 l 2,19,20
 2185.7 275.285 2185.7 275.285 2269 214.506 c 0,21,22
 2313.23 181.527 2313.23 181.527 2418.18 181.527 c 2,23,-1
 2455.48 181.527 l 1,24,-1
 2455.48 1.45508 l 1,25,-1
 2424.7 1.45508 l 2,26,27
 2183.03 1.45508 2183.03 1.45508 2131.87 167.479 c 1,28,29
 2063.78 7.68359 2063.78 7.68359 1893.95 3.70605 c 8,30,31
 1826.15 2.20703 1826.15 2.20703 1792.11 17.915 c 0,32,33
 1700.82 60.7354 1700.82 60.7354 1658.87 179.479 c 1,34,35
 1594.02 1.03906 1594.02 1.03906 1438.77 1.46094 c 0,36,-1
 1396.26 1.46094 l 2,37,38
 1305.07 1.46094 1305.07 1.46094 1249.93 76.959 c 1,39,40
 1266.48 2.45801 1266.48 2.45801 1254.51 -76.5889 c 0,41,42
 1190.77 -497.459 1190.77 -497.459 649.084 -507.362 c 0,43,44
 285.238 -514.027 285.238 -514.027 145.697 -313.568 c 0,45,46
 39.1037 -159.209 39.1037 -159.209 96.1885 81.3955 c 0,47,48
 117.271 170.257 117.271 170.257 146.933 247.351 c 0,49,50
 186.112 352.687 186.112 352.687 253 352.687 c 6,51,-1
 265.184 352.687 l 1,52,53
 140.69 39.3467 140.69 39.3467 219.178 -126.305 c 0,54,55
 321.242 -343.212 321.242 -343.212 644.852 -337.804 c 0,56,57
 1121.74 -329.834 1121.74 -329.834 1147.45 -7.68945 c 0,58,59
 1157.63 120.713 1157.63 120.713 1106.05 250.874 c 0,60,61
 1023.9 459.507 1023.9 459.507 1135.73 525.314 c 2,62,-1
 1177.33 549.794 l 1,63,64
 1223.75 305.702 1223.75 305.702 1246.93 263.396 c 8,0,1
EndSplineSet
EndChar

StartChar: uniFEB3
Encoding: 65203 65203 187
Width: 1370
VWidth: 2290
GlyphClass: 2
Flags: W
AnchorPoint: "Anchor-10" 640.331 989.511 basechar 0
AnchorPoint: "Anchor-7" 619.53 -222.6 basechar 0
LayerCount: 2
Fore
SplineSet
999.16 180.319 m 4,0,1
 1128.21 177.165 1128.21 177.165 1159.17 262.148 c 4,2,3
 1163.33 273.461 1163.33 273.461 1136.6 371.979 c 4,4,5
 1094.57 526.83 1094.57 526.83 1093.85 532.688 c 4,6,7
 1053.44 676.191 1053.44 676.191 1190.09 741.507 c 6,8,-1
 1205.45 748.849 l 5,9,10
 1267.93 560.948 1267.93 560.948 1278.54 391.422 c 4,11,12
 1288.94 210.54 1288.94 210.54 1202.22 109.462 c 4,13,14
 1108.92 1.57812 1108.92 1.57812 982.49 0.331055 c 28,15,16
 920.82 -0.204102 920.82 -0.204102 886.502 16.2607 c 4,17,18
 790.573 62.2861 790.573 62.2861 753.155 170.319 c 5,19,20
 693.635 -0.407227 693.635 -0.407227 516.165 -0.193359 c 4,21,22
 347.166 0 347.166 0 284.155 164.319 c 1,23,24
 249.734 84.0039 249.734 84.0039 189.653 43.3076 c 0,25,26
 125.423 -0.19922 125.423 -0.19922 27.8633 -0.199219 c 2,27,-1
 -10.3438 -0.199219 l 1,28,-1
 -10.3438 178.92 l 1,29,-1
 17.4814 178.92 l 2,30,31
 220.435 178.92 220.435 178.92 240.471 308.521 c 2,32,-1
 251.462 379.62 l 2,33,34
 271.085 506.555 271.085 506.555 359.996 506.555 c 2,35,-1
 377.463 506.555 l 1,36,-1
 365.447 399.614 l 2,37,38
 339.985 173 339.985 173 519.555 170.799 c 4,39,40
 659.599 169.167 659.599 169.167 695.957 323.342 c 6,41,-1
 709.979 382.8 l 6,42,43
 739.163 506.555 739.163 506.555 821.276 506.555 c 6,44,-1
 833.435 506.555 l 5,45,-1
 827.432 436.947 l 6,46,47
 805.696 184.907 805.696 184.907 999.16 180.319 c 4,0,1
EndSplineSet
EndChar

StartChar: uniFEB4
Encoding: 65204 65204 188
Width: 1546
VWidth: 2295
GlyphClass: 2
Flags: W
AnchorPoint: "Anchor-10" 606.883 988.88 basechar 0
AnchorPoint: "Anchor-7" 705.463 -239.13 basechar 0
LayerCount: 2
Fore
SplineSet
1013.56 167.621 m 4,0,1
 1143 174.398 1143 174.398 1151.63 364.881 c 6,2,-1
 1153.9 414.99 l 6,3,4
 1161.54 583.531 1161.54 583.531 1255.74 583.53 c 6,5,-1
 1284.29 583.53 l 5,6,-1
 1283.79 398.621 l 6,7,8
 1283.45 273.347 1283.45 273.347 1366.75 212.521 c 4,9,10
 1410.98 179.543 1410.98 179.543 1515.93 179.543 c 6,11,-1
 1553.23 179.543 l 5,12,-1
 1553.23 -0.529297 l 5,13,-1
 1522.45 -0.529297 l 6,14,15
 1280.78 -0.529297 1280.78 -0.529297 1229.62 165.495 c 5,16,17
 1161.53 5.69922 1161.53 5.69922 991.7 1.72168 c 12,18,19
 923.894 0.222656 923.894 0.222656 889.854 15.9307 c 4,20,21
 798.566 58.751 798.566 58.751 756.619 177.495 c 5,22,23
 691.772 -0.944727 691.772 -0.944727 536.518 -0.523438 c 4,24,25
 343.619 0 343.619 0 280.619 168.495 c 5,26,27
 236.672 80.6006 236.672 80.6006 183.005 42.9766 c 4,28,29
 125.896 2.93668 125.896 2.93668 29.2148 0.470703 c 6,30,-1
 -9.99121 -0.529297 l 5,31,-1
 -9.99121 178.589 l 5,32,-1
 17.833 178.589 l 6,33,34
 216.386 178.589 216.386 178.589 240.823 317.231 c 6,35,-1
 258.114 415.329 l 6,36,37
 274.509 508.345 274.509 508.345 362.068 508.345 c 6,38,-1
 379.535 508.345 l 5,39,-1
 365.8 402.323 l 6,40,41
 336.071 172.844 336.071 172.844 539.907 170.469 c 4,42,43
 650.248 169.177 650.248 169.177 698.31 334.731 c 6,44,-1
 722.632 418.51 l 6,45,46
 748.712 508.345 748.712 508.345 825.928 508.345 c 6,47,-1
 838.086 508.345 l 5,48,-1
 831.784 399.117 l 6,49,50
 817.838 157.409 817.838 157.409 1013.56 167.621 c 4,0,1
EndSplineSet
EndChar

StartChar: uniFEBA
Encoding: 65210 65210 194
Width: 2563
VWidth: 2291
GlyphClass: 2
Flags: W
AnchorPoint: "Anchor-10" 593.066 895.21 basechar 0
AnchorPoint: "Anchor-7" 362.286 -719.091 basechar 0
LayerCount: 2
Fore
SplineSet
1492.06 179.099 m 1,0,-1
 1681.56 179.099 l 2,1,2
 1845.28 179.099 1845.28 179.099 1914.66 191.146 c 0,3,4
 2205.77 238.552 2205.77 238.552 2189.87 398.891 c 0,5,6
 2170.33 592.102 2170.33 592.102 1997.87 571.891 c 0,7,8
 1898.49 560.244 1898.49 560.244 1735.17 424.466 c 0,9,10
 1597.66 310.136 1597.66 310.136 1492.06 179.099 c 1,0,-1
1244.93 263.396 m 24,11,12
 1291.53 194.825 1291.53 194.825 1362.06 224.647 c 1,13,14
 1491.8 384.172 1491.8 384.172 1707.23 552.403 c 0,15,16
 1877.59 686.688 1877.59 686.688 2004.23 700.403 c 0,17,18
 2268.04 729.365 2268.04 729.365 2309.18 433.466 c 0,19,20
 2320.26 353.702 2320.26 353.702 2302.23 288 c 1,21,22
 2389.12 178.833 2389.12 178.833 2527.07 178.833 c 2,23,-1
 2572.96 178.833 l 1,24,-1
 2572.96 -0.180664 l 1,25,-1
 2504.39 -0.180664 l 2,26,27
 2262.41 -0.180664 2262.41 -0.180664 2198.96 135 c 1,28,29
 2163.89 106.729 2163.89 106.729 2118.07 83.6475 c 0,30,31
 1949.52 -1.24625 1949.52 -1.24625 1742.81 -0.710938 c 2,32,-1
 1468.28 0 l 2,33,34
 1304.31 0.424626 1304.31 0.424626 1247.93 76.959 c 1,35,36
 1264.48 2.45801 1264.48 2.45801 1252.51 -76.5889 c 0,37,38
 1188.77 -497.459 1188.77 -497.459 647.084 -507.362 c 0,39,40
 283.238 -514.027 283.238 -514.027 143.697 -313.568 c 0,41,42
 39.5008 -162.68 39.5008 -162.68 94.1885 81.3955 c 0,43,44
 112.599 163.562 112.599 163.562 144.933 247.351 c 0,45,46
 185.582 352.687 185.582 352.687 260 352.687 c 2,47,-1
 273.924 352.687 l 1,48,49
 142.555 34.5537 142.555 34.5537 217.178 -126.305 c 0,50,51
 319.242 -343.212 319.242 -343.212 642.852 -337.804 c 0,52,53
 1119.74 -329.834 1119.74 -329.834 1145.45 -7.68945 c 0,54,55
 1155.63 120.713 1155.63 120.713 1104.05 250.874 c 0,56,57
 1021.9 459.507 1021.9 459.507 1133.73 525.314 c 2,58,-1
 1175.33 549.794 l 1,59,60
 1223.24 297.872 1223.24 297.872 1244.93 263.396 c 24,11,12
EndSplineSet
EndChar

StartChar: uniFEBB
Encoding: 65211 65211 195
Width: 1603
VWidth: 2291
GlyphClass: 2
Flags: W
AnchorPoint: "Anchor-10" 535.518 1113.87 basechar 0
AnchorPoint: "Anchor-7" 661.658 -288.295 basechar 0
LayerCount: 2
Fore
SplineSet
680.833 179.695 m 5,0,-1
 870.335 179.695 l 6,1,2
 1034.05 179.695 1034.05 179.695 1103.43 191.743 c 4,3,4
 1394.54 239.148 1394.54 239.148 1378.64 399.487 c 4,5,6
 1359.1 592.698 1359.1 592.698 1186.64 572.487 c 4,7,8
 1087.26 560.84 1087.26 560.84 923.948 425.062 c 4,9,10
 786.434 310.732 786.434 310.732 680.833 179.695 c 5,0,-1
931.585 -0.114258 m 2,11,-1
 657.053 0.59668 l 2,12,13
 422.098 1.20513 422.098 1.20513 321.08 165.445 c 1,14,15
 198.718 -0.114258 198.718 -0.114258 18.9697 -0.114258 c 2,16,-1
 -10.3047 -0.114258 l 1,17,-1
 -10.3047 179.004 l 1,18,-1
 7.58789 179.004 l 2,19,20
 113.794 179.004 113.794 179.004 174.838 215.244 c 0,21,22
 248.087 258.734 248.087 258.734 242.345 319.073 c 2,23,-1
 237.919 365.585 l 2,24,25
 219.154 562.788 219.154 562.788 367.99 562.788 c 2,26,-1
 377.269 562.788 l 1,27,-1
 384.178 385.926 l 2,28,29
 389.327 254.108 389.327 254.108 550.838 225.244 c 1,30,31
 682.579 385.773 682.579 385.773 896 553 c 0,32,33
 1066.36 687.284 1066.36 687.284 1193 701 c 0,34,35
 1456.82 729.96 1456.82 729.96 1497.95 434.062 c 0,36,37
 1530.89 197.104 1530.89 197.104 1306.84 84.2441 c 0,38,39
 1138.3 -0.649575 1138.3 -0.649575 931.585 -0.114258 c 2,11,-1
EndSplineSet
EndChar

StartChar: uniFEBC
Encoding: 65212 65212 196
Width: 1736
VWidth: 2291
GlyphClass: 2
Flags: W
AnchorPoint: "Anchor-10" 563.178 1182.7 basechar 0
AnchorPoint: "Anchor-7" 654.338 -295.466 basechar 0
LayerCount: 2
Fore
SplineSet
680.833 179.695 m 1,0,-1
 870.335 179.695 l 2,1,2
 1034.05 179.695 1034.05 179.695 1103.43 191.743 c 0,3,4
 1394.54 239.148 1394.54 239.148 1378.64 399.487 c 0,5,6
 1359.1 592.698 1359.1 592.698 1186.64 572.487 c 0,7,8
 1087.26 560.84 1087.26 560.84 923.948 425.062 c 0,9,10
 786.434 310.732 786.434 310.732 680.833 179.695 c 1,0,-1
1482.66 262.952 m 1,11,12
 1549.74 178.677 1549.74 178.677 1700.29 178.677 c 2,13,-1
 1746.18 178.677 l 1,14,-1
 1746.18 -0.335938 l 1,15,-1
 1677.6 -0.335938 l 2,16,17
 1470.27 -0.335938 1470.27 -0.335938 1401.15 146.952 c 1,18,19
 1361.7 111.878 1361.7 111.878 1306.84 84.2441 c 0,20,21
 1138.3 -0.649575 1138.3 -0.649575 931.585 -0.114258 c 2,22,-1
 657.053 0.59668 l 2,23,24
 422.098 1.20513 422.098 1.20513 321.08 165.445 c 1,25,26
 198.718 -0.114258 198.718 -0.114258 18.9697 -0.114258 c 2,27,-1
 -10.3047 -0.114258 l 1,28,-1
 -10.3047 179.004 l 1,29,-1
 7.58789 179.004 l 2,30,31
 113.794 179.004 113.794 179.004 174.838 215.244 c 0,32,33
 248.087 258.734 248.087 258.734 242.345 319.073 c 2,34,-1
 237.919 365.585 l 2,35,36
 219.154 562.788 219.154 562.788 367.99 562.788 c 2,37,-1
 377.269 562.788 l 1,38,-1
 384.178 385.926 l 2,39,40
 389.327 254.108 389.327 254.108 550.838 225.244 c 5,41,42
 681.579 384.773 681.579 384.773 896 553 c 0,43,44
 1066.36 687.284 1066.36 687.284 1193 701 c 0,45,46
 1456.81 729.96 1456.81 729.96 1497.95 434.062 c 0,47,48
 1511.25 338.392 1511.25 338.392 1482.66 262.952 c 1,11,12
EndSplineSet
EndChar

StartChar: uniFEC2
Encoding: 65218 65218 202
Width: 1527
VWidth: 2291
GlyphClass: 2
Flags: W
AnchorPoint: "Anchor-7" 649.472 -282.627 basechar 0
AnchorPoint: "Anchor-10" 239.684 1564.11 basechar 0
LayerCount: 2
Fore
SplineSet
479.833 179.695 m 1,0,-1
 669.335 179.695 l 2,1,2
 833.048 179.695 833.048 179.695 902.434 191.743 c 0,3,4
 1193.54 239.148 1193.54 239.148 1177.64 399.487 c 0,5,6
 1158.1 592.698 1158.1 592.698 985.64 572.487 c 0,7,8
 886.26 560.84 886.26 560.84 722.947 425.062 c 0,9,10
 585.434 310.732 585.434 310.732 479.833 179.695 c 1,0,-1
253.422 178.992 m 1,11,-1
 189.337 1110.67 l 2,12,13
 171.4 1371.44 171.4 1371.44 329.795 1458.1 c 2,14,-1
 349.755 1469.02 l 1,15,-1
 349.049 225.438 l 1,16,17
 478.844 383.401 478.844 383.401 695 553 c 0,18,19
 865.355 687.284 865.355 687.284 992 701 c 0,20,21
 1255.81 729.96 1255.81 729.96 1296.95 434.062 c 0,22,23
 1307.75 356.358 1307.75 356.358 1290.92 292 c 1,24,25
 1380.54 179.416 1380.54 179.416 1491.67 179.416 c 2,26,-1
 1537.56 179.416 l 1,27,-1
 1537.56 0.40332 l 1,28,-1
 1494.43 0.40332 l 2,29,30
 1318.97 0.40332 1318.97 0.40332 1220.94 172 c 1,31,32
 1154.08 103.8 1154.08 103.8 1066.94 66 c 0,33,34
 913.442 -0.587791 913.442 -0.587791 730.585 -0.114258 c 2,35,-1
 456.053 0.59668 l 2,36,-1
 232.891 0.189453 l 2,37,38
 59.3203 -0.12728 59.3203 -0.12728 59.3203 145.958 c 2,39,-1
 59.3203 178.991 l 1,40,-1
 253.422 178.992 l 1,11,-1
EndSplineSet
EndChar

StartChar: uniFEC3
Encoding: 65219 65219 203
Width: 1322
VWidth: 2291
GlyphClass: 2
Flags: W
AnchorPoint: "Anchor-10" 211.85 1586.07 basechar 0
AnchorPoint: "Anchor-7" 482.85 -296.406 basechar 0
LayerCount: 2
Fore
SplineSet
404.833 179.694 m 1,0,-1
 594.335 179.694 l 2,1,2
 758.048 179.694 758.048 179.694 827.434 191.742 c 0,3,4
 1118.54 239.147 1118.54 239.147 1102.64 399.486 c 0,5,6
 1083.1 592.697 1083.1 592.697 910.64 572.486 c 0,7,8
 811.261 560.84 811.261 560.84 647.948 425.062 c 0,9,10
 510.434 310.731 510.434 310.731 404.833 179.694 c 1,0,-1
381.053 0.59668 m 2,11,-1
 -20.6797 -0.126953 l 1,12,-1
 -20.6797 178.991 l 1,13,-1
 178.422 178.992 l 1,14,-1
 114.337 1110.67 l 2,15,16
 96.3999 1371.44 96.3999 1371.44 254.795 1458.1 c 2,17,-1
 274.755 1469.02 l 1,18,-1
 274.049 225.438 l 1,19,20
 403.844 383.401 403.844 383.401 620 553 c 0,21,22
 790.355 687.284 790.355 687.284 917 701 c 0,23,24
 1180.81 729.96 1180.81 729.96 1221.95 434.062 c 0,25,26
 1254.89 197.104 1254.89 197.104 1030.84 84.2441 c 0,27,28
 862.304 -0.649585 862.304 -0.649585 655.585 -0.114258 c 2,29,-1
 381.053 0.59668 l 2,11,-1
EndSplineSet
EndChar

StartChar: uniFEC4
Encoding: 65220 65220 204
Width: 1457
VWidth: 2291
GlyphClass: 2
Flags: W
AnchorPoint: "Anchor-10" 199.939 1571.75 basechar 0
AnchorPoint: "Anchor-7" 537.047 -266.727 basechar 0
LayerCount: 2
Fore
SplineSet
393.94 183.446 m 1,0,-1
 583.442 183.446 l 2,1,2
 747.155 183.446 747.155 183.446 816.541 195.494 c 0,3,4
 1107.65 242.899 1107.65 242.899 1091.75 403.238 c 0,5,6
 1072.21 596.449 1072.21 596.449 899.747 576.238 c 0,7,8
 800.367 564.592 800.367 564.592 637.055 428.813 c 0,9,10
 499.541 314.483 499.541 314.483 393.94 183.446 c 1,0,-1
183.422 178.992 m 1,11,-1
 119.337 1110.67 l 2,12,13
 101.4 1371.44 101.4 1371.44 259.795 1458.1 c 2,14,-1
 279.755 1469.02 l 1,15,-1
 279.049 225.438 l 1,16,17
 407.844 383.401 407.844 383.401 625 553 c 0,18,19
 795.355 687.284 795.355 687.284 922 701 c 0,20,21
 1185.81 729.96 1185.81 729.96 1226.95 434.062 c 0,22,23
 1237.75 356.358 1237.75 356.358 1220.92 292 c 1,24,25
 1310.54 179.416 1310.54 179.416 1421.67 179.416 c 2,26,-1
 1467.56 179.416 l 1,27,-1
 1467.56 0.40332 l 1,28,-1
 1424.43 0.40332 l 2,29,30
 1234.37 0.40332 1234.37 0.40332 1140.94 163.958 c 1,31,32
 1080.76 100.332 1080.76 100.332 997.94 63.958 c 0,33,34
 849.113 -0.602477 849.113 -0.602477 660.585 -0.114258 c 2,35,-1
 386.053 0.59668 l 2,36,-1
 -10.6797 -0.126953 l 1,37,-1
 -10.6797 178.991 l 1,38,-1
 183.422 178.992 l 1,11,-1
EndSplineSet
EndChar

StartChar: uniFECA
Encoding: 65226 65226 210
Width: 1212
VWidth: 2289
GlyphClass: 2
Flags: W
AnchorPoint: "Anchor-10" 429.886 1115.6 basechar 0
AnchorPoint: "Anchor-7" 373.457 -813.007 basechar 0
LayerCount: 2
Fore
SplineSet
575.842 652.522 m 0,0,1
 521.233 652.522 521.233 652.522 477.335 645.12 c 0,2,3
 343.977 622.931 343.977 622.931 361.344 580.923 c 0,4,5
 372.666 554.585 372.666 554.585 430.432 517.593 c 0,6,7
 503.144 471.028 503.144 471.028 575.842 437.278 c 1,8,9
 638.009 463.905 638.009 463.905 716.959 519.384 c 0,10,11
 768.938 556.44 768.938 556.44 768.938 581.431 c 0,12,13
 768.938 631.872 768.938 631.872 674.063 645.167 c 0,14,15
 621.562 652.522 621.562 652.522 575.842 652.522 c 0,0,1
669.459 342.018 m 1,16,17
 853.293 179.114 853.293 179.114 1188.68 179.114 c 2,18,-1
 1232.69 179.114 l 1,19,-1
 1232.69 -0.898438 l 1,20,-1
 1197.62 -0.898438 l 2,21,22
 861.153 -0.898438 861.153 -0.898438 593.438 271.657 c 1,23,24
 578.614 257.438 578.614 257.438 486.938 197.657 c 0,25,26
 236.311 34.2256 236.311 34.2256 225.938 -179.343 c 0,27,28
 215.886 -377.831 215.886 -377.831 366.772 -485.332 c 0,29,30
 517.797 -591.96 517.797 -591.96 785.938 -560.343 c 0,31,32
 930.013 -542.785 930.013 -542.785 1103.24 -464.853 c 1,33,-1
 1096.29 -491.255 l 2,34,35
 1027.47 -752.694 1027.47 -752.694 628 -737.23 c 0,36,37
 355.279 -726.919 355.279 -726.919 207.764 -575.23 c 0,38,39
 57.1757 -421.794 57.1757 -421.794 91.5898 -155.538 c 0,40,41
 128.854 134.804 128.854 134.804 476.076 344.108 c 1,42,43
 361.931 396.138 361.931 396.138 277.305 468.468 c 0,44,45
 203.191 531.81 203.191 531.81 208.767 608.435 c 0,46,47
 214.26 686.409 214.26 686.409 325.342 740.188 c 0,48,49
 415.082 783.979 415.082 783.979 562.687 787.054 c 0,50,51
 635.904 788.542 635.904 788.542 701.682 781.544 c 0,52,53
 851.606 765.179 851.606 765.179 895.061 677.151 c 0,54,55
 918.709 628.843 918.709 628.843 905.964 574.577 c 0,56,57
 879.716 463.421 879.716 463.421 669.459 342.018 c 1,16,17
EndSplineSet
EndChar

StartChar: uniFECB
Encoding: 65227 65227 211
Width: 995
VWidth: 2287
GlyphClass: 2
Flags: W
AnchorPoint: "Anchor-10" 327.569 1265.15 basechar 0
AnchorPoint: "Anchor-7" 460.424 -284.284 basechar 0
LayerCount: 2
Fore
SplineSet
14.9375 179.064 m 2,0,1
 150.297 179.064 150.297 179.064 151.237 179.053 c 2,2,-1
 235.916 180.149 l 1,3,4
 39.2369 365.757 39.2369 365.757 93.2393 563.246 c 4,5,6
 151.23 775.543 151.23 775.543 392.796 813.829 c 4,7,8
 470.913 826.21 470.913 826.21 565.999 800.688 c 4,9,10
 738.151 754.476 738.151 754.476 716.096 617.729 c 6,11,-1
 710.796 584.869 l 5,12,13
 551.515 691.918 551.515 691.918 439.436 674.041 c 4,14,15
 255.28 644.938 255.28 644.938 231.039 493.286 c 4,16,17
 206.988 341.043 206.988 341.043 374.246 224.466 c 0,18,19
 413.547 196.863 413.547 196.863 602.591 231.376 c 2,20,-1
 749.38 258.175 l 2,21,22
 851.4 276.801 851.4 276.801 898.392 145.807 c 2,23,-1
 903.716 130.966 l 1,24,25
 530.596 14.3652 530.596 14.3652 85.9863 -0.0703125 c 1,26,-1
 -20.3164 -0.0537109 l 1,27,-1
 -20.3164 179.064 l 1,28,-1
 14.9375 179.064 l 2,0,1
EndSplineSet
EndChar

StartChar: uniFECC
Encoding: 65228 65228 212
Width: 1042
VWidth: 2289
GlyphClass: 2
Flags: W
AnchorPoint: "Anchor-10" 454.73 1110.16 basechar 0
AnchorPoint: "Anchor-7" 492.89 -234.98 basechar 0
LayerCount: 2
Fore
SplineSet
521.833 573.604 m 4,0,1
 467.225 573.604 467.225 573.604 423.326 566.202 c 4,2,3
 289.968 544.013 289.968 544.013 307.335 502.005 c 4,4,5
 318.657 475.667 318.657 475.667 376.423 438.675 c 4,6,7
 449.135 392.11 449.135 392.11 521.833 358.36 c 5,8,9
 584 384.986 584 384.986 662.95 440.465 c 4,10,11
 714.929 477.521 714.929 477.521 714.929 502.512 c 4,12,13
 714.929 552.953 714.929 552.953 620.055 566.248 c 4,14,15
 567.553 573.604 567.553 573.604 521.833 573.604 c 4,0,1
615.45 263.101 m 5,16,17
 746.685 176.364 746.685 176.364 988.209 177.668 c 2,18,-1
 1062.09 178.067 l 1,19,-1
 1062.09 -0.920898 l 1,20,-1
 963.233 -0.920898 l 2,21,22
 697.682 -0.920905 697.682 -0.920905 519.337 169.232 c 2,23,-1
 515.68 172.721 l 1,24,-1
 512.021 169.232 l 2,25,26
 333.022 -1.4502 333.022 -1.4502 64.9473 -1.4502 c 2,27,-1
 -51.9287 -1.4502 l 1,28,-1
 -51.9287 177.668 l 1,29,-1
 39.9951 177.668 l 2,30,31
 324.757 177.668 324.757 177.668 422.068 265.19 c 5,32,33
 307.922 317.219 307.922 317.219 223.296 389.55 c 4,34,35
 149.183 452.892 149.183 452.892 154.758 529.517 c 4,36,37
 160.251 607.49 160.251 607.49 271.333 661.27 c 4,38,39
 361.073 705.061 361.073 705.061 508.678 708.135 c 4,40,41
 581.896 709.623 581.896 709.623 647.673 702.626 c 4,42,43
 797.598 686.261 797.598 686.261 841.052 598.232 c 4,44,45
 864.7 549.925 864.7 549.925 851.955 495.658 c 4,46,47
 825.707 384.502 825.707 384.502 615.45 263.101 c 5,16,17
EndSplineSet
EndChar

StartChar: uniFEDA
Encoding: 65242 65242 226
Width: 1939
VWidth: 2267
GlyphClass: 2
Flags: W
AnchorPoint: "Anchor-10" 560.702 1448.42 basechar 0
AnchorPoint: "Anchor-7" 593.562 -286.337 basechar 0
LayerCount: 2
Fore
SplineSet
929.431 -0.5625 m 24,0,1
 496.342 -0.5625 496.342 -0.5625 355.771 69.7979 c 0,2,3
 89.0059 203.321 89.0059 203.321 91.1689 476.685 c 0,4,5
 92.127 597.679 92.127 597.679 138.009 729.079 c 1,6,-1
 146.95 724.594 l 2,7,8
 205.354 695.296 205.354 695.296 190.716 581.377 c 0,9,10
 182.616 518.352 182.616 518.352 184.347 473.659 c 0,11,12
 192.194 253.3 192.194 253.3 549.517 193.818 c 0,13,14
 640.339 178.7 640.339 178.7 907 178 c 1,15,16
 1077.2 175.916 1077.2 175.916 1188.37 185.92 c 0,17,18
 1591.75 221.461 1591.75 221.461 1607.69 413.472 c 0,19,-1
 1611.84 461.896 l 2,20,-1
 1566.04 1157.53 l 2,21,22
 1550.92 1387.25 1550.92 1387.25 1705.68 1463.21 c 2,23,-1
 1721.72 1471.09 l 1,24,-1
 1721.72 430.096 l 2,25,26
 1721.72 410.332 1721.72 410.332 1718.92 372.519 c 0,27,28
 1715.07 320.555 1715.07 320.555 1695.83 265.216 c 2,29,-1
 1694.91 262.57 l 1,30,-1
 1696.58 260.321 l 2,31,32
 1757.4 178.416 1757.4 178.416 1893.09 178.416 c 2,33,-1
 1961.2 178.416 l 1,34,-1
 1961.2 -0.59668 l 1,35,-1
 1913.71 -0.59668 l 6,36,37
 1707.18 -0.59668 1707.18 -0.59668 1597.68 125.535 c 1,38,39
 1482.89 55.5537 1482.89 55.5537 1327.4 29.0654 c 0,40,41
 1152.67 -0.5625 1152.67 -0.5625 929.431 -0.5625 c 24,0,1
1097.88 1250.8 m 1,42,-1
 1097.88 1195.74 l 1,43,44
 1024.01 1190.3 1024.01 1190.3 983.232 1175.27 c 0,45,46
 880.111 1136.61 880.111 1136.61 880.111 1085.96 c 0,47,48
 880.111 1047.65 880.111 1047.65 899.906 1022.2 c 0,49,50
 918.13 997.901 918.13 997.901 1003.03 985.414 c 0,51,52
 1055.39 977.715 1055.39 977.715 1081.82 953.577 c 0,53,54
 1107.71 929.925 1107.71 929.925 1107.71 887.469 c 0,55,56
 1107.71 785.604 1107.71 785.604 1013.15 732.129 c 0,57,58
 940.15 690.846 940.15 690.846 840.212 689.918 c 0,59,60
 776.678 689.918 776.678 689.918 720.919 699.231 c 1,61,-1
 720.919 761.19 l 1,62,63
 785.323 752.701 785.323 752.701 830.004 752.701 c 0,64,65
 909.301 752.701 909.301 752.701 960.426 772.828 c 0,66,67
 1049.84 807.168 1049.84 807.168 1049.84 864.785 c 0,68,69
 1049.84 928.954 1049.84 928.954 946.027 945.87 c 0,70,71
 885.822 955.044 885.822 955.044 853.226 988.381 c 128,-1,72
 820.548 1021.8 820.548 1021.8 821.857 1082.09 c 0,73,74
 823.848 1162.55 823.848 1162.55 898.73 1200.5 c 0,75,76
 983.854 1243.57 983.854 1243.57 1097.88 1250.8 c 1,42,-1
EndSplineSet
EndChar

StartChar: uniFEDB
Encoding: 65243 65243 227
Width: 804
VWidth: 2268
GlyphClass: 2
Flags: W
AnchorPoint: "Anchor-10" 188.208 1326.69 basechar 0
AnchorPoint: "Anchor-7" 300.925 -287.362 basechar 0
LayerCount: 2
Fore
SplineSet
-44 -0.5625 m 1,0,-1
 -44 178.556 l 1,1,-1
 54.5166 178.582 l 2,2,3
 452.631 178.687 452.631 178.687 476.425 330.916 c 0,4,5
 494.045 443.614 494.045 443.614 385.645 535.797 c 2,6,-1
 99.4453 779.182 l 2,7,8
 1.27083 862.67 1.27083 862.67 -3.81836 921.87 c 0,9,10
 -13.4111 1033.77 -13.4111 1033.77 109.764 1098.31 c 2,11,-1
 789.85 1454.65 l 1,12,-1
 789.85 1432.29 l 2,13,14
 789.85 1276.02 789.85 1276.02 610.365 1188.31 c 2,15,-1
 124.679 950.96 l 1,16,-1
 132.731 943.98 l 2,17,18
 248.108 843.963 248.108 843.963 496.097 634.843 c 0,19,20
 649.217 505.384 649.217 505.384 618.845 290.938 c 0,21,22
 595.73 127.732 595.73 127.732 464.425 63.916 c 0,23,24
 331.757 -0.5625 331.757 -0.5625 98.3262 -0.5625 c 2,25,-1
 -44 -0.5625 l 1,0,-1
EndSplineSet
EndChar

StartChar: uniFEDC
Encoding: 65244 65244 228
Width: 1053
VWidth: 2267
GlyphClass: 2
Flags: W
AnchorPoint: "Anchor-10" 188.208 1326.69 basechar 0
AnchorPoint: "Anchor-7" 305.338 -277.308 basechar 0
LayerCount: 2
Fore
SplineSet
616.845 276.585 m 1,0,1
 563.665 -1.10742 563.665 -1.10742 88.665 -1.10742 c 2,2,-1
 -52.3066 -1.10742 l 1,3,-1
 -52.3066 178.011 l 1,4,-1
 83.4648 178.17 l 2,5,6
 450.143 178.599 450.143 178.599 480.105 324.284 c 0,7,8
 494.22 392.917 494.22 392.917 369.877 505.045 c 2,9,-1
 138.831 713.394 l 2,10,11
 44.5439 798.419 44.5439 798.419 40.7354 891.632 c 0,12,13
 35.877 1011.37 35.877 1011.37 161.575 1079.22 c 2,14,-1
 876.942 1465.37 l 1,15,-1
 878.122 1438.37 l 2,16,17
 884.59 1290.37 884.59 1290.37 651.295 1166.23 c 2,18,-1
 163.2 906.501 l 1,19,-1
 815.771 274.111 l 2,20,21
 914.938 178.01 914.938 178.01 1039.62 178.341 c 2,22,-1
 1075.06 178.435 l 1,23,-1
 1075.06 -0.578125 l 1,24,-1
 1007.49 -0.578125 l 2,25,26
 825.798 -0.578125 825.798 -0.578125 616.845 276.585 c 1,0,1
EndSplineSet
EndChar

StartChar: uniFEDE
Encoding: 65246 65246 230
Width: 1483
VWidth: 2279
GlyphClass: 2
Flags: W
AnchorPoint: "Anchor-10" 462.211 900.719 basechar 0
AnchorPoint: "Anchor-7" 225.713 -553.707 basechar 0
LayerCount: 2
Fore
SplineSet
1203.45 423.919 m 2,0,1
 1203.42 293.02 1203.42 293.02 1264.16 236.018 c 128,-1,2
 1324.88 178.933 1324.88 178.933 1434.46 178.932 c 2,3,-1
 1493.39 178.932 l 5,4,-1
 1493.39 -0.0810547 l 5,5,-1
 1449.46 -0.0810547 l 2,6,7
 1318.9 -0.0810547 1318.9 -0.0810547 1197.9 84.7197 c 1,8,9
 1148.74 -391.654 1148.74 -391.654 644.325 -412 c 0,10,11
 279.145 -426.757 279.145 -426.757 141.396 -230.689 c 0,12,13
 33.2266 -77.2959 33.2266 -77.2959 91.8857 193.275 c 0,14,15
 109.441 274.248 109.441 274.248 142.63 359.23 c 1,16,17
 174.858 439.032 174.858 439.032 245 446.251 c 2,18,-1
 251.325 446.902 l 1,19,20
 124.67 126.722 124.67 126.722 214.874 -43.4248 c 0,21,22
 315.854 -235.108 315.854 -235.108 593.12 -240.171 c 0,23,24
 1076.12 -248.958 1076.12 -248.958 1107.1 75.1904 c 0,25,-1
 1111.46 198.14 l 17,26,27
 1111.7 245.169 1111.7 245.169 1111.46 248.489 c 2,28,-1
 1048.31 1122.03 l 2,29,30
 1028.56 1395.17 1028.56 1395.17 1169.23 1453.44 c 2,31,-1
 1203.46 1467.62 l 1,32,-1
 1203.46 472.488 l 2,33,-1
 1203.45 423.919 l 2,0,1
EndSplineSet
EndChar

StartChar: uniFEDF
Encoding: 65247 65247 231
Width: 552
VWidth: 2267
GlyphClass: 2
Flags: W
AnchorPoint: "Anchor-10" 304.411 1548.09 basechar 0
AnchorPoint: "Anchor-7" 233.391 -250.301 basechar 0
LayerCount: 2
Fore
SplineSet
405.577 462.761 m 2,0,1
 405.577 257.96 405.577 257.96 325.885 142.94 c 0,2,3
 226.758 -0.130858 226.758 -0.130858 54.2188 -0.130859 c 2,4,-1
 -10.8076 -0.130859 l 5,5,-1
 -10.8076 178.988 l 5,6,-1
 2.4375 178.988 l 2,7,8
 187.034 178.984 187.034 178.984 254.383 263.766 c 0,9,10
 304.249 326.54 304.249 326.54 293.604 476.371 c 2,11,-1
 248.395 1112.68 l 2,12,13
 229.339 1380.88 229.339 1380.88 389.905 1461.31 c 2,14,-1
 405.577 1469.16 l 1,15,-1
 405.577 462.761 l 2,0,1
EndSplineSet
EndChar

StartChar: uniFEE0
Encoding: 65248 65248 232
Width: 633
VWidth: 2267
GlyphClass: 2
Flags: W
AnchorPoint: "Anchor-10" 275.93 1543.88 basechar 0
AnchorPoint: "Anchor-7" 239.89 -303.269 basechar 0
LayerCount: 2
Fore
SplineSet
286.196 116.414 m 2,0,1
 185.569 4.04963 185.569 4.04963 37.0781 0.901367 c 2,2,-1
 -10.0879 -0.0986328 l 1,3,-1
 -10.0879 179.021 l 1,4,-1
 4.69727 179.021 l 2,5,6
 136.902 179.017 136.902 179.017 199.609 235.226 c 0,7,8
 269.71 298.152 269.71 298.152 260.624 424.229 c 2,9,-1
 211.187 1110.18 l 2,10,11
 191.955 1377.03 191.955 1377.03 345.89 1456.35 c 2,12,-1
 368.616 1468.06 l 1,13,-1
 368.616 424.229 l 2,14,15
 368.616 277.453 368.616 277.453 431.899 234.938 c 0,16,17
 515.133 179.02 515.133 179.02 611.822 179.021 c 2,18,-1
 643.548 179.021 l 5,19,-1
 643.548 -0.0986328 l 5,20,-1
 605.441 0.901367 l 2,21,22
 416.197 5.8675 416.197 5.8675 314.462 116.595 c 2,23,-1
 300.23 132.085 l 1,24,-1
 286.196 116.414 l 2,0,1
EndSplineSet
EndChar

StartChar: uniFEE2
Encoding: 65250 65250 234
Width: 1145
VWidth: 2313
GlyphClass: 2
Flags: W
AnchorPoint: "Anchor-10" 472.183 1061.24 basechar 0
AnchorPoint: "Anchor-7" 187.132 -769.15 basechar 0
LayerCount: 2
Fore
SplineSet
465.451 404.725 m 1,0,1
 469.808 214.693 469.808 214.693 542.451 131.725 c 0,2,3
 599.2 67.1572 599.2 67.1572 686.45 79 c 0,4,5
 830.218 99.1309 830.218 99.1309 805.45 269.226 c 0,6,7
 785.615 402.409 785.615 402.409 605.951 416.894 c 0,8,9
 531.622 423.014 531.622 423.014 465.451 404.725 c 1,0,1
950.473 256.825 m 1,10,11
 1002.16 179.057 1002.16 179.057 1124.65 178.612 c 2,12,-1
 1155.46 178.5 l 1,13,-1
 1155.46 0.529297 l 1,14,-1
 1109.76 0.529297 l 2,15,16
 973.262 0.529297 973.262 0.529297 913.451 91.7246 c 1,17,18
 892.306 28.291 892.306 28.291 842.45 -13.2754 c 0,19,20
 780.518 -64.9102 780.518 -64.9102 690.45 -69.7744 c 0,21,22
 395.451 -85.2754 395.451 -85.2754 354.951 353.894 c 1,23,24
 272.92 331.76 272.92 331.76 240.451 250.226 c 0,25,26
 204.649 162.692 204.649 162.692 220.092 -44.9834 c 2,27,-1
 243.536 -360.256 l 2,28,29
 258.309 -558.917 258.309 -558.917 119.572 -628.362 c 2,30,-1
 91.4414 -642.443 l 1,31,-1
 94.4414 17.998 l 2,32,33
 96.4482 459.708 96.4482 459.708 380.951 509.894 c 1,34,35
 379.223 575.894 379.223 575.894 406.951 642.894 c 1,36,37
 519.59 565.04 519.59 565.04 671.951 530.894 c 0,38,39
 850.936 490.645 850.936 490.645 898.45 418.226 c 0,40,41
 940.451 352.686 940.451 352.686 950.473 256.825 c 1,10,11
EndSplineSet
EndChar

StartChar: uniFEE3
Encoding: 65251 65251 235
Width: 901
VWidth: 2294
GlyphClass: 2
Flags: W
AnchorPoint: "Anchor-10" 379.953 1011.87 basechar 0
AnchorPoint: "Anchor-7" 341.794 -238.935 basechar 0
LayerCount: 2
Fore
SplineSet
729.863 32.2266 m 0,0,1
 631.614 -64.2637 631.614 -64.2637 450.774 -23.5703 c 0,2,3
 339.891 0.939453 339.891 0.939453 225.927 124.466 c 1,4,5
 117.562 -0.0654297 117.562 -0.0654297 11.4219 -0.0654297 c 6,6,-1
 -10.2021 -0.0654297 l 5,7,-1
 -10.2021 179.053 l 5,8,-1
 30.4395 179.053 l 2,9,10
 116.428 179.054 116.428 179.054 187.302 298.158 c 0,11,12
 380.936 623.519 380.936 623.519 579.883 601.062 c 0,13,14
 791.011 576.215 791.011 576.215 809.405 286.202 c 0,15,16
 819.593 120.351 819.593 120.351 729.863 32.2266 c 0,0,1
437.001 135.853 m 0,17,18
 547.439 86.0886 547.439 86.0886 619.634 129.436 c 0,19,20
 692.035 171.806 692.035 171.806 669.945 318.087 c 0,21,22
 652.45 430.148 652.45 430.148 592.19 461.01 c 0,23,24
 502.534 507.771 502.534 507.771 395.08 388.83 c 0,25,26
 358.475 348.312 358.475 348.312 293.518 231.507 c 1,27,28
 347.342 175.761 347.342 175.761 437.001 135.853 c 0,17,18
EndSplineSet
EndChar

StartChar: uniFEE4
Encoding: 65252 65252 236
Width: 1011
VWidth: 2294
GlyphClass: 2
Flags: W
AnchorPoint: "Anchor-10" 428.224 975.825 basechar 0
AnchorPoint: "Anchor-7" 390.064 -248.475 basechar 0
LayerCount: 2
Fore
SplineSet
437.001 135.853 m 0,0,1
 551.285 84.1332 551.285 84.1332 622.869 131.537 c 0,2,3
 691.803 176.48 691.803 176.48 669.945 318.087 c 0,4,5
 652.45 430.148 652.45 430.148 592.19 461.01 c 0,6,7
 502.534 507.771 502.534 507.771 395.08 388.83 c 0,8,9
 358.475 348.312 358.475 348.312 293.518 231.507 c 1,10,11
 344.957 178.232 344.957 178.232 437.001 135.853 c 0,0,1
781.938 105.5 m 1,12,13
 762.513 63.4417 762.513 63.4417 729.863 32.2266 c 0,14,15
 629.448 -63.7763 629.448 -63.7763 450.774 -23.5703 c 0,16,17
 339.891 0.939453 339.891 0.939453 225.927 124.466 c 1,18,19
 117.562 -0.0654297 117.562 -0.0654297 11.4219 -0.0654297 c 6,20,-1
 -10.2021 -0.0654297 l 5,21,-1
 -10.2021 179.053 l 5,22,-1
 30.4395 179.053 l 2,23,24
 116.428 179.054 116.428 179.054 187.302 298.158 c 0,25,26
 380.936 623.519 380.936 623.519 579.883 601.062 c 0,27,28
 790.946 577.239 790.946 577.239 809.405 286.202 c 0,29,30
 809.862 278.771 809.862 278.771 810.122 271.5 c 8,31,32
 813.456 178.37 813.456 178.37 979.64 178.37 c 2,33,-1
 1021.94 178.37 l 1,34,-1
 1021.94 -0.642578 l 1,35,-1
 1001 -0.642578 l 2,36,37
 853.994 -0.642578 853.994 -0.642578 781.938 105.5 c 1,12,13
EndSplineSet
EndChar

StartChar: uniFEEA
Encoding: 65258 65258 242
Width: 1028
VWidth: 2283
GlyphClass: 2
Flags: W
AnchorPoint: "Anchor-10" 381.234 1188.15 basechar 0
AnchorPoint: "Anchor-7" 367.38 -225.691 basechar 0
LayerCount: 2
Fore
SplineSet
661.206 405.343 m 1,0,1
 626.048 680.857 l 1,2,3
 235.758 641.719 235.758 641.719 244.978 460.019 c 0,4,5
 247.109 413.278 247.109 413.278 327.16 390.997 c 0,6,7
 443.98 357.511 443.98 357.511 661.206 405.343 c 1,0,1
679.013 255.167 m 1,8,9
 175.22 164.542 175.22 164.542 100.827 381.618 c 0,10,11
 93.1699 403.739 93.1699 403.739 90.627 431.617 c 0,12,13
 72.9326 705.938 72.9326 705.938 605.526 782.953 c 1,14,15
 606.62 809.889 606.62 809.889 591.109 936.463 c 1,16,-1
 712.969 973.57 l 17,17,18
 775.749 451.856 l 0,19,20
 799.159 254.059 799.159 254.059 869.698 211.059 c 0,21,22
 920.56 178.676 920.56 178.676 1022.75 178.609 c 2,23,-1
 1050.26 178.591 l 1,24,-1
 1050.26 -0.53125 l 1,25,-1
 1014.53 0.46875 l 2,26,27
 717.982 8.76845 717.982 8.76845 679.013 255.167 c 1,8,9
EndSplineSet
EndChar

StartChar: uniFEEB
Encoding: 65259 65259 243
Width: 1114
VWidth: 2287
GlyphClass: 2
Flags: W
AnchorPoint: "Anchor-10" 560.85 1261.35 basechar 0
AnchorPoint: "Anchor-7" 374.015 -269.475 basechar 0
LayerCount: 2
Fore
SplineSet
691.998 535.181 m 1,0,1
 723.651 426.954 723.651 426.954 683.35 345.151 c 0,2,3
 642.463 260.974 642.463 260.974 518.844 185.666 c 2,4,-1
 508.656 179.461 l 1,5,6
 884.52 33.0293 884.52 33.0293 887.828 254.242 c 0,7,8
 889.923 391.083 889.923 391.083 691.998 535.181 c 1,0,1
428.977 727.201 m 1,9,10
 414.029 735.506 414.029 735.506 401.238 742.588 c 0,11,12
 350.756 770.54 350.756 770.54 395.141 872.769 c 2,13,-1
 401.869 888.265 l 1,14,-1
 703.479 673.836 l 0,15,16
 1036.75 436.565 1036.75 436.565 1022.62 241.374 c 0,17,18
 1003.54 -21.0896 1003.54 -21.0896 706.625 -12.626 c 0,19,20
 522.958 -7.39055 522.958 -7.39055 342.128 75.1709 c 2,21,-1
 340.111 76.0918 l 1,22,-1
 338.096 75.1709 l 2,23,24
 172.147 -0.671875 172.147 -0.671875 -22.332 -0.671875 c 2,25,-1
 -49.9238 -0.671875 l 1,26,-1
 -49.9238 178.447 l 1,27,-1
 21.6152 178.447 l 2,28,29
 21.7411 178.447 21.7411 178.447 155.318 177.408 c 1,30,31
 104.457 257.61 104.457 257.61 108.678 355.488 c 0,32,33
 114.128 477.527 114.128 477.527 168.038 559.009 c 0,34,35
 250.471 681.899 250.471 681.899 346.118 711.648 c 0,36,37
 405.216 729.534 405.216 729.534 428.977 727.201 c 1,9,10
563.173 401.964 m 0,38,39
 621.781 533.117 621.781 533.117 540.439 597.676 c 0,40,41
 421.45 692.112 421.45 692.112 309.598 555.174 c 0,42,43
 247.629 480.142 247.629 480.142 235.878 406.368 c 0,44,45
 210.226 240.309 210.226 240.309 333.853 206.251 c 1,46,47
 513.712 294.038 513.712 294.038 563.173 401.964 c 0,38,39
EndSplineSet
EndChar

StartChar: uniFEEC
Encoding: 65260 65260 244
Width: 979
VWidth: 2305
GlyphClass: 2
Flags: W
AnchorPoint: "Anchor-7" 261.672 -740.967 basechar 0
AnchorPoint: "Anchor-10" 409.944 1141.58 basechar 0
LayerCount: 2
Fore
SplineSet
296.073 178.906 m 1,0,-1
 338.492 181.132 l 2,1,2
 432.088 186.044 432.088 186.044 475.763 256.477 c 0,3,4
 534.948 351.927 534.948 351.927 534.948 480.985 c 4,5,6
 534.948 566.862 534.948 566.862 517.632 593.032 c 4,7,8
 489.577 635.432 489.577 635.432 443.432 635.432 c 4,9,10
 347.606 635.432 347.606 635.432 311.25 464.647 c 4,11,12
 275.465 292.921 275.465 292.921 296.073 178.906 c 1,0,-1
233.114 603.996 m 4,13,14
 308.884 779.14 308.884 779.14 444.493 778.007 c 4,15,16
 531.804 777.126 531.804 777.126 586.534 711.229 c 4,17,18
 653.843 630.182 653.843 630.182 653.843 460.617 c 4,19,20
 653.843 208.982 653.843 208.982 507.386 75.5312 c 0,21,22
 424.352 -0.12793 424.352 -0.12793 310.932 -0.12793 c 1,23,24
 300.968 -215.566 300.968 -215.566 412.693 -373.446 c 1,25,26
 455.518 -68.8141 455.518 -68.8141 671.332 93.2119 c 0,27,28
 781.572 175.977 781.572 175.977 924.673 179.157 c 1,29,-1
 1005.54 178.451 l 1,30,-1
 1005.54 -0.636719 l 1,31,-1
 880.152 -1.12793 l 2,32,33
 591.52 -2.25865 591.52 -2.25865 514.854 -511.323 c 1,34,35
 436.854 -556.323 l 1,36,37
 216.409 -452.725 216.409 -452.725 187.413 -0.12793 c 1,38,-1
 -50.833 -0.12793 l 1,39,-1
 -50.833 178.991 l 1,40,-1
 185.466 179.053 l 1,41,42
 176.433 475.778 176.433 475.778 233.114 603.996 c 4,13,14
EndSplineSet
EndChar

StartChar: uniFEEE
Encoding: 65262 65262 246
Width: 857
VWidth: 2307
GlyphClass: 2
Flags: W
AnchorPoint: "Anchor-10" 371.964 1118.46 basechar 0
AnchorPoint: "Anchor-7" 560.13 -655.167 basechar 0
LayerCount: 2
Fore
SplineSet
486.394 528.654 m 4,0,1
 374.08 535.563 374.08 535.563 335.764 337.621 c 4,2,3
 302.785 163.135 302.785 163.135 489.659 162.74 c 4,4,5
 629.653 162.444 629.653 162.444 649.685 165.845 c 5,6,7
 645.517 278.278 645.517 278.278 619.764 371.621 c 4,8,9
 577.924 523.271 577.924 523.271 486.394 528.654 c 4,0,1
753.316 -0.0449219 m 0,10,11
 661.678 -420.64 661.678 -420.64 288 -435 c 0,12,13
 132.651 -440.962 132.651 -440.962 5.31445 -321.4 c 1,14,15
 571.077 -261.831 571.077 -261.831 645.941 2.06445 c 5,16,17
 564.62 1.45264 564.62 1.45264 483.299 0.84082 c 4,18,19
 306.521 -1.57713 306.521 -1.57713 254.339 83.2402 c 4,20,21
 199.442 171.456 199.442 171.456 215.339 311.641 c 4,22,23
 236.328 492.885 236.328 492.885 321.764 585.621 c 4,24,25
 403.394 674.036 403.394 674.036 520.139 662.001 c 4,26,27
 584.737 655.602 584.737 655.602 634.764 601.621 c 4,28,29
 728.817 499.966 728.817 499.966 750.234 306.081 c 20,30,31
 755.321 260.03 755.321 260.03 757.062 178.564 c 5,32,-1
 884.644 178.94 l 1,33,-1
 884.644 -0.0449219 l 1,34,-1
 753.316 -0.0449219 l 0,10,11
EndSplineSet
EndChar

StartChar: uniFEF0
Encoding: 65264 65264 248
Width: 1396
VWidth: 2321
GlyphClass: 2
Flags: W
AnchorPoint: "Anchor-10" 602.673 500.833 basechar 0
AnchorPoint: "Anchor-7" 211.215 -772.634 basechar 0
LayerCount: 2
Fore
SplineSet
1033.18 154.958 m 0,0,1
 1097.01 180.041 1097.01 180.041 1288.41 180.032 c 2,2,3
 1392.32 180.027 l 1,4,5
 1405.62 179.944 1405.62 179.944 1418.91 179.861 c 1,6,-1
 1418.91 0.852539 l 1,7,-1
 1338.76 0.321289 l 1,8,9
 1135.22 0.321289 l 2,10,11
 1058.9 0.321289 1058.9 0.321289 1058.9 -29.7344 c 0,12,13
 1059.93 -80.7715 1059.93 -80.7715 1192.46 -91.2148 c 0,14,15
 1325.77 -101.446 1325.77 -101.446 1344.04 -191.914 c 0,16,17
 1354.83 -242.74 1354.83 -242.74 1320.26 -314.041 c 0,18,19
 1255.57 -445.391 1255.57 -445.391 1092.26 -521.354 c 0,20,21
 877.439 -621.276 877.439 -621.276 541.677 -601.125 c 0,22,23
 162.533 -578.387 162.533 -578.387 89.7881 -302.241 c 0,24,25
 59.1249 -185.383 59.1249 -185.383 104.629 5.1582 c 0,26,27
 133.905 127.748 133.905 127.748 175.746 195.479 c 0,28,29
 242.247 303.129 242.247 303.129 339.677 304.875 c 2,30,-1
 346.597 304.999 l 1,31,32
 296.25 225.125 296.25 225.125 252.931 124.167 c 0,33,34
 218.638 40.8877 218.638 40.8877 204.824 -36.5469 c 0,35,36
 177.228 -191.242 177.228 -191.242 261.509 -298.082 c 0,37,38
 360.863 -425.256 360.863 -425.256 634.629 -431.642 c 0,39,40
 867.258 -437.024 867.258 -437.024 1040.26 -376.354 c 0,41,42
 1178.97 -327.711 1178.97 -327.711 1208.26 -289.182 c 128,-1,43
 1237.67 -250.501 1237.67 -250.501 1202 -219.474 c 0,44,45
 1188.82 -208.392 1188.82 -208.392 1087.52 -196.154 c 0,46,47
 900.693 -172.478 900.693 -172.478 893.285 -52.7646 c 0,48,49
 884.401 96.4834 884.401 96.4834 1033.18 154.958 c 0,0,1
EndSplineSet
EndChar

StartChar: uniFEFB
Encoding: 65275 65275 259
Width: 1027
VWidth: 2267
GlyphClass: 3
Flags: W
AnchorPoint: "Anchor-9" 819.258 1573.49 baselig 0
AnchorPoint: "Anchor-6" 783.378 -214.319 baselig 0
AnchorPoint: "Anchor-6" 176.937 -242.691 baselig 1
AnchorPoint: "Anchor-9" 141.146 1465.52 baselig 1
LayerCount: 2
Fore
SplineSet
554.48 198 m 1,0,1
 654.587 218.519 654.587 218.519 714.139 292.94 c 0,2,3
 778.326 373.737 778.326 373.737 768.604 513.371 c 2,4,-1
 723.395 1162.68 l 2,5,6
 707.327 1393.44 707.327 1393.44 864.905 1462.31 c 2,7,-1
 880.577 1469.16 l 1,8,-1
 880.577 499.761 l 2,9,10
 880.577 310.214 880.577 310.214 783.139 175.94 c 0,11,12
 655.37 -0.130858 655.37 -0.130858 415.219 -0.130859 c 2,13,-1
 292.48 -0.130859 l 2,14,15
 103.376 -0.131385 103.376 -0.131385 104.321 142 c 2,16,17
 104.48 165.94 l 1,18,19
 379.089 144 379.089 144 467.48 172 c 1,20,-1
 107.441 993.7 l 2,21,22
 5.38093 1226.63 5.38093 1226.63 143.108 1334 c 2,23,-1
 160.694 1347.71 l 1,24,-1
 554.48 198 l 1,0,1
EndSplineSet
LCarets2: 1 0 
Ligature2: "'rlig' Required Ligatures in Arabic lookup 16 subtable" uniFEDF uniFE8E
EndChar

StartChar: uniFEFC
Encoding: 65276 65276 260
Width: 1269
VWidth: 2267
GlyphClass: 3
Flags: W
AnchorPoint: "Anchor-9" 894.932 1529.02 baselig 0
AnchorPoint: "Anchor-6" 880.991 -233.368 baselig 0
AnchorPoint: "Anchor-6" 237.16 -260.078 baselig 1
AnchorPoint: "Anchor-9" 105.53 1423.55 baselig 1
LayerCount: 2
Fore
SplineSet
760.001 167.41 m 0,0,1
 606.474 -2.11733 606.474 -2.11733 313.31 -0.587891 c 0,2,3
 94.6735 0.552772 94.6735 0.552772 97.3555 146.633 c 2,4,5
 97.7227 166.633 l 1,6,7
 408.085 148.011 408.085 148.011 511.521 191.382 c 2,8,-1
 515.945 193.237 l 1,9,-1
 155.502 1002 l 2,10,11
 52.1436 1233.92 52.1436 1233.92 191.169 1342.3 c 2,12,-1
 208.755 1356.01 l 1,13,-1
 599.109 234.112 l 1,14,15
 763.453 313.207 763.453 313.207 821.801 516.15 c 1,16,17
 865.217 685.176 865.217 685.176 842.08 911.35 c 2,18,-1
 816.849 1158 l 2,19,20
 793.313 1388.07 793.313 1388.07 947.169 1456.72 c 2,21,-1
 970.657 1467.2 l 1,22,-1
 970.657 669.332 l 2,23,24
 970.657 461.423 970.657 461.423 1013.72 319.633 c 0,25,26
 1056.61 178.425 1056.61 178.425 1224.49 178.425 c 2,27,-1
 1291.64 178.425 l 1,28,-1
 1291.64 -0.587891 l 1,29,-1
 1196.72 0 l 2,30,31
 951.421 1.51927 951.421 1.51927 878.723 367.633 c 1,32,33
 846.274 262.675 846.274 262.675 760.001 167.41 c 0,0,1
EndSplineSet
LCarets2: 1 0 
Ligature2: "'rlig' Required Ligatures in Arabic lookup 16 subtable" uniFEE0 uniFE8E
EndChar

StartChar: arabic_dot
Encoding: 65536 -1 261
Width: 150
GlyphClass: 2
Flags: W
LayerCount: 2
Fore
SplineSet
90.9665 173.16 m 2,0,-1
 169.643 94.4834 l 2,1,2
 177.053 87.0736 177.053 87.0736 177.104 82.4778 c 128,-1,3
 177.154 77.9602 177.154 77.9602 170.143 71.0166 c 2,4,-1
 87.6944 -11.4324 l 2,5,6
 79.5956 -19.2181 79.5956 -19.2181 74.4843 -19.2695 c 0,7,8
 69.1284 -19.3232 69.1284 -19.3232 61.3566 -11.4834 c 2,9,-1
 -20.6942 70.5674 l 2,10,11
 -27.5687 77.0586 -27.5687 77.0586 -27.2361 82.4307 c 0,12,13
 -26.8756 88.2512 -26.8756 88.2512 -17.6434 97.4835 c 2,14,-1
 58.8725 173.999 l 2,15,16
 67.7957 183.003 67.7957 183.003 74.5331 182.864 c 128,-1,17
 81.4055 182.722 81.4055 182.722 90.9665 173.16 c 2,0,-1
EndSplineSet
EndChar

StartChar: arabic_2dots
Encoding: 65537 -1 262
Width: 452
GlyphClass: 2
Flags: W
LayerCount: 2
Fore
SplineSet
360.143 172.984 m 2,0,-1
 438.644 94.483 l 2,1,2
 446.053 87.0737 446.053 87.0737 446.104 82.4774 c 128,-1,3
 446.155 77.9603 446.155 77.9603 439.143 71.0169 c 2,4,-1
 357.143 -10.9832 l 2,5,6
 348.912 -19.2149 348.912 -19.2149 343.484 -19.2689 c 128,-1,7
 338.128 -19.3228 338.128 -19.3228 330.357 -11.4831 c 2,8,-1
 248.306 70.5674 l 2,9,10
 241.431 77.0592 241.431 77.0592 241.763 82.4299 c 0,11,12
 242.124 88.2506 242.124 88.2506 251.357 97.4835 c 2,13,-1
 327.873 174 l 2,14,15
 336.795 183.003 336.795 183.003 343.534 182.863 c 128,-1,16
 350.406 182.721 350.406 182.721 360.143 172.984 c 2,0,-1
123.143 172.983 m 2,17,-1
 201.643 94.4832 l 2,18,19
 209.053 87.0729 209.053 87.0729 209.104 82.4775 c 128,-1,20
 209.154 78.0274 209.154 78.0274 202.143 71.0169 c 2,21,-1
 120.144 -10.983 l 2,22,23
 111.911 -19.2149 111.911 -19.2149 106.484 -19.2689 c 128,-1,24
 101.196 -19.322 101.196 -19.322 93.3568 -11.4831 c 2,25,-1
 10.9532 70.9205 l 2,26,27
 4.47233 77.7291 4.47233 77.7291 4.76387 82.431 c 0,28,29
 5.10553 87.9457 5.10553 87.9457 13.9056 97.0322 c 2,30,-1
 90.8568 173.983 l 2,31,32
 99.8754 183.002 99.8754 183.002 106.534 182.863 c 0,33,34
 113.405 182.721 113.405 182.721 123.143 172.983 c 2,17,-1
EndSplineSet
EndChar

StartChar: arabic_3dots
Encoding: 65538 -1 263
Width: 455
GlyphClass: 2
Flags: W
LayerCount: 2
Fore
SplineSet
242.38 354.073 m 2,0,-1
 321.559 274.893 l 2,1,2
 328.969 267.484 328.969 267.484 329.02 262.888 c 128,-1,3
 329.07 258.37 329.07 258.37 322.059 251.427 c 2,4,-1
 240.059 169.427 l 2,5,6
 231.828 161.195 231.828 161.195 226.401 161.141 c 128,-1,7
 221.044 161.087 221.044 161.087 213.273 168.927 c 2,8,-1
 131.222 250.977 l 2,9,10
 124.347 257.469 124.347 257.469 124.68 262.841 c 0,11,12
 125.041 268.662 125.041 268.662 134.273 277.893 c 2,13,-1
 210.773 354.393 l 2,14,15
 219.955 363.576 219.955 363.576 226.24 363.624 c 128,-1,16
 232.518 363.673 232.518 363.673 242.38 354.073 c 2,0,-1
364.143 160.983 m 2,17,-1
 442.643 82.4832 l 2,18,19
 450.053 75.0732 450.053 75.0732 450.104 70.4783 c 128,-1,20
 450.153 66.0269 450.153 66.0269 443.143 59.0169 c 2,21,-1
 361.143 -22.983 l 2,22,23
 352.911 -31.2149 352.911 -31.2149 347.484 -31.2689 c 128,-1,24
 342.196 -31.322 342.196 -31.322 334.357 -23.4831 c 2,25,-1
 252.357 58.5169 l 2,26,27
 245.453 65.4206 245.453 65.4206 245.763 70.4307 c 0,28,29
 246.124 76.2504 246.124 76.2504 255.357 85.4831 c 2,30,-1
 331.856 161.983 l 2,31,32
 340.875 171.001 340.875 171.001 347.533 170.864 c 0,33,34
 354.405 170.722 354.405 170.722 364.143 160.983 c 2,17,-1
123.143 160.983 m 2,35,-1
 201.643 82.4832 l 2,36,37
 209.053 75.0729 209.053 75.0729 209.104 70.4783 c 128,-1,38
 209.153 66.0267 209.153 66.0267 202.143 59.0169 c 2,39,-1
 120.144 -22.983 l 2,40,41
 111.911 -31.2149 111.911 -31.2149 106.484 -31.2689 c 128,-1,42
 101.196 -31.322 101.196 -31.322 93.3568 -23.4831 c 2,43,-1
 10.9532 58.9205 l 2,44,45
 4.47233 65.7291 4.47233 65.7291 4.76387 70.431 c 0,46,47
 5.12442 76.2506 5.12442 76.2506 14.3568 85.4831 c 2,48,-1
 90.8568 161.983 l 2,49,50
 99.8749 171.001 99.8749 171.001 106.533 170.864 c 0,51,52
 113.405 170.722 113.405 170.722 123.143 160.983 c 2,35,-1
EndSplineSet
EndChar

StartChar: arabic_3dots_a
Encoding: 65539 -1 264
Width: 454
GlyphClass: 2
Flags: W
LayerCount: 2
Fore
SplineSet
237.093 -8.85352 m 6,0,-1
 315.894 -87.6543 l 6,1,2
 323.303 -95.0645 323.303 -95.0645 323.354 -99.6602 c 132,-1,3
 323.404 -104.178 323.404 -104.178 316.394 -111.121 c 6,4,-1
 234.394 -193.121 l 6,5,6
 226.162 -201.353 226.162 -201.353 220.734 -201.407 c 132,-1,7
 215.378 -201.461 215.378 -201.461 207.606 -193.621 c 6,8,-1
 125.556 -111.571 l 6,9,10
 118.682 -105.079 118.682 -105.079 119.015 -99.707 c 4,11,12
 119.375 -93.8867 119.375 -93.8867 128.606 -84.6543 c 6,13,-1
 205.37 -7.8916 l 6,14,15
 214.685 0.956055 214.685 0.956055 221.005 0.720703 c 132,-1,16
 227.507 0.479492 227.507 0.479492 237.093 -8.85352 c 6,0,-1
363.004 181.123 m 2,17,-1
 441.644 102.483 l 2,18,19
 449.053 95.0742 449.053 95.0742 449.104 90.4775 c 128,-1,20
 449.153 86.0264 449.153 86.0264 442.144 79.0166 c 2,21,-1
 360.144 -2.9834 l 2,22,23
 351.912 -11.2148 351.912 -11.2148 346.484 -11.2695 c 128,-1,24
 341.195 -11.3223 341.195 -11.3223 333.356 -3.4834 c 2,25,-1
 251.306 78.5684 l 2,26,27
 244.453 85.421 244.453 85.421 244.764 90.4307 c 0,28,29
 245.124 96.251 245.124 96.251 254.356 105.483 c 2,30,-1
 330.872 181.999 l 2,31,32
 339.874 191.001 339.874 191.001 346.533 190.864 c 0,33,34
 353.405 190.722 353.405 190.722 363.004 181.123 c 2,17,-1
123.144 180.983 m 2,35,-1
 201.644 102.483 l 2,36,37
 209.053 95.0742 209.053 95.0742 209.104 90.4775 c 128,-1,38
 209.153 86.0264 209.153 86.0264 202.144 79.0166 c 2,39,-1
 120.144 -2.9834 l 2,40,41
 111.912 -11.2148 111.912 -11.2148 106.484 -11.2695 c 128,-1,42
 101.195 -11.3223 101.195 -11.3223 93.3564 -3.4834 c 2,43,-1
 11.3057 78.5674 l 2,44,45
 4.4541 85.4189 4.4541 85.4189 4.76367 90.4307 c 0,46,47
 5.12402 96.251 5.12402 96.251 14.3564 105.483 c 2,48,-1
 90.8721 181.999 l 2,49,50
 99.874 191.001 99.874 191.001 106.533 190.864 c 0,51,52
 113.405 190.722 113.405 190.722 123.144 180.983 c 2,35,-1
EndSplineSet
EndChar

StartChar: uni066E.fina
Encoding: 65540 -1 265
Width: 1894
VWidth: 2291
GlyphClass: 2
Flags: W
AnchorPoint: "Anchor-10" 699.344 1103.48 basechar 0
AnchorPoint: "Anchor-7" 699.344 -210.389 basechar 0
LayerCount: 2
Fore
SplineSet
929.564 -0.648438 m 4,0,1
 496.475 -0.648438 496.475 -0.648438 355.904 69.7119 c 4,2,3
 89.1396 203.235 89.1396 203.235 91.3027 476.599 c 4,4,5
 92.7419 688.521 92.7419 688.521 202.763 703.457 c 6,6,-1
 206.763 704 l 5,7,8
 191.182 632.774 191.182 632.774 184.763 575 c 4,9,10
 179.543 528.021 179.543 528.021 181.479 473.573 c 4,11,12
 189.651 243.687 189.651 243.687 549.649 193.732 c 4,13,14
 645.027 180.407 645.027 180.407 963.263 178.172 c 28,15,16
 1138.25 177.186 1138.25 177.186 1244.76 195.676 c 4,17,18
 1538.65 248.911 1538.65 248.911 1540.48 389.432 c 4,19,20
 1543.81 569.414 1543.81 569.414 1662.13 569.414 c 6,21,-1
 1664.73 569.414 l 5,22,23
 1662.33 476.753 1662.33 476.753 1669.8 435.712 c 5,24,25
 1705.76 178.895 1705.76 178.895 1871.17 178.895 c 6,26,-1
 1904.24 178.895 l 5,27,-1
 1904.24 -0.118164 l 5,28,-1
 1889.94 0.881836 l 6,29,30
 1612.27 20.2992 1612.27 20.2992 1609.76 244.172 c 5,31,32
 1512.5 68.1875 1512.5 68.1875 1229.76 13.1426 c 4,33,34
 1158.92 -0.648438 1158.92 -0.648438 929.564 -0.648438 c 4,0,1
EndSplineSet
EndChar

StartChar: uni06A1.fina
Encoding: 65543 -1 268
Width: 1926
VWidth: 2288
GlyphClass: 2
Flags: W
AnchorPoint: "Anchor-10" 509.221 1212.58 basechar 0
AnchorPoint: "Anchor-7" 622.641 -261.885 basechar 0
LayerCount: 2
Fore
SplineSet
1264.61 517.22 m 132,-1,1
 1264.61 437.816 1264.61 437.816 1316.29 381.564 c 132,-1,2
 1368.12 325.132 1368.12 325.132 1441.48 325.132 c 132,-1,3
 1514.83 325.132 1514.83 325.132 1566.67 381.564 c 132,-1,4
 1618.34 437.814 1618.34 437.814 1618.34 517.22 c 132,-1,5
 1618.34 596.615 1618.34 596.615 1566.67 652.869 c 132,-1,6
 1514.83 709.302 1514.83 709.302 1441.48 709.302 c 132,-1,7
 1368.13 709.302 1368.13 709.302 1316.29 652.869 c 132,-1,0
 1264.61 596.621 1264.61 596.621 1264.61 517.22 c 132,-1,1
911.42 -0.519531 m 1,8,9
 496.463 -0.648438 496.463 -0.648438 355.904 69.7119 c 0,10,11
 89.1396 203.235 89.1396 203.235 91.3027 476.599 c 0,12,13
 92.7419 688.524 92.7419 688.524 202.763 703.457 c 2,14,-1
 206.763 704 l 1,15,16
 191.182 632.774 191.182 632.774 184.763 575 c 0,17,18
 179.543 528.021 179.543 528.021 181.479 473.573 c 0,19,20
 189.689 242.611 189.689 242.611 549.649 193.732 c 0,21,22
 647.776 180.407 647.776 180.407 911.42 178.6 c 17,23,-1
 1005.76 178.6 l 6,24,25
 1222.56 178.6 1222.56 178.6 1335.14 228.505 c 5,26,27
 1191.35 286.665 1191.35 286.665 1154.14 433.505 c 4,28,29
 1133.02 516.878 1133.02 516.878 1155.01 609.258 c 4,30,31
 1189.18 753.329 1189.18 753.329 1318.03 812.706 c 4,32,33
 1373.5 838.727 1373.5 838.727 1445.32 839.216 c 4,34,35
 1526.26 839.732 1526.26 839.732 1587.29 805.249 c 4,36,37
 1686.82 749.018 1686.82 749.018 1720.14 635.505 c 4,38,39
 1748.54 536.861 1748.54 536.861 1720.14 429.505 c 4,40,41
 1688.53 310.032 1688.53 310.032 1543.14 227.505 c 5,42,43
 1657.12 176.933 1657.12 176.933 1895.69 178.6 c 6,44,-1
 1953.86 179.006 l 5,45,-1
 1953.86 0 l 5,46,-1
 1749.07 -0.519531 l 6,47,48
 1598.78 -0.900842 1598.78 -0.900842 1436.78 111.567 c 6,49,-1
 1433.85 113.605 l 5,50,-1
 1430.86 111.647 l 6,51,52
 1267.92 4.95492 1267.92 4.95492 1106.78 2.48047 c 6,53,-1
 911.42 -0.519531 l 1,8,9
EndSplineSet
EndChar

StartChar: uni06A1.init
Encoding: 65544 -1 269
Width: 712
VWidth: 2307
GlyphClass: 2
Flags: W
AnchorPoint: "Anchor-10" 435.699 1270 basechar 0
AnchorPoint: "Anchor-7" 340.299 -208.172 basechar 0
LayerCount: 2
Fore
SplineSet
346.189 887.561 m 4,0,1
 235.105 894.394 235.105 894.394 195.56 696.527 c 4,2,3
 157.75 510.384 157.75 510.384 349.455 508.646 c 4,4,5
 415.034 508.351 415.034 508.351 509.481 524.751 c 5,6,7
 505.313 637.184 505.313 637.184 479.56 730.527 c 4,8,9
 437.72 882.177 437.72 882.177 346.189 887.561 c 4,0,1
617.516 359.225 m 4,10,11
 583.516 151.225 583.516 151.225 417.912 56.7979 c 4,12,13
 316.019 -0.97168 316.019 -0.97168 178.861 -0.97168 c 6,14,-1
 -10.1064 -0.97168 l 5,15,-1
 -10.1064 178.147 l 5,16,-1
 57.7773 178.147 l 6,17,18
 278.856 178.146 278.856 178.146 321.671 189.828 c 4,19,20
 507.373 240.877 507.373 240.877 511.516 371.225 c 5,21,22
 415.827 333.768 415.827 333.768 325.516 339.225 c 4,23,24
 181.266 347.94 181.266 347.94 114.135 442.146 c 4,25,26
 58.1934 521.149 58.1934 521.149 75.1348 670.547 c 4,27,28
 96.124 851.791 96.124 851.791 181.56 944.527 c 4,29,30
 262.866 1031.93 262.866 1031.93 368.848 1022.72 c 4,31,32
 453.528 1015.76 453.528 1015.76 508.848 946.717 c 4,33,34
 590.538 843.867 590.538 843.867 614.03 664.987 c 4,35,36
 637.691 482.653 637.691 482.653 617.516 359.225 c 4,10,11
EndSplineSet
EndChar

StartChar: uni06A1.medi
Encoding: 65545 -1 270
Width: 970
VWidth: 2288
GlyphClass: 2
Flags: W
AnchorPoint: "Anchor-10" 511.04 1043.65 basechar 0
AnchorPoint: "Anchor-7" 511.04 -203.966 basechar 0
LayerCount: 2
Fore
SplineSet
303.732 516.973 m 132,-1,1
 303.732 437.569 303.732 437.569 355.405 381.317 c 132,-1,2
 407.244 324.885 407.244 324.885 480.597 324.885 c 132,-1,3
 553.949 324.885 553.949 324.885 605.787 381.317 c 132,-1,4
 657.459 437.567 657.459 437.567 657.459 516.973 c 132,-1,5
 657.459 596.368 657.459 596.368 605.787 652.622 c 132,-1,6
 553.947 709.055 553.947 709.055 480.597 709.055 c 132,-1,7
 407.246 709.055 407.246 709.055 355.405 652.622 c 132,-1,0
 303.732 596.374 303.732 596.374 303.732 516.973 c 132,-1,1
626.41 805.002 m 4,8,9
 725.94 748.77 725.94 748.77 759.26 635.258 c 4,10,11
 787.664 536.614 787.664 536.614 759.26 429.258 c 4,12,13
 727.649 309.785 727.649 309.785 582.26 227.258 c 5,14,15
 696.234 176.689 696.234 176.689 934.813 178.353 c 6,16,-1
 992.98 178.759 l 5,17,-1
 992.98 -0.24707 l 5,18,-1
 788.188 -0.766602 l 6,19,20
 637.817 -1.14809 637.817 -1.14809 475.902 111.32 c 6,21,-1
 472.968 113.358 l 5,22,-1
 469.977 111.4 l 6,23,24
 298.634 -0.766602 298.634 -0.766602 145.901 -0.766602 c 6,25,-1
 -20.46 -0.766602 l 5,26,-1
 -20.46 178.353 l 5,27,-1
 44.8838 178.353 l 6,28,29
 261.682 178.355 261.682 178.355 374.26 228.258 c 5,30,31
 228.374 287.264 228.374 287.264 193.26 433.258 c 4,32,33
 172.135 516.631 172.135 516.631 194.125 609.011 c 4,34,35
 228.295 753.082 228.295 753.082 357.145 812.459 c 4,36,37
 412.623 838.479 412.623 838.479 484.436 838.969 c 4,38,39
 565.375 839.485 565.375 839.485 626.41 805.002 c 4,8,9
EndSplineSet
EndChar

StartChar: uni066F.fina
Encoding: 65546 -1 271
Width: 1406
VWidth: 2307
GlyphClass: 2
Flags: W
AnchorPoint: "Anchor-10" 348.271 949.913 basechar 0
AnchorPoint: "Anchor-7" 436.935 -766.036 basechar 0
LayerCount: 2
Fore
SplineSet
1022.07 524.613 m 0,0,1
 909.758 531.521 909.758 531.521 871.441 333.58 c 0,2,3
 838.463 159.094 838.463 159.094 1025.34 158.698 c 0,4,5
 1165.33 158.402 1165.33 158.402 1185.36 161.804 c 1,6,7
 1181.2 274.236 1181.2 274.236 1155.44 367.58 c 0,8,9
 1113.6 519.23 1113.6 519.23 1022.07 524.613 c 0,0,1
1292.74 174.522 m 1,10,-1
 1415.98 174.898 l 1,11,-1
 1415.98 -4.08691 l 1,12,-1
 1291.75 -4.08691 l 1,13,14
 1292.81 -58.1465 1292.81 -58.1465 1282.21 -109.868 c 0,15,16
 1196.33 -521.856 1196.33 -521.856 651.355 -532.928 c 0,17,18
 311.702 -539.507 311.702 -539.507 173.396 -346.848 c 0,19,20
 64.6035 -196.328 64.6035 -196.328 123.886 77.1162 c 0,21,22
 144.379 171.642 144.379 171.642 174.631 243.071 c 0,23,24
 229.897 373.566 229.897 373.566 306.07 377.176 c 2,25,-1
 320.016 377.837 l 1,26,27
 163.871 51.1407 163.871 51.1407 246.876 -159.583 c 0,28,29
 325.978 -360.4 325.978 -360.4 635.55 -363.083 c 0,30,31
 1142.23 -369.355 1142.23 -369.355 1181.62 -1.97656 c 1,32,33
 1100.3 -2.58887 1100.3 -2.58887 1018.98 -3.2002 c 0,34,35
 842.199 -5.61816 842.199 -5.61816 790.017 79.1982 c 0,36,37
 735.119 167.415 735.119 167.415 751.017 307.6 c 0,38,39
 772.006 488.844 772.006 488.844 857.441 581.58 c 0,40,41
 939.072 669.994 939.072 669.994 1055.82 657.961 c 0,42,43
 1120.42 651.561 1120.42 651.561 1170.44 597.58 c 0,44,45
 1264.49 495.926 1264.49 495.926 1285.91 302.039 c 16,46,47
 1291 255.988 1291 255.988 1292.74 174.522 c 1,10,-1
EndSplineSet
EndChar

StartChar: arabic_ring
Encoding: 65549 -1 274
Width: 438
GlyphClass: 2
Flags: W
LayerCount: 2
Fore
SplineSet
316 220 m 4,0,1
 316 260 316 260 288 288 c 4,2,3
 260 317 260 317 219 317 c 132,-1,4
 178 317 178 317 150 289 c 132,-1,5
 122 261 122 261 122 220 c 4,6,7
 122 178 122 178 150 150 c 4,8,9
 178 123 178 123 219 123 c 132,-1,10
 260 123 260 123 288 151 c 132,-1,11
 316 179 316 179 316 220 c 4,0,1
438 220 m 132,-1,13
 438 128 438 128 375 64 c 4,14,15
 311 0 311 0 219 0 c 132,-1,16
 127 0 127 0 64 64 c 4,17,18
 0 128 0 128 0 220 c 132,-1,19
 0 312 0 312 64 376 c 4,20,21
 127 439 127 439 219 439 c 132,-1,22
 311 439 311 439 375 376 c 5,23,12
 438 312 438 312 438 220 c 132,-1,13
EndSplineSet
EndChar

StartChar: arabic_gaf_bar
Encoding: 65550 -1 275
Width: 674
GlyphClass: 2
Flags: W
LayerCount: 2
Fore
SplineSet
540 1606.41 m 2,0,-1
 0 1321 l 1,1,-1
 0 1338 l 2,2,3
 0 1430 0 1430 105 1485.5 c 2,4,-1
 666 1782 l 1,5,-1
 666 1766 l 2,6,7
 666 1673 666 1673 540 1606.41 c 2,0,-1
EndSplineSet
EndChar

StartChar: uni066E.init.math
Encoding: 65560 -1 285
Width: 909
VWidth: 2293
GlyphClass: 2
Flags: W
LayerCount: 2
Fore
SplineSet
588.064 80.9707 m 0,0,1
 511.546 -9.67969 511.546 -9.67969 343.01 -9.67969 c 2,2,-1
 -23.5381 -9.67969 l 1,3,-1
 -23.5381 160.853 l 1,4,-1
 280.629 160.853 l 2,5,6
 400.819 160.853 400.819 160.853 456.311 216.346 c 0,7,8
 517.476 277.51 517.476 277.51 517.476 405.639 c 2,9,-1
 517.476 632.68 l 1,10,-1
 688.008 632.68 l 1,11,-1
 688.008 405.639 l 2,12,13
 688.008 201.073 688.008 201.073 588.064 80.9707 c 0,0,1
EndSplineSet
EndChar

StartChar: guillemotleft
Encoding: 171 171 286
Width: 1253
Flags: W
LayerCount: 2
Fore
SplineSet
582.859 931.098 m 5,0,-1
 448.889 931.098 l 5,1,-1
 440.057 917.129 l 6,2,3
 367.416 802.234 367.416 802.234 331.08 692.026 c 4,4,5
 294.055 579.72 294.055 579.72 294.055 468.617 c 4,6,7
 294.055 357.089 294.055 357.089 331.07 244.278 c 4,8,9
 367.422 133.541 367.422 133.541 440.08 19.1 c 6,10,-1
 448.918 5.1781 l 5,11,-1
 582.945 5.1781 l 5,12,-1
 557.322 50.0531 l 6,13,14
 498.045 153.868 498.045 153.868 468.502 256.018 c 4,15,16
 438.055 361.295 438.055 361.295 438.055 468.617 c 132,-1,17
 438.055 575.917 438.055 575.917 468.49 680.456 c 4,18,19
 498.045 781.967 498.045 781.967 557.365 886.268 c 6,20,-1
 582.859 931.098 l 5,0,-1
958.859 931.098 m 5,21,-1
 824.889 931.098 l 5,22,-1
 816.057 917.129 l 6,23,24
 743.416 802.234 743.416 802.234 707.08 692.026 c 4,25,26
 670.055 579.72 670.055 579.72 670.055 468.617 c 4,27,28
 670.055 357.089 670.055 357.089 707.07 244.278 c 4,29,30
 743.422 133.541 743.422 133.541 816.08 19.1 c 6,31,-1
 824.918 5.1781 l 5,32,-1
 958.945 5.1781 l 5,33,-1
 933.322 50.0531 l 6,34,35
 874.045 153.868 874.045 153.868 844.502 256.018 c 4,36,37
 814.055 361.295 814.055 361.295 814.055 468.617 c 132,-1,38
 814.055 575.917 814.055 575.917 844.49 680.456 c 4,39,40
 874.045 781.967 874.045 781.967 933.365 886.268 c 6,41,-1
 958.859 931.098 l 5,21,-1
EndSplineSet
EndChar

StartChar: guillemotright
Encoding: 187 187 287
Width: 1253
Flags: W
LayerCount: 2
Fore
SplineSet
670.141 931.098 m 1,0,-1
 804.111 931.098 l 1,1,-1
 812.943 917.129 l 2,2,3
 885.584 802.234 885.584 802.234 921.92 692.026 c 0,4,5
 958.945 579.72 958.945 579.72 958.945 468.617 c 0,6,7
 958.945 357.089 958.945 357.089 921.93 244.278 c 0,8,9
 885.578 133.541 885.578 133.541 812.92 19.1 c 2,10,-1
 804.082 5.1781 l 1,11,-1
 670.055 5.1781 l 1,12,-1
 695.678 50.0531 l 2,13,14
 754.955 153.868 754.955 153.868 784.498 256.018 c 0,15,16
 814.945 361.295 814.945 361.295 814.945 468.617 c 128,-1,17
 814.945 575.917 814.945 575.917 784.51 680.456 c 0,18,19
 754.955 781.967 754.955 781.967 695.635 886.268 c 2,20,-1
 670.141 931.098 l 1,0,-1
294.141 931.098 m 1,21,-1
 428.111 931.098 l 1,22,-1
 436.943 917.129 l 2,23,24
 509.584 802.234 509.584 802.234 545.92 692.026 c 0,25,26
 582.945 579.72 582.945 579.72 582.945 468.617 c 0,27,28
 582.945 357.089 582.945 357.089 545.93 244.278 c 0,29,30
 509.578 133.541 509.578 133.541 436.92 19.1 c 2,31,-1
 428.082 5.1781 l 1,32,-1
 294.055 5.1781 l 1,33,-1
 319.678 50.0531 l 2,34,35
 378.955 153.868 378.955 153.868 408.498 256.018 c 0,36,37
 438.945 361.295 438.945 361.295 438.945 468.617 c 128,-1,38
 438.945 575.917 438.945 575.917 408.51 680.456 c 0,39,40
 378.955 781.967 378.955 781.967 319.635 886.268 c 2,41,-1
 294.141 931.098 l 1,21,-1
EndSplineSet
EndChar

StartChar: NameMe.337
Encoding: 65562 -1 294
Width: 615
VWidth: 2181
Flags: W
LayerCount: 2
Fore
SplineSet
273.32 94.5264 m 6,0,1
 188.675 -4.05053e-07 188.675 -4.05053e-07 80.7002 0 c 6,2,-1
 -20.4004 0 l 5,3,-1
 -20.4004 168.98 l 5,4,-1
 21.8496 168.98 l 6,5,6
 127.746 168.98 127.746 168.98 186.495 221.642 c 4,7,8
 253.047 281.38 253.047 281.38 247.29 400.31 c 6,9,-1
 208.29 1205.96 l 5,10,-1
 365.17 1275.96 l 5,11,-1
 365.17 400.31 l 6,12,13
 365.17 280.933 365.17 280.933 395.729 237.004 c 4,14,15
 443.051 168.98 443.051 168.98 594.61 168.98 c 6,16,-1
 635.86 168.98 l 5,17,-1
 635.86 0 l 5,18,-1
 535.76 0 l 6,19,20
 386.989 -1.40678e-05 386.989 -1.40678e-05 299.987 94.6973 c 6,21,-1
 286.56 109.312 l 5,22,-1
 273.32 94.5264 l 6,0,1
EndSplineSet
EndChar

StartChar: NameMe.338
Encoding: 65563 -1 295
Width: 532
VWidth: 2181
Flags: W
LayerCount: 2
Fore
SplineSet
393.17 436.69 m 2,0,1
 393.17 192.801 393.17 192.801 289.385 90.0967 c 4,2,3
 195.617 0 195.617 0 54.7002 0 c 2,4,-1
 -20.4004 0 l 1,5,-1
 -20.4004 168.98 l 1,6,-1
 12.8496 168.98 l 2,7,8
 152 168.98 152 168.98 215.957 248.894 c 0,9,10
 278.635 327.221 278.635 327.221 273.29 449.53 c 2,11,-1
 235.29 1319.03 l 1,12,-1
 393.17 1389.03 l 1,13,-1
 393.17 436.69 l 2,0,1
EndSplineSet
EndChar

